<svg width="50" height="50" viewBox="0 0 50 50" fill="none" xmlns="http://www.w3.org/2000/svg">
<g clip-path="url(#clip0_8_343)">
<path d="M13.0125 38.1075H12.0225C11 38.1075 10.1725 37.2775 10.1725 36.2575V23.425C10.1725 22.4025 11 21.575 12.0225 21.575H13.0125C14.035 21.575 14.8625 22.4025 14.8625 23.425V36.255C14.8625 37.2775 14.035 38.1075 13.0125 38.1075V38.1075ZM39.71 38.1075H38.72C37.6975 38.1075 36.87 37.2775 36.87 36.2575V23.425C36.87 22.4025 37.6975 21.575 38.72 21.575H39.71C40.7325 21.575 41.56 22.4025 41.56 23.425V36.255C41.56 37.2775 40.7325 38.1075 39.71 38.1075V38.1075Z" fill="#BC9BE0"/>
<path d="M8.67253 35.9675H6.96503C6.58503 35.9675 6.28003 35.66 6.28003 35.2825V24.4C6.28003 24.02 6.58753 23.715 6.96503 23.715H8.67253V35.9675V35.9675Z" fill="#F487A4"/>
<path d="M6.27751 33.7975H5.59251C4.65001 33.7975 3.88501 33.0325 3.88501 32.09V27.59C3.88501 26.6475 4.65001 25.8825 5.59251 25.8825H6.27751V33.7975Z" fill="#84DDFD"/>
<path d="M41.5125 35.9675H43.22C43.6 35.9675 43.905 35.66 43.905 35.2825V24.4C43.905 24.02 43.5975 23.715 43.22 23.715H41.5125V35.9675V35.9675Z" fill="#F487A4"/>
<path d="M43.905 33.7975H44.59C45.5325 33.7975 46.2975 33.0325 46.2975 32.09V27.59C46.2975 26.6475 45.5325 25.8825 44.59 25.8825H43.905V33.7975Z" fill="#84DDFD"/>
<path d="M12.815 11.7675L14.61 13.2125C14.755 13.3425 14.985 13.335 15.12 13.1975C16.04 12.2475 19.8975 9.44001 25.66 9.44001C31.405 9.44001 35.17 12.9225 36.0775 13.8825C36.2125 14.025 36.445 14.0325 36.5925 13.9L38.9375 11.765C39.075 11.64 39.0825 11.4375 38.9575 11.3025C37.965 10.23 33.5775 6.01001 25.95 6.01001C18.3275 6.01001 13.8225 10.225 12.7975 11.3025C12.6675 11.435 12.675 11.6425 12.815 11.7675V11.7675Z" fill="#F487A4"/>
<path d="M44.655 25.1375V24.4C44.655 24.2075 44.615 24.0225 44.545 23.8525C44.6375 21.7975 44.45 15.8175 39.7875 11.175C39.7875 10.91 39.7 10.645 39.5125 10.43C38.2275 8.95251 33.3875 4.13251 24.9975 4.13251C16.62 4.13251 11.655 8.94251 10.3325 10.4175C10.2071 10.5576 10.1185 10.7267 10.0749 10.9096C10.0312 11.0925 10.0338 11.2834 10.0825 11.465C5.93251 15.695 5.49001 20.925 5.63501 23.85C5.56501 24.0175 5.52751 24.2025 5.52751 24.3975V25.135C4.20251 25.17 3.13501 26.255 3.13501 27.59V32.09C3.13501 33.4225 4.20251 34.51 5.52751 34.545V35.2825C5.52751 36.075 6.17251 36.7175 6.96501 36.7175H7.96501C8.18501 37.9325 9.24751 38.855 10.5225 38.855H13.0125C14.4475 38.855 15.6125 37.6875 15.6125 36.255V23.425C15.6125 21.99 14.445 20.825 13.0125 20.825H10.5225C10.2675 20.825 10.0225 20.8625 9.79001 20.9325C10.195 17.95 11.63 15.6525 12.76 14.2525L12.9525 14.435C13.1625 14.635 13.4475 14.7475 13.7375 14.7475H13.7775C14.085 14.7375 14.3675 14.605 14.5725 14.38C15.54 13.3175 19.1525 9.84501 25 9.84501C30.83 9.84501 34.36 13.3025 35.3025 14.3625C35.505 14.5925 35.7975 14.73 36.105 14.74C36.415 14.755 36.715 14.635 36.9375 14.42L37.2075 14.1575C38.4075 15.6225 39.94 17.995 40.38 20.925C40.1525 20.86 39.9125 20.8225 39.6625 20.8225H37.1725C35.7375 20.8225 34.5725 21.99 34.5725 23.4225V36.2525C34.5725 37.6875 35.74 38.8525 37.1725 38.8525H37.5225V40.4C37.5225 40.83 37.1725 41.1825 36.74 41.1825H15.03C13.39 41.1825 12.055 42.5175 12.055 44.1575C12.055 45.7975 13.39 47.1325 15.03 47.1325H25.25C25.665 47.1325 26 46.7975 26 46.3825C26 45.9675 25.665 45.6325 25.25 45.6325H15.03C14.215 45.6325 13.555 44.97 13.555 44.1575C13.555 43.345 14.2175 42.6825 15.03 42.6825H36.74C37.9975 42.6825 39.0225 41.66 39.0225 40.4V38.8525H39.66C40.935 38.8525 41.9975 37.9275 42.2175 36.715H43.2175C44.01 36.715 44.6525 36.07 44.6525 35.28V34.5425C45.9775 34.5075 47.045 33.4225 47.045 32.0875V27.5875C47.05 26.2575 45.9825 25.17 44.655 25.1375V25.1375ZM4.63501 32.09V27.59C4.63501 27.0825 5.03001 26.6675 5.52751 26.635V33.045C5.28538 33.0287 5.05851 32.9209 4.89282 32.7436C4.72712 32.5663 4.63496 32.3327 4.63501 32.09V32.09ZM7.02751 33.7975V24.4625H7.92001V35.2175H7.02751V33.7975ZM13.0125 22.325C13.62 22.325 14.1125 22.82 14.1125 23.425V36.255C14.1125 36.8625 13.6175 37.355 13.0125 37.355H10.5225C9.91501 37.355 9.42251 36.86 9.42251 36.255V23.425C9.42251 23.3575 9.43001 23.2925 9.44251 23.23C9.44501 23.2125 9.45001 23.195 9.45251 23.18C9.46501 23.1275 9.48001 23.075 9.50001 23.025C9.50751 23.005 9.51751 22.9825 9.52751 22.9625C9.70251 22.5875 10.0825 22.3275 10.5225 22.3275H13.0125V22.325ZM8.18501 22.2925C8.18001 22.3 8.18001 22.3075 8.17501 22.3175C8.13001 22.415 8.08751 22.515 8.05251 22.6175C8.05251 22.62 8.05001 22.6225 8.05001 22.625C8.01501 22.73 7.98751 22.84 7.96751 22.95C7.96751 22.955 7.96501 22.96 7.96251 22.965H7.11251C7.10751 20.2425 7.74501 16.0675 11.05 12.625L11.67 13.215C10.2225 14.98 8.26501 18.1275 8.18501 22.2925V22.2925ZM25 8.34501C18.9775 8.34501 15.09 11.6875 13.7225 13.095L11.6925 11.16C13.2 9.57251 17.685 5.63501 25 5.63501C32.3175 5.63501 36.69 9.57251 38.1525 11.1575L36.1625 13.085C34.8175 11.6725 31.005 8.34501 25 8.34501V8.34501ZM38.9575 12.465C42.4825 16.1375 43.035 20.6675 43.0625 22.965H42.22C42.22 22.96 42.2175 22.955 42.215 22.95C42.195 22.84 42.1675 22.73 42.1325 22.625C42.1325 22.6225 42.13 22.62 42.13 22.6175C42.095 22.515 42.055 22.415 42.0075 22.3175C42.005 22.31 42.0025 22.3025 41.9975 22.295C41.91 18.2225 39.8175 14.965 38.285 13.1175L38.9575 12.465V12.465ZM40.7625 36.255C40.7625 36.8625 40.2675 37.355 39.6625 37.355H37.1725C36.565 37.355 36.0725 36.86 36.0725 36.255V23.425C36.0725 22.8175 36.5675 22.325 37.1725 22.325H39.6625C40.1025 22.325 40.48 22.5875 40.6575 22.9625C40.6675 22.9825 40.6775 23.0025 40.685 23.025C40.705 23.075 40.7225 23.1275 40.7325 23.1825C40.7375 23.2 40.74 23.215 40.7425 23.2325C40.755 23.2975 40.7625 23.3625 40.7625 23.4275V36.255ZM43.155 35.2175H42.2625V24.4625H43.155V35.2175V35.2175ZM45.55 32.09C45.55 32.5975 45.155 33.0125 44.6575 33.045V26.635C45.155 26.6675 45.55 27.0825 45.55 27.59V32.09Z" fill="#333333"/>
</g>
<defs>
<clipPath id="clip0_8_343">
<rect width="50" height="50" fill="white"/>
</clipPath>
</defs>
</svg>
