<svg width="50" height="50" viewBox="0 0 50 50" fill="none" xmlns="http://www.w3.org/2000/svg">
<g clip-path="url(#clip0_8_401)">
<path d="M43.05 13.1H8.29502C7.93963 13.1 7.59879 13.2412 7.34749 13.4925C7.0962 13.7438 6.95502 14.0846 6.95502 14.44V42.77C6.95502 44.15 8.07502 45.27 9.45502 45.27H43.05C44.43 45.27 45.55 44.15 45.55 42.77V15.6C45.55 14.22 44.43 13.1 43.05 13.1ZM7.60752 25.79C7.60752 25.2569 7.81928 24.7457 8.19623 24.3687C8.57318 23.9918 9.08443 23.78 9.61752 23.78C10.1506 23.78 10.6619 23.9918 11.0388 24.3687C11.4157 24.7457 11.6275 25.2569 11.6275 25.79C11.6275 26.3231 11.4157 26.8343 11.0388 27.2113C10.6619 27.5882 10.1506 27.8 9.61752 27.8C9.08443 27.8 8.57318 27.5882 8.19623 27.2113C7.81928 26.8343 7.60752 26.3231 7.60752 25.79ZM40.6025 39.1325C40.6025 40.5125 39.4825 41.6325 38.1025 41.6325H11.955C10.575 41.6325 9.45502 40.5125 9.45502 39.1325V30.7175H22.2625V25.2825C22.2625 23.995 23.305 22.9525 24.5925 22.9525H25.72C27.0075 22.9525 28.05 23.995 28.05 25.2825V30.7175H40.6025V39.1325V39.1325Z" fill="#F487A4"/>
<path d="M27.9275 30.7175V36.6425C27.9275 37.93 27.4575 38.9725 26.26 38.9725H24.21C23.0125 38.9725 22.5425 37.93 22.5425 36.6425V30.7175H11.63V39.1325C11.63 40.5125 12.67 41.6325 13.955 41.6325H38.2775C39.5625 41.6325 40.6025 40.5125 40.6025 39.1325V30.7175H27.9275V30.7175Z" fill="#84DDFD"/>
<path d="M29.595 6.04001H22.03C20.0225 6.04001 18.395 7.51251 18.395 9.33001V11.1875H19.695V9.86501C19.695 8.86251 20.595 7.29751 21.7025 7.29751H28.67C29.78 7.29751 30.6775 8.86001 30.6775 9.86501V11.1875H33.2275V9.33001C33.23 7.51251 31.6025 6.04001 29.595 6.04001V6.04001Z" fill="#BC9BE0"/>
<path d="M8.82501 26.235C8.82501 26.607 8.97278 26.9637 9.2358 27.2267C9.49882 27.4898 9.85555 27.6375 10.2275 27.6375C10.5995 27.6375 10.9562 27.4898 11.2192 27.2267C11.4822 26.9637 11.63 26.607 11.63 26.235C11.63 25.8631 11.4822 25.5063 11.2192 25.2433C10.9562 24.9803 10.5995 24.8325 10.2275 24.8325C9.85555 24.8325 9.49882 24.9803 9.2358 25.2433C8.97278 25.5063 8.82501 25.8631 8.82501 26.235V26.235Z" fill="#84DDFD"/>
<path d="M9.61999 28.55C8.09749 28.55 6.85999 27.3125 6.85999 25.79C6.85999 24.2675 8.09749 23.03 9.61999 23.03C11.1425 23.03 12.38 24.2675 12.38 25.79C12.38 27.3125 11.14 28.55 9.61999 28.55ZM9.61999 24.53C8.92499 24.53 8.35999 25.095 8.35999 25.79C8.35999 26.485 8.92499 27.05 9.61999 27.05C10.315 27.05 10.88 26.485 10.88 25.79C10.88 25.095 10.315 24.53 9.61999 24.53Z" fill="#333333"/>
<path d="M26.1125 38.9725H25.885C25.3718 38.9725 24.8796 38.7686 24.5168 38.4057C24.1539 38.0428 23.95 37.5507 23.95 37.0375V25.2825C23.95 24.7693 24.1539 24.2771 24.5168 23.9142C24.8796 23.5513 25.3718 23.3475 25.885 23.3475H26.1125C26.6257 23.3475 27.1179 23.5513 27.4808 23.9142C27.8436 24.2771 28.0475 24.7693 28.0475 25.2825V37.0375C28.05 38.1075 27.1825 38.9725 26.1125 38.9725Z" fill="#FDCFA5"/>
<path d="M43.05 10.435H33.98V8.94999C33.98 6.35499 31.8675 4.24249 29.2725 4.24249H21.04C18.445 4.24249 16.3325 6.35499 16.3325 8.94999V10.435H7.00751C5.21501 10.435 3.75751 11.8925 3.75751 13.685V42.77C3.75751 44.5625 5.21501 46.02 7.00751 46.02H43.05C44.8425 46.02 46.3 44.5625 46.3 42.77V13.685C46.3 11.895 44.8425 10.435 43.05 10.435ZM17.8325 8.95249C17.8325 7.18499 19.2725 5.74499 21.04 5.74499H29.275C31.0425 5.74499 32.4825 7.18499 32.4825 8.95249V10.4375H31.205V9.59749C31.205 7.97749 29.8875 6.66249 28.2675 6.66249H22.045C20.425 6.66249 19.11 7.97999 19.11 9.59749V10.4375H17.8325V8.95249V8.95249ZM29.705 10.435H20.6075V9.59499C20.6075 8.80249 21.2525 8.15999 22.0425 8.15999H28.265C29.0575 8.15999 29.7025 8.80499 29.7025 9.59499V10.435H29.705ZM5.25751 13.685C5.25751 12.72 6.04251 11.935 7.00751 11.935H43.0525C44.0175 11.935 44.8025 12.72 44.8025 13.685V28.2175C44.8025 29.1825 44.0175 29.9675 43.0525 29.9675H28.8V25.2825C28.8 23.585 27.4175 22.2025 25.72 22.2025H24.5925C22.895 22.2025 21.5125 23.585 21.5125 25.2825V29.9675H7.00751C6.04251 29.9675 5.25751 29.1825 5.25751 28.2175V13.685V13.685ZM10.205 31.4675H21.5125V36.6425C21.5125 38.1275 22.57 39.3725 23.9725 39.66C24.1725 39.7 24.38 39.7225 24.5925 39.7225H25.72C25.9325 39.7225 26.14 39.7 26.34 39.66C27.7425 39.3725 28.8 38.13 28.8 36.6425V31.4675H39.8525V39.1325C39.8525 40.0975 39.0675 40.8825 38.1025 40.8825H11.955C10.99 40.8825 10.205 40.0975 10.205 39.1325V31.4675V31.4675ZM23.0125 29.9675V25.2825C23.0125 24.4125 23.72 23.7025 24.5925 23.7025H25.72C26.59 23.7025 27.3 24.41 27.3 25.2825V31.755H23.0125V29.9675V29.9675ZM27.3 36.6425C27.3 37.5125 26.5925 38.2225 25.72 38.2225H24.5925C23.7225 38.2225 23.0125 37.515 23.0125 36.6425V36.1425H27.3V36.6425ZM27.3 34.6425H23.0125V33.255H27.3V34.6425ZM43.05 44.52H7.00751C6.04251 44.52 5.25751 43.735 5.25751 42.77V30.95C5.77906 31.2866 6.38675 31.4655 7.00751 31.465H8.70501V39.13C8.70501 40.9225 10.1625 42.38 11.955 42.38H38.1025C39.895 42.38 41.3525 40.9225 41.3525 39.13V31.465H43.05C43.695 31.465 44.295 31.275 44.8 30.95V42.77C44.8 43.735 44.015 44.52 43.05 44.52V44.52Z" fill="#333333"/>
</g>
<defs>
<clipPath id="clip0_8_401">
<rect width="50" height="50" fill="white"/>
</clipPath>
</defs>
</svg>
