<svg width="50" height="50" viewBox="0 0 50 50" fill="none" xmlns="http://www.w3.org/2000/svg">
<g clip-path="url(#clip0_8_300)">
<path d="M9.33249 38.57H9.00499C8.16999 38.57 7.495 37.8925 7.495 37.06V16.0175C7.495 15.1825 8.17249 14.5075 9.00499 14.5075H9.33249C10.1675 14.5075 10.8425 15.185 10.8425 16.0175V37.06C10.8425 37.895 10.1675 38.57 9.33249 38.57V38.57Z" fill="#FFB47A"/>
<path d="M14.97 42.3025C13.755 42.3025 12.7675 41.3175 12.7675 40.1V11.825C12.7675 10.61 13.7525 9.6225 14.97 9.6225C16.185 9.6225 17.1725 10.6075 17.1725 11.825V40.1C17.1725 41.3175 16.185 42.3025 14.97 42.3025V42.3025Z" fill="#F46EAB"/>
<path d="M43 38.57H43.3275C44.1625 38.57 44.8375 37.8925 44.8375 37.06V16.0175C44.8375 15.1825 44.16 14.5075 43.3275 14.5075H43C42.165 14.5075 41.49 15.185 41.49 16.0175V37.06C41.49 37.895 42.165 38.57 43 38.57V38.57Z" fill="#FFB47A"/>
<path d="M37.3625 42.3025C38.5775 42.3025 39.565 41.3175 39.565 40.1V11.825C39.565 10.61 38.58 9.6225 37.3625 9.6225C36.1475 9.6225 35.16 10.6075 35.16 11.825V40.1C35.16 41.3175 36.145 42.3025 37.3625 42.3025V42.3025Z" fill="#F46EAB"/>
<path d="M18.7675 25H33.16V28.2025H18.7675V25Z" fill="#63CCFC"/>
<path d="M46.1225 22.8575H45.2725V15.8725C45.2725 14.0725 43.8075 12.605 42.005 12.605C41.355 12.605 40.7475 12.7975 40.2375 13.1275V12.7875C40.2375 10.63 38.4825 8.8725 36.3225 8.8725C34.1625 8.8725 32.4075 10.6275 32.4075 12.7875V22.8575H17.9225V12.7875C17.9225 10.63 16.1675 8.8725 14.0075 8.8725C11.8475 8.8725 10.0925 10.6275 10.0925 12.7875V13.1275C9.56637 12.7858 8.95234 12.6043 8.32501 12.605C6.52501 12.605 5.0575 14.07 5.0575 15.8725V22.8575H4.265C3.33 22.8575 2.5675 23.6175 2.5675 24.555V27.2575C2.5675 28.1925 3.3275 28.955 4.265 28.955H5.0575V36.0575C5.0575 37.8575 6.52251 39.325 8.32501 39.325C8.97501 39.325 9.5825 39.1325 10.0925 38.8025V39.145C10.0925 41.3025 11.8475 43.06 14.0075 43.06C16.1675 43.06 17.9225 41.305 17.9225 39.145V28.9575H32.41V39.145C32.41 41.3025 34.165 43.06 36.325 43.06C38.485 43.06 40.24 41.305 40.24 39.145V38.8025C40.75 39.1325 41.355 39.325 42.0075 39.325C43.8075 39.325 45.275 37.86 45.275 36.0575V28.955H46.125C47.06 28.955 47.8225 28.195 47.8225 27.2575V24.5525C47.8175 23.6175 47.0575 22.8575 46.1225 22.8575V22.8575ZM4.2675 27.4525C4.16 27.4525 4.07 27.365 4.07 27.255V24.5525C4.07 24.445 4.1575 24.355 4.2675 24.355H5.06V27.45H4.2675V27.4525ZM8.3275 37.82C7.3525 37.82 6.56001 37.0275 6.56001 36.0525V15.8725C6.56001 14.8975 7.3525 14.105 8.3275 14.105C9.3025 14.105 10.095 14.8975 10.095 15.8725V36.055C10.0925 37.0275 9.3 37.82 8.3275 37.82ZM16.4225 39.1375C16.4225 40.47 15.34 41.5525 14.0075 41.5525C12.675 41.5525 11.5925 40.47 11.5925 39.1375V12.7875C11.5925 11.455 12.675 10.3725 14.0075 10.3725C15.34 10.3725 16.4225 11.455 16.4225 12.7875V39.1375ZM17.9225 27.4525V24.3575H32.41V27.4525H17.9225V27.4525ZM38.74 39.1375C38.74 40.47 37.6575 41.5525 36.325 41.5525C34.9925 41.5525 33.91 40.47 33.91 39.1375V12.7875C33.91 11.455 34.9925 10.3725 36.325 10.3725C37.6575 10.3725 38.74 11.455 38.74 12.7875V39.1375ZM43.7725 36.055C43.7725 37.03 42.98 37.8225 42.005 37.8225C41.03 37.8225 40.2375 37.03 40.2375 36.055V15.8725C40.2375 14.8975 41.03 14.105 42.005 14.105C42.98 14.105 43.7725 14.8975 43.7725 15.8725V36.055ZM46.3175 27.255C46.3175 27.3625 46.23 27.4525 46.12 27.4525H45.3275V24.3575H46.12C46.2275 24.3575 46.3175 24.445 46.3175 24.555V27.255V27.255Z" fill="#333333"/>
</g>
<defs>
<clipPath id="clip0_8_300">
<rect width="50" height="50" fill="white"/>
</clipPath>
</defs>
</svg>
