<svg width="50" height="50" viewBox="0 0 50 50" fill="none" xmlns="http://www.w3.org/2000/svg">
<g clip-path="url(#clip0_40_733)">
<path d="M40.0625 19.575C40.0625 17.9825 41.1825 16.23 40.725 14.7925C40.25 13.3025 38.315 12.5575 37.43 11.32C36.535 10.0675 36.43 7.96751 35.2025 7.05751C33.985 6.15501 31.995 6.69751 30.5325 6.21501C29.1225 5.74751 27.8325 4.10251 26.2675 4.10251C24.7025 4.10251 23.415 5.74751 22.0025 6.21501C20.54 6.69751 18.55 6.15501 17.3325 7.05751C16.1025 7.96751 16 10.0675 15.105 11.32C14.22 12.56 12.285 13.305 11.81 14.7925C11.3525 16.23 12.4725 17.9825 12.4725 19.575C12.4725 21.1675 11.3525 22.92 11.81 24.3575C12.285 25.8475 14.22 26.5925 15.105 27.83C16 29.0825 16.105 31.1825 17.3325 32.0925C18.55 32.995 20.54 32.4525 22.0025 32.935C23.4125 33.4025 24.7025 35.0475 26.2675 35.0475C27.8325 35.0475 29.12 33.4025 30.5325 32.935C31.995 32.4525 33.985 32.995 35.2025 32.0925C36.4325 31.1825 36.535 29.0825 37.43 27.83C38.315 26.59 40.25 25.845 40.725 24.3575C41.185 22.92 40.0625 21.1675 40.0625 19.575ZM26.2675 29.495C19.9875 29.7025 15.265 24.76 15.265 19.28C15.265 13.8025 19.2625 8.89751 26.2675 8.89751C31.6475 8.89751 36.01 14.095 36.01 19.575C36.01 25.0525 31.645 29.315 26.2675 29.495Z" fill="#FF927C"/>
<path d="M26.2651 10.705C21.0201 10.705 16.7676 14.9575 16.7676 20.2025C16.7676 25.4475 21.0201 29.7 26.2651 29.7C31.5101 29.7 35.7626 25.4475 35.7626 20.2025C35.7626 14.9575 31.5101 10.705 26.2651 10.705ZM29.9251 18.1425L28.0751 19.97C27.9851 20.06 27.9426 20.19 27.9651 20.315L28.4201 22.875C28.4776 23.1925 28.1451 23.4375 27.8576 23.2875L25.5476 22.0925C25.4351 22.0325 25.2976 22.035 25.1851 22.095L22.8901 23.32C22.6051 23.4725 22.2701 23.2325 22.3226 22.9125L22.7451 20.3475C22.7651 20.22 22.7226 20.0925 22.6301 20.005L20.7576 18.2025C20.5251 17.98 20.6501 17.585 20.9701 17.5375L23.5426 17.1475C23.6701 17.1275 23.7776 17.0475 23.8351 16.9325L24.9726 14.5925C25.1126 14.3025 25.5251 14.3 25.6701 14.5875L26.8351 16.9125C26.8926 17.0275 27.0026 17.105 27.1301 17.1225L29.7051 17.48C30.0226 17.525 30.1526 17.915 29.9251 18.1425Z" fill="#EDC951"/>
<path d="M25.34 30.4525C19.18 30.4525 14.1675 25.44 14.1675 19.28C14.1675 13.12 19.18 8.10751 25.34 8.10751C31.5 8.10751 36.5125 13.12 36.5125 19.28C36.5125 25.44 31.5 30.4525 25.34 30.4525ZM25.34 9.60751C20.0075 9.60751 15.6675 13.9475 15.6675 19.28C15.6675 24.6125 20.0075 28.9525 25.34 28.9525C30.6725 28.9525 35.0125 24.6125 35.0125 19.28C35.0125 13.9475 30.675 9.60751 25.34 9.60751Z" fill="#333333"/>
<path d="M25.3401 36.2875C24.1176 36.2875 23.0801 35.58 22.1651 34.955C21.5976 34.5675 21.0601 34.2 20.5476 34.0325C19.9976 33.855 19.3251 33.8325 18.6126 33.8075C17.4701 33.77 16.2901 33.73 15.3426 33.04C14.3851 32.3425 13.9826 31.2275 13.5926 30.1475C13.3526 29.4825 13.1251 28.8525 12.7926 28.395C12.4676 27.9475 11.9426 27.5425 11.3901 27.115C10.5176 26.4425 9.53012 25.6775 9.16012 24.535C8.80512 23.44 9.12762 22.315 9.44262 21.2275C9.64262 20.5325 9.83262 19.875 9.83262 19.2775C9.83262 18.68 9.64262 18.025 9.44262 17.3275C9.13012 16.24 8.80512 15.115 9.16012 14.02C9.53012 12.8775 10.5176 12.115 11.3901 11.44C11.9426 11.0125 12.4651 10.6075 12.7926 10.16C13.1251 9.70249 13.3526 9.07499 13.5926 8.40749C13.9826 7.32749 14.3851 6.20999 15.3426 5.51499C16.2901 4.82499 17.4726 4.78499 18.6126 4.74749C19.3251 4.72249 19.9976 4.69999 20.5476 4.52249C21.0601 4.35499 21.5976 3.98999 22.1651 3.59999C23.0801 2.97499 24.1176 2.26749 25.3401 2.26749C26.5626 2.26749 27.6001 2.97499 28.5151 3.59999C29.0826 3.98749 29.6201 4.35499 30.1326 4.52249C30.6826 4.69999 31.3551 4.72249 32.0676 4.74749C33.2101 4.78499 34.3901 4.82499 35.3376 5.51499C36.2951 6.21249 36.6976 7.32749 37.0876 8.40749C37.3276 9.07249 37.5551 9.69999 37.8876 10.1575C38.2151 10.605 38.7376 11.01 39.2901 11.4375C40.1626 12.11 41.1501 12.875 41.5201 14.0175C41.8751 15.1125 41.5526 16.2375 41.2376 17.325C41.0376 18.02 40.8476 18.6775 40.8476 19.275C40.8476 19.8725 41.0376 20.5275 41.2376 21.2225C41.5501 22.31 41.8751 23.435 41.5201 24.53C41.1501 25.6725 40.1626 26.435 39.2901 27.11C38.7376 27.5375 38.2151 27.9425 37.8876 28.39C37.5551 28.8475 37.3276 29.475 37.0876 30.1425C36.6976 31.2225 36.2951 32.3375 35.3376 33.035C34.3901 33.725 33.2076 33.765 32.0651 33.8025C31.3526 33.8275 30.6801 33.85 30.1301 34.0275C29.6176 34.195 29.0801 34.56 28.5126 34.95C27.6001 35.58 26.5626 36.2875 25.3401 36.2875ZM25.3401 3.76999C24.5801 3.76999 23.8176 4.28999 23.0101 4.84249C22.3801 5.27249 21.7276 5.71999 21.0101 5.95249C20.2601 6.19499 19.4476 6.22249 18.6626 6.24999C17.7051 6.28249 16.8001 6.31249 16.2251 6.73249C15.6401 7.15749 15.3301 8.01499 15.0051 8.92249C14.7401 9.65749 14.4651 10.4175 14.0076 11.0475C13.5551 11.67 12.9226 12.1575 12.3101 12.6325C11.5426 13.225 10.8176 13.7875 10.5901 14.4875C10.3776 15.145 10.6251 16.005 10.8876 16.9175C11.1076 17.6825 11.3351 18.475 11.3351 19.2825C11.3351 20.09 11.1076 20.8825 10.8876 21.6475C10.6251 22.5575 10.3776 23.4175 10.5901 24.0775C10.8176 24.78 11.5426 25.34 12.3101 25.9325C12.9226 26.405 13.5551 26.895 14.0076 27.5175C14.4676 28.1475 14.7401 28.9075 15.0051 29.6425C15.3326 30.55 15.6401 31.405 16.2251 31.83C16.8001 32.25 17.7051 32.28 18.6626 32.3125C19.4476 32.34 20.2601 32.365 21.0101 32.61C21.7276 32.8425 22.3801 33.2875 23.0101 33.72C23.8176 34.2725 24.5801 34.7925 25.3401 34.7925C26.1001 34.7925 26.8626 34.2725 27.6701 33.72C28.3001 33.29 28.9526 32.8425 29.6701 32.61C30.4201 32.3675 31.2326 32.34 32.0176 32.3125C32.9751 32.28 33.8801 32.25 34.4576 31.83C35.0426 31.405 35.3501 30.5475 35.6776 29.6425C35.9426 28.9075 36.2176 28.1475 36.6751 27.5175C37.1276 26.895 37.7601 26.4075 38.3726 25.9325C39.1401 25.34 39.8651 24.7775 40.0926 24.0775C40.3076 23.42 40.0576 22.5575 39.7951 21.6475C39.5751 20.8825 39.3476 20.09 39.3476 19.2825C39.3476 18.475 39.5751 17.685 39.7951 16.9175C40.0576 16.0075 40.3051 15.145 40.0926 14.4875C39.8651 13.785 39.1401 13.225 38.3726 12.6325C37.7601 12.16 37.1276 11.67 36.6751 11.0475C36.2176 10.4175 35.9426 9.65749 35.6776 8.92249C35.3501 8.01499 35.0426 7.15999 34.4576 6.73249C33.8826 6.31249 32.9776 6.28249 32.0201 6.24999C31.2351 6.22249 30.4226 6.19749 29.6726 5.95249C28.9551 5.71999 28.3026 5.27499 27.6726 4.84249C26.8626 4.29249 26.1001 3.76999 25.3401 3.76999Z" fill="#333333"/>
<path d="M15.8751 35.7875C15.8751 35.7875 18.2951 39.8125 23.7526 38.1225C22.3801 42.145 20.7526 47.41 20.7526 47.41L17.5926 41.92L13.0476 42.945L15.8751 35.7875ZM36.2451 34.9125C36.2451 34.9125 33.6226 37.9375 29.3826 38.425C30.7551 42.4475 31.5226 44.9725 31.5226 44.9725L33.5001 41.5375L40.1826 43.775L36.2451 34.9125Z" fill="#FF927C"/>
<path d="M20.5999 47.7125C20.3349 47.7125 20.0849 47.57 19.9499 47.3375L17.0974 42.38L11.1049 44.3875C10.8274 44.48 10.5224 44.405 10.3224 44.1925C10.1224 43.98 10.0624 43.6725 10.1699 43.4L13.6799 34.5125C13.7774 34.265 13.9974 34.0875 14.2599 34.0475C14.5199 34.005 14.7849 34.1075 14.9549 34.31C15.0974 34.48 18.4824 38.475 23.3774 36.9575C23.6474 36.875 23.9399 36.9475 24.1374 37.15C24.3349 37.3525 24.3999 37.6475 24.3099 37.915C22.9574 41.88 21.3324 47.13 21.3174 47.1825C21.274 47.3218 21.1912 47.4456 21.0789 47.5387C20.9667 47.6319 20.8298 47.6906 20.6849 47.7075C20.6549 47.71 20.6274 47.7125 20.5999 47.7125ZM17.4399 40.7225C17.5716 40.7224 17.701 40.757 17.8152 40.8229C17.9293 40.8887 18.024 40.9834 18.0899 41.0975L20.3949 45.1025C20.8949 43.515 21.6874 41.0175 22.4599 38.705C18.7724 39.2675 15.9799 37.33 14.6499 36.1325L12.1549 42.4525L17.2024 40.7625C17.2799 40.735 17.3599 40.7225 17.4399 40.7225ZM30.1324 47.7125C30.1049 47.7125 30.0774 47.71 30.0499 47.7075C29.9047 47.6914 29.7674 47.6331 29.655 47.5398C29.5426 47.4465 29.46 47.3223 29.4174 47.1825C29.3999 47.13 27.7774 41.88 26.4249 37.915C26.3324 37.6475 26.3999 37.3525 26.5974 37.15C26.7949 36.9475 27.0874 36.8725 27.3574 36.9575C32.2549 38.475 35.6399 34.48 35.7799 34.31C35.8629 34.2095 35.9707 34.1323 36.0926 34.0862C36.2146 34.04 36.3465 34.0265 36.4752 34.047C36.604 34.0674 36.7252 34.1211 36.8269 34.2028C36.9285 34.2844 37.0071 34.3912 37.0549 34.5125L40.5649 43.4C40.6173 43.533 40.6309 43.6781 40.6039 43.8184C40.5768 43.9588 40.5104 44.0885 40.4124 44.1925C40.2124 44.405 39.9074 44.48 39.6299 44.3875L33.6374 42.38L30.7849 47.3375C30.6474 47.57 30.3974 47.7125 30.1324 47.7125ZM28.2724 38.7075C29.0449 41.02 29.8374 43.5175 30.3374 45.105L32.6424 41.1C32.7287 40.95 32.8642 40.8344 33.0259 40.7729C33.1877 40.7114 33.3657 40.7077 33.5299 40.7625L38.5774 42.4525L36.0824 36.1325C34.7499 37.33 31.9574 39.2675 28.2724 38.7075Z" fill="#333333"/>
<path d="M25.455 17.0725L26.0025 18.165C26.03 18.22 26.08 18.255 26.14 18.265L27.35 18.4325C27.5 18.4525 27.56 18.6375 27.4525 18.745L26.5825 19.605C26.54 19.6475 26.52 19.7075 26.53 19.7675L26.745 20.9725C26.7725 21.1225 26.615 21.2375 26.48 21.1675L25.395 20.605C25.3687 20.5915 25.3395 20.5844 25.31 20.5844C25.2804 20.5844 25.2513 20.5915 25.225 20.605L24.145 21.18C24.0125 21.2525 23.8525 21.1375 23.8775 20.99L24.0775 19.7825C24.0823 19.7532 24.0801 19.7231 24.071 19.6949C24.0618 19.6666 24.0461 19.6409 24.025 19.62L23.145 18.7725C23.1203 18.7489 23.1027 18.7187 23.0942 18.6856C23.0858 18.6524 23.0869 18.6176 23.0973 18.585C23.1077 18.5524 23.1271 18.5234 23.1532 18.5013C23.1793 18.4792 23.2111 18.4649 23.245 18.46L24.455 18.2775C24.4841 18.2727 24.5117 18.2611 24.5355 18.2437C24.5594 18.2264 24.5789 18.2037 24.5925 18.1775L25.1275 17.0775C25.1416 17.0462 25.1644 17.0196 25.1931 17.0007C25.2218 16.9819 25.2553 16.9716 25.2896 16.9711C25.324 16.9706 25.3578 16.9798 25.387 16.9978C25.4163 17.0157 25.4399 17.0417 25.455 17.0725Z" fill="#FF927C"/>
<path d="M22.7075 24.115C22.475 24.115 22.2425 24.0425 22.045 23.9C21.872 23.7767 21.7371 23.6072 21.6558 23.411C21.5744 23.2147 21.5499 22.9995 21.585 22.79L21.9775 20.4125L20.24 18.74C19.925 18.4375 19.8125 17.99 19.945 17.575C20.0775 17.16 20.4275 16.86 20.86 16.795L23.2425 16.4325L24.295 14.265C24.3874 14.0734 24.5318 13.9115 24.7117 13.798C24.8916 13.6844 25.0997 13.6236 25.3125 13.6225H25.32C25.755 13.6225 26.1425 13.8625 26.3375 14.25L27.4175 16.405L29.805 16.7375C30.2375 16.7975 30.59 17.0925 30.73 17.505C30.8675 17.92 30.76 18.3675 30.45 18.675L28.7325 20.37L29.155 22.7425C29.2325 23.1725 29.06 23.6 28.7075 23.86C28.5364 23.9866 28.333 24.0624 28.1208 24.0788C27.9086 24.0952 27.696 24.0514 27.5075 23.9525L25.3675 22.845L23.24 23.98C23.075 24.0725 22.89 24.115 22.7075 24.115ZM21.8075 18.1675L23.155 19.465C23.2879 19.5929 23.3879 19.7512 23.4462 19.9263C23.5046 20.1013 23.5196 20.2879 23.49 20.47L23.185 22.315L24.835 21.435C25.165 21.2575 25.5625 21.255 25.895 21.4275L27.555 22.2875L27.2275 20.4475C27.1625 20.0775 27.2825 19.7 27.5475 19.4375L28.8775 18.125L27.025 17.8675C26.8424 17.8418 26.6688 17.7722 26.519 17.6646C26.3692 17.5571 26.2477 17.4148 26.165 17.25L25.3275 15.5775L24.51 17.2575C24.4295 17.4235 24.3099 17.5673 24.1613 17.6767C24.0128 17.786 23.8399 17.8575 23.6575 17.885L21.8075 18.1675Z" fill="#333333"/>
</g>
<defs>
<clipPath id="clip0_40_733">
<rect width="50" height="50" fill="white"/>
</clipPath>
</defs>
</svg>
