<svg width="50" height="50" viewBox="0 0 50 50" fill="none" xmlns="http://www.w3.org/2000/svg">
<g clip-path="url(#clip0_8_389)">
<path d="M46.0325 14.32H44.2775L44.43 37.4925C44.43 38.2275 43.56 38.57 42.8975 38.2475C35.7175 34.75 28.3725 37.8925 25.895 39.0275C25.4825 39.2175 25.0125 38.9175 25.0125 38.4625V38.395C25.0125 38.86 24.5175 39.165 24.105 38.9475C17.1975 35.2825 10.4025 37.47 7.41501 38.59C6.13751 39.0675 5.08251 38.0325 5.08251 38.0325L5.07251 42.0925C5.07251 42.9675 7.24501 42.06 8.11751 41.99L24.725 40.655C24.805 40.6475 25.1925 40.6475 25.2725 40.655L45.8875 42.525C46.76 42.595 47.53 42.4225 47.53 41.5475V15.82C47.5325 14.99 46.86 14.32 46.0325 14.32V14.32Z" fill="#BC9BE0"/>
<path d="M8.02252 12.3475V35.4075C8.02252 36.0775 8.66502 36.5275 9.24752 36.2675C11.835 35.1 18.12 32.9825 24.2025 36.4025C24.565 36.605 25 36.3225 25 35.8875V12.9075C25 12.535 24.7925 12.1975 24.47 12.05C22.44 11.13 15.2 8.515 8.48252 11.5225C8.18252 11.6575 8.02252 12.005 8.02252 12.3475V12.3475ZM27.265 12.3475V35.4075C27.265 36.0775 27.91 36.5275 28.4925 36.2675C31.085 35.1 37.3825 32.9825 43.4775 36.4025C43.84 36.605 44.2775 36.3225 44.2775 35.8875V12.9075C44.2775 12.535 44.07 12.1975 43.745 12.05C41.7125 11.13 34.4575 8.515 27.7275 11.5225C27.4275 11.6575 27.265 12.005 27.265 12.3475Z" fill="#FFB47A"/>
<path d="M46.0325 12.82H45.0275V11.5C45.0275 10.7975 44.6125 10.1675 43.97 9.89249C41.485 8.82999 32.7825 5.68499 25.16 9.89749C25.0875 9.93749 25.0175 9.98499 24.9525 10.0325C24.87 9.97999 24.785 9.93249 24.695 9.89249C22.21 8.82999 13.5075 5.68499 5.88498 9.89749C5.60979 10.0491 5.38024 10.2717 5.22021 10.5421C5.06017 10.8125 4.9755 11.1208 4.97498 11.435V12.82H4.28998C3.04998 12.82 2.03998 13.83 2.03998 15.07V40.795C2.03998 41.42 2.30498 42.025 2.76498 42.45C2.99338 42.6602 3.26266 42.8211 3.55601 42.9226C3.84937 43.0241 4.16049 43.0641 4.46998 43.04L24.9425 41.3925C24.9825 41.39 25.0225 41.39 25.0625 41.3925L45.8575 43.0425C46.167 43.067 46.4782 43.0272 46.7716 42.9257C47.065 42.8241 47.3343 42.663 47.5625 42.4525C47.7901 42.2416 47.9717 41.9859 48.0961 41.7016C48.2204 41.4172 48.2847 41.1103 48.285 40.8V15.07C48.2825 13.8275 47.2725 12.82 46.0325 12.82V12.82ZM25.75 11.435C25.75 11.3425 25.8025 11.2575 25.885 11.2125C28.515 9.75999 31.3 9.26249 33.8775 9.26249C38.1875 9.26249 41.9225 10.65 43.3775 11.275C43.4675 11.3125 43.525 11.4025 43.525 11.5025V35.5025C43.525 35.6225 43.45 35.6875 43.4075 35.715C43.375 35.735 43.3175 35.7625 43.2475 35.7525C43.2214 35.7493 43.196 35.7417 43.1725 35.73C42.1359 35.2253 41.0524 34.8233 39.9375 34.53C33.875 32.9275 28.265 34.865 25.75 35.9875V11.435V11.435ZM6.47248 11.435C6.47248 11.3425 6.52498 11.2575 6.60748 11.2125C13.6325 7.32999 21.775 10.2775 24.1025 11.275C24.1925 11.3125 24.25 11.4 24.25 11.5V35.9025C24.045 35.7975 23.84 35.6975 23.635 35.6025C23.5725 35.5725 23.5075 35.545 23.445 35.5175C23.3 35.4525 23.155 35.3875 23.01 35.3275C22.94 35.2975 22.87 35.27 22.8 35.24C22.6525 35.18 22.5025 35.1225 22.355 35.0675C22.295 35.045 22.2375 35.0225 22.1775 35.0025C21.9725 34.9275 21.7675 34.8575 21.5625 34.7925C21.5425 34.785 21.5225 34.78 21.5025 34.775C21.3175 34.7175 21.1325 34.6625 20.9475 34.61C20.8825 34.5925 20.82 34.575 20.7575 34.5575C20.615 34.52 20.47 34.4825 20.3275 34.4475C20.26 34.43 20.1925 34.415 20.125 34.4C19.9725 34.365 19.8225 34.3325 19.6725 34.3025C19.62 34.2925 19.57 34.28 19.5175 34.27C19.315 34.23 19.115 34.195 18.915 34.165L18.8175 34.15C18.65 34.125 18.4825 34.1 18.315 34.08L18.1275 34.0575C17.9875 34.0425 17.8475 34.0275 17.7075 34.015C17.645 34.01 17.5825 34.0025 17.52 33.9975C17.365 33.985 17.2125 33.975 17.06 33.965L16.935 33.9575C16.74 33.9475 16.5475 33.94 16.355 33.935C16.3175 33.935 16.28 33.935 16.2425 33.9325C16.1275 33.93 16.0125 33.9275 15.8975 33.9275C15.8675 33.9275 15.84 33.93 15.81 33.93C15.64 33.93 15.475 33.935 15.3075 33.94C15.2475 33.9425 15.1875 33.9425 15.1275 33.945C14.905 33.9525 14.685 33.965 14.4675 33.98L14.28 33.995C14.1225 34.0075 13.9675 34.02 13.8125 34.035C13.73 34.0425 13.65 34.0525 13.57 34.06C13.435 34.075 13.3 34.09 13.1675 34.1075C13.085 34.1175 13.0025 34.13 12.9225 34.14C12.79 34.1575 12.6575 34.1775 12.5275 34.1975C12.4525 34.21 12.3775 34.22 12.305 34.2325C12.15 34.2575 11.995 34.285 11.845 34.315C11.8 34.3225 11.7575 34.33 11.7125 34.34C11.52 34.3775 11.33 34.4175 11.145 34.4575C11.085 34.47 11.0275 34.485 10.97 34.4975C10.8425 34.5275 10.715 34.555 10.5875 34.5875C10.5175 34.605 10.4525 34.6225 10.3825 34.6375C10.27 34.665 10.1575 34.695 10.0475 34.725C9.97998 34.7425 9.91498 34.76 9.84998 34.7775C9.73748 34.8075 9.62748 34.84 9.51998 34.8725C9.46248 34.89 9.40498 34.905 9.34998 34.9225C9.21248 34.965 9.07748 35.005 8.94498 35.0475C8.92248 35.055 8.89998 35.06 8.87998 35.0675C8.72748 35.1175 8.57998 35.165 8.43748 35.215C8.38998 35.23 8.34748 35.2475 8.29998 35.2625C8.20248 35.295 8.10748 35.33 8.01498 35.3625C7.96498 35.38 7.91498 35.4 7.86498 35.4175C7.77998 35.4475 7.69748 35.48 7.61748 35.51C7.56998 35.5275 7.52498 35.545 7.47998 35.5625C7.39748 35.595 7.31748 35.6275 7.23998 35.6575C7.20498 35.6725 7.16748 35.6875 7.13248 35.7C7.02248 35.745 6.91748 35.7875 6.81748 35.83C6.70998 35.875 6.62498 35.8375 6.58248 35.81C6.54736 35.7875 6.51858 35.7564 6.49889 35.7196C6.4792 35.6829 6.46924 35.6417 6.46998 35.6V11.435H6.47248ZM46.7825 40.7975C46.7825 41.01 46.6975 41.205 46.5425 41.3475C46.3875 41.4925 46.1825 41.56 45.975 41.545L25.1825 39.895C25.0627 39.885 24.9423 39.885 24.8225 39.895L4.34998 41.5425C4.14248 41.56 3.93748 41.49 3.78248 41.345C3.62748 41.2025 3.53998 41.005 3.53998 40.7925V15.07C3.53998 14.6575 3.87748 14.32 4.28998 14.32H4.97498V35.605C4.97429 35.8944 5.04569 36.1794 5.18275 36.4343C5.3198 36.6892 5.51818 36.906 5.75998 37.065C6.00106 37.2247 6.27805 37.322 6.56605 37.3482C6.85405 37.3744 7.14404 37.3286 7.40998 37.215C10.1 36.07 17.0725 33.7925 23.745 37.3325C23.795 37.3575 23.845 37.38 23.895 37.4C23.91 37.405 23.9275 37.41 23.9425 37.415C23.9775 37.4275 24.0125 37.44 24.05 37.4475C24.07 37.4525 24.0875 37.455 24.1075 37.46C24.14 37.4675 24.1725 37.475 24.2075 37.4775C24.2275 37.48 24.25 37.4825 24.27 37.4825C24.3025 37.485 24.3325 37.4875 24.365 37.4875H24.385C24.3975 37.4875 24.41 37.485 24.425 37.485C24.4625 37.485 24.5 37.4825 24.5375 37.4775L24.6 37.47C24.6375 37.465 24.6725 37.4575 24.71 37.4475L24.77 37.4325C24.81 37.42 24.8475 37.4075 24.885 37.3925C24.9 37.385 24.9175 37.38 24.9325 37.375C24.935 37.3725 24.94 37.3725 24.9425 37.37C24.9675 37.385 24.995 37.3975 25.0225 37.41C25.04 37.42 25.0575 37.4275 25.075 37.4375C25.13 37.4625 25.1875 37.485 25.245 37.5H25.2475C25.3223 37.5228 25.3995 37.537 25.4775 37.5425C25.52 37.5475 25.56 37.55 25.6025 37.5525C25.6125 37.5525 25.62 37.555 25.63 37.555C25.6475 37.555 25.665 37.5525 25.6825 37.5525C25.705 37.5525 25.7275 37.55 25.75 37.55C25.78 37.5475 25.81 37.5425 25.84 37.5375C25.86 37.535 25.8825 37.5325 25.9025 37.5275C25.935 37.52 25.9675 37.5125 26 37.5025L26.0525 37.4875C26.1025 37.47 26.1525 37.4525 26.2 37.43C28.8425 36.22 35.725 33.765 42.5225 37.075C42.59 37.1075 42.66 37.1375 42.73 37.16C42.7675 37.1725 42.8075 37.1825 42.8475 37.1925C42.88 37.2 42.91 37.2125 42.9425 37.2175C42.9825 37.225 43.025 37.23 43.065 37.235C43.095 37.24 43.1275 37.245 43.1575 37.2475C43.2225 37.2525 43.285 37.2525 43.35 37.25H43.375C43.4375 37.2475 43.5 37.2375 43.5625 37.2275C43.5725 37.225 43.5825 37.225 43.59 37.225C43.805 37.185 44.015 37.105 44.2075 36.985C44.4598 36.8281 44.6678 36.6093 44.8118 36.3494C44.9558 36.0895 45.0309 35.7971 45.03 35.5V14.32H46.035C46.4475 14.32 46.785 14.6575 46.785 15.07V40.7975H46.7825Z" fill="#333333"/>
</g>
<defs>
<clipPath id="clip0_8_389">
<rect width="50" height="50" fill="white"/>
</clipPath>
</defs>
</svg>
