<svg width="34" height="34" viewBox="0 0 34 34" fill="none" xmlns="http://www.w3.org/2000/svg">
<path d="M4.50971 21.6923L5.23856 21.5154L4.50971 21.6923ZM4.50971 13.1769L5.23856 13.3538L4.50971 13.1769ZM29.4903 13.1769L28.7614 13.3538L29.4903 13.1769ZM29.4903 21.6922L28.7614 21.5154L29.4903 21.6922ZM21.4049 29.5073L21.5708 30.2388L21.4049 29.5073ZM12.5951 29.5073L12.7609 28.7759L12.5951 29.5073ZM12.5951 5.36181L12.7609 6.09325L12.5951 5.36181ZM21.4049 5.36181L21.5708 4.63038L21.4049 5.36181ZM11.7395 4C11.7395 3.58579 11.4037 3.25 10.9895 3.25C10.5753 3.25 10.2395 3.58579 10.2395 4H11.7395ZM10.2395 7.63097C10.2395 8.04518 10.5753 8.38097 10.9895 8.38097C11.4037 8.38097 11.7395 8.04518 11.7395 7.63097H10.2395ZM23.7605 4C23.7605 3.58579 23.4247 3.25 23.0105 3.25C22.5963 3.25 22.2605 3.58579 22.2605 4H23.7605ZM22.2605 7.63097C22.2605 8.04518 22.5963 8.38097 23.0105 8.38097C23.4247 8.38097 23.7605 8.04518 23.7605 7.63097H22.2605ZM5.23856 21.5154C4.58715 18.8312 4.58715 16.038 5.23856 13.3538L3.78087 13C3.07304 15.9167 3.07304 18.9525 3.78087 21.8691L5.23856 21.5154ZM28.7614 13.3538C29.4129 16.038 29.4129 18.8312 28.7614 21.5154L30.2191 21.8691C30.927 18.9525 30.927 15.9167 30.2191 13L28.7614 13.3538ZM21.2391 28.7759C18.451 29.408 15.549 29.408 12.7609 28.7759L12.4292 30.2388C15.4357 30.9204 18.5643 30.9204 21.5708 30.2388L21.2391 28.7759ZM12.7609 6.09325C15.549 5.46111 18.451 5.4611 21.2391 6.09325L21.5708 4.63038C18.5643 3.94873 15.4357 3.94873 12.4292 4.63038L12.7609 6.09325ZM12.7609 28.7759C9.0159 27.9268 6.10985 25.1056 5.23856 21.5154L3.78087 21.8691C4.79168 26.0343 8.15058 29.2687 12.4292 30.2388L12.7609 28.7759ZM21.5708 30.2388C25.8494 29.2687 29.2083 26.0343 30.2191 21.8691L28.7614 21.5154C27.8902 25.1056 24.9841 27.9268 21.2391 28.7759L21.5708 30.2388ZM21.2391 6.09325C24.9841 6.94234 27.8902 9.7635 28.7614 13.3538L30.2191 13C29.2083 8.83483 25.8494 5.60046 21.5708 4.63038L21.2391 6.09325ZM12.4292 4.63038C8.15057 5.60046 4.79168 8.83483 3.78087 13L5.23856 13.3538C6.10985 9.7635 9.0159 6.94234 12.7609 6.09325L12.4292 4.63038ZM4.97907 12.375H29.0209V10.875H4.97907V12.375ZM10.2395 4V7.63097H11.7395V4H10.2395ZM22.2605 4V7.63097H23.7605V4H22.2605Z" fill="#4F825E"/>
<path d="M14 18.8667L16.1818 21L20 17" stroke="#4F825E" stroke-width="1.5" stroke-linecap="round" stroke-linejoin="round"/>
</svg>
