<svg width="50" height="50" viewBox="0 0 50 50" fill="none" xmlns="http://www.w3.org/2000/svg">
<g clip-path="url(#clip0_10_1156)">
<path d="M33.805 15.72C35.9475 13.5475 36.55 11.15 36.6875 10.435C36.7125 10.3075 36.725 10.18 36.72 10.05C36.63 7.67 34.6725 5.7675 32.27 5.7675C31.225 5.7675 30.2675 6.13 29.5075 6.7325C28.55 5.525 27.07 4.7475 25.4075 4.7475C23.745 4.7475 22.2675 5.525 21.3075 6.7325C20.5226 6.10716 19.5485 5.76692 18.545 5.7675C16.13 5.7675 14.165 7.69 14.0925 10.0875C14.09 10.19 14.0975 10.29 14.1125 10.39C14.21 11.04 14.715 13.4725 17.055 15.7125C17.3225 15.97 17.245 16.4175 16.9075 16.575C11.2675 19.23 5.03247 24.5425 5.03247 35.0675C5.03247 45.345 11.8525 45.2175 14.09 45.2175H37.6475C39.8175 45.2175 45.37 44.835 45.37 33.855C45.37 26.3475 39.88 19.945 33.9075 16.565C33.605 16.3875 33.555 15.97 33.805 15.72Z" fill="#F55651"/>
<path d="M16.5 18.525L15 17.5C10.5275 20.5575 4.03247 26.6625 4.03247 35.065C4.03247 39.22 8.025 43.55 9.5 45C10.4475 44.855 11 45 11.5 44.5C6 41.5 6.615 34.9125 7 32C8.5 22.5 16.5 18.525 16.5 18.525Z" fill="white"/>
<path d="M21.4025 6.97C20.6675 6.3675 19.7425 6.005 18.7325 6.005C16.3975 6.005 14.4975 7.9275 14.43 10.325C14.4275 10.4275 14.435 10.5275 14.4475 10.6275C14.5325 11.2125 14.94 13.235 16.6625 15.265C17.28 15.1025 17.91 14.9225 18.5325 14.725C17.07 13.795 16.4275 12.1 16.2 11.0775C16.07 10.4925 16.1125 9.8725 16.3775 9.3375C17.295 7.4775 19.9125 8.05 21.5875 8.9175C25.7825 4.5775 27.7575 7.705 29.36 9.1725C31.335 6.9375 33.5375 7.865 33.5375 7.865C34.2125 8.0725 35.33 8.88 36.21 9.575C35.8125 7.5425 34.0775 6.01 31.995 6.01C30.985 6.01 30.06 6.3725 29.325 6.975C28.3975 5.7675 26.97 4.99 25.3625 4.99C23.7575 4.985 22.33 5.7625 21.4025 6.97Z" fill="white"/>
<path d="M13.925 45.7125C12.7425 45.7125 10.41 45.6825 8.37997 44.365C5.82747 42.71 4.53247 39.58 4.53247 35.0625C4.53247 24.135 11.1475 18.73 16.695 16.1175C16.7 16.115 16.7125 16.11 16.715 16.09C14.2675 13.735 13.725 11.185 13.6175 10.46C13.5982 10.3309 13.5898 10.2005 13.5925 10.07C13.6725 7.375 15.8475 5.265 18.5425 5.265C19.5075 5.265 20.425 5.5375 21.225 6.0575C21.7596 5.48415 22.4067 5.02726 23.126 4.71539C23.8452 4.40352 24.621 4.24339 25.405 4.245C27.0025 4.245 28.5 4.9 29.585 6.0575C30.385 5.5375 31.3025 5.265 32.2675 5.265C34.9425 5.265 37.115 7.3575 37.2175 10.0275C37.2225 10.1875 37.21 10.3525 37.175 10.5275C37.035 11.25 36.405 13.79 34.1575 16.07C34.1483 16.0804 34.143 16.0936 34.1425 16.1075C39.56 19.185 45.87 25.6625 45.87 33.8525C45.87 41.7225 43.1025 45.715 37.6475 45.715H14.01C13.9825 45.7125 13.955 45.7125 13.925 45.7125ZM18.545 6.2675C16.3925 6.2675 14.6575 7.9525 14.5925 10.1025C14.59 10.17 14.595 10.24 14.6075 10.3175C14.705 10.9625 15.19 13.235 17.4025 15.35C17.645 15.5825 17.7575 15.9225 17.705 16.255C17.678 16.4211 17.6108 16.5781 17.5093 16.7123C17.4077 16.8465 17.275 16.9538 17.1225 17.025C11.835 19.5125 5.53497 24.6625 5.53497 35.065C5.53497 39.22 6.67497 42.0675 8.92497 43.5275C10.755 44.715 12.87 44.7125 14.01 44.7125H37.65C39.4375 44.7125 44.8725 44.7125 44.8725 33.85C44.8725 26.09 38.835 19.92 33.665 16.995C33.5278 16.9179 33.4103 16.8101 33.3218 16.68C33.2333 16.5498 33.1762 16.4009 33.155 16.245C33.1325 16.0861 33.1473 15.9241 33.198 15.7718C33.2488 15.6196 33.3342 15.4812 33.4475 15.3675C35.4975 13.29 36.07 10.9925 36.195 10.34C36.215 10.24 36.2225 10.1525 36.22 10.0675C36.14 7.9375 34.405 6.2675 32.27 6.2675C31.3725 6.2675 30.525 6.5625 29.8175 7.1225C29.6025 7.2925 29.2875 7.2575 29.115 7.0425C28.21 5.9 26.8575 5.245 25.4075 5.245C23.9575 5.245 22.605 5.9 21.7 7.0425C21.5275 7.2575 21.215 7.295 20.9975 7.1225C20.3011 6.56663 19.436 6.26501 18.545 6.2675Z" fill="#333333" stroke="#333333" stroke-width="0.5"/>
<path d="M25.1601 19.4825C19.3001 19.4825 15.5501 17.8175 15.3176 17.7125C14.8744 17.5009 14.5318 17.1239 14.3636 16.6625C14.1954 16.2011 14.2148 15.6921 14.4178 15.2449C14.6208 14.7977 14.9911 14.4479 15.4492 14.2708C15.9072 14.0936 16.4165 14.1032 16.8676 14.2975C16.9651 14.34 24.3001 17.5175 34.3176 14.225C35.3026 13.9 36.3601 14.4375 36.6851 15.42C36.8399 15.8924 36.8011 16.407 36.577 16.8508C36.353 17.2947 35.9621 17.6315 35.4901 17.7875C31.6276 19.055 28.1226 19.4825 25.1601 19.4825Z" fill="#FACF5D"/>
<path d="M16.5 18.5C14.5 16.1 16.3333 15.1667 17.5 15L15.5 14L14.5 15V17L16.5 18.5Z" fill="white"/>
<path d="M25.16 19.9825C19.2675 19.9825 15.52 18.3525 15.11 18.1675C13.9175 17.625 13.39 16.2125 13.935 15.02C14.4775 13.8325 15.885 13.305 17.0725 13.84C17.1425 13.87 24.365 16.9675 34.16 13.7475C34.7625 13.55 35.405 13.5975 35.9725 13.885C36.2514 14.0248 36.4997 14.2185 36.7031 14.455C36.9065 14.6914 37.061 14.9659 37.1575 15.2625C37.565 16.5075 36.8875 17.8525 35.6425 18.26C32.1725 19.4025 28.645 19.9825 25.16 19.9825ZM16.1 14.6325C15.5775 14.6325 15.075 14.9325 14.845 15.435C14.6939 15.7669 14.6807 16.1452 14.8082 16.4869C14.9356 16.8285 15.1935 17.1057 15.525 17.2575C15.68 17.3275 19.38 18.9825 25.16 18.9825C28.5375 18.9825 31.9625 18.42 35.3325 17.3125C35.6784 17.198 35.9649 16.9512 36.1293 16.6261C36.2938 16.301 36.3228 15.924 36.21 15.5775C36.1545 15.4058 36.0653 15.2468 35.9477 15.1099C35.8301 14.973 35.6864 14.8608 35.525 14.78C35.1975 14.615 34.825 14.585 34.475 14.7C24.27 18.055 16.74 14.7875 16.665 14.755C16.48 14.67 16.2875 14.6325 16.1 14.6325Z" fill="#333333"/>
<g filter="url(#filter0_i_10_1156)">
<path d="M25.21 23.715C20.7925 23.715 17.21 27.2975 17.21 31.715C17.21 36.1325 20.7925 39.715 25.21 39.715C29.6275 39.715 33.21 36.1325 33.21 31.715C33.21 27.2975 29.63 23.715 25.21 23.715Z" fill="#FACF5D"/>
</g>
<path d="M25.21 40.215C20.5225 40.215 16.71 36.4025 16.71 31.715C16.71 27.0275 20.5225 23.215 25.21 23.215C29.8975 23.215 33.71 27.0275 33.71 31.715C33.71 36.4025 29.8975 40.215 25.21 40.215ZM25.21 24.215C21.075 24.215 17.71 27.58 17.71 31.715C17.71 35.85 21.075 39.215 25.21 39.215C29.345 39.215 32.71 35.85 32.71 31.715C32.71 27.58 29.3475 24.215 25.21 24.215ZM25.21 35.3925C24.94 35.3925 24.685 35.2875 24.4925 35.095L21.83 32.4325C21.6402 32.2419 21.5337 31.9839 21.5337 31.715C21.5337 31.4461 21.6402 31.1881 21.83 30.9975L24.4925 28.335C24.6831 28.1453 24.941 28.0387 25.21 28.0387C25.4789 28.0387 25.7369 28.1453 25.9275 28.335L28.59 30.9975C28.7797 31.1881 28.8862 31.4461 28.8862 31.715C28.8862 31.9839 28.7797 32.2419 28.59 32.4325L25.9275 35.095C25.7375 35.2875 25.4825 35.3925 25.21 35.3925ZM25.2225 29.0425L22.5375 31.705L25.2 34.39L27.8825 31.7275C27.8875 31.7225 27.8875 31.7125 27.8825 31.705L25.2225 29.0425Z" fill="#333333"/>
<g filter="url(#filter1_i_10_1156)">
<path d="M25.5749 34.7425L28.2374 32.08C28.4374 31.8775 28.4374 31.5525 28.2374 31.3525L25.5749 28.69C25.3749 28.49 25.0474 28.49 24.8474 28.69L22.1849 31.3525C21.9849 31.5525 21.9849 31.88 22.1849 32.08L24.8474 34.7425C25.0474 34.9425 25.3749 34.9425 25.5749 34.7425Z" fill="#76BFFF"/>
</g>
</g>
<defs>
<filter id="filter0_i_10_1156" x="17.21" y="23.715" width="16" height="16" filterUnits="userSpaceOnUse" color-interpolation-filters="sRGB">
<feFlood flood-opacity="0" result="BackgroundImageFix"/>
<feBlend mode="normal" in="SourceGraphic" in2="BackgroundImageFix" result="shape"/>
<feColorMatrix in="SourceAlpha" type="matrix" values="0 0 0 0 0 0 0 0 0 0 0 0 0 0 0 0 0 0 127 0" result="hardAlpha"/>
<feOffset dx="1" dy="1"/>
<feComposite in2="hardAlpha" operator="arithmetic" k2="-1" k3="1"/>
<feColorMatrix type="matrix" values="0 0 0 0 1 0 0 0 0 1 0 0 0 0 1 0 0 0 1 0"/>
<feBlend mode="normal" in2="shape" result="effect1_innerShadow_10_1156"/>
</filter>
<filter id="filter1_i_10_1156" x="22.0349" y="28.54" width="6.35254" height="6.3525" filterUnits="userSpaceOnUse" color-interpolation-filters="sRGB">
<feFlood flood-opacity="0" result="BackgroundImageFix"/>
<feBlend mode="normal" in="SourceGraphic" in2="BackgroundImageFix" result="shape"/>
<feColorMatrix in="SourceAlpha" type="matrix" values="0 0 0 0 0 0 0 0 0 0 0 0 0 0 0 0 0 0 127 0" result="hardAlpha"/>
<feOffset dx="1"/>
<feComposite in2="hardAlpha" operator="arithmetic" k2="-1" k3="1"/>
<feColorMatrix type="matrix" values="0 0 0 0 1 0 0 0 0 1 0 0 0 0 1 0 0 0 1 0"/>
<feBlend mode="normal" in2="shape" result="effect1_innerShadow_10_1156"/>
</filter>
<clipPath id="clip0_10_1156">
<rect width="50" height="50" fill="white"/>
</clipPath>
</defs>
</svg>
