<svg width="50" height="50" viewBox="0 0 50 50" fill="none" xmlns="http://www.w3.org/2000/svg">
<g clip-path="url(#clip0_8_384)">
<path d="M17.1975 9.15999C17.1975 9.15999 17.435 12.1925 20.19 17.745H30.5775V19.4825C34.15 12.7725 34.05 8.48999 34.05 8.48999V4.23249C34.05 3.86249 33.8425 2.75249 32.175 2.75249C30.51 2.75249 30.695 4.37249 30.695 4.37249V6.80249C30.695 6.80249 27.39 7.80749 24.5925 10.0875C24.5925 10.0875 20.515 7.12499 18.48 6.80249V4.37249C18.48 4.37249 18.54 2.52249 17 2.75249C16.9125 3.41499 16.975 4.47999 16.975 4.85249C16.975 5.22499 17.1975 9.15999 17.1975 9.15999V9.15999ZM44.235 43.305C42.8475 32.695 33.055 24.1075 30.1225 21.0525C29.965 20.8875 29.9375 20.64 30.05 20.4425C30.235 20.1175 30.4075 19.8 30.575 19.485H21.0925C21.2625 19.7975 21.4375 20.1175 21.6225 20.4425C21.735 20.64 21.7075 20.8875 21.55 21.0525C18.615 24.11 9.47498 33.895 6.85748 43.7225C6.42748 45.3375 5.91748 46.5225 7.58998 46.5875C9.19998 46.6525 10.5275 45.365 10.5275 43.7675C10.5275 45.325 11.79 46.59 13.35 46.59C14.9075 46.59 16.1725 45.3275 16.1725 43.7675C16.1725 45.325 17.435 46.59 18.995 46.59C20.555 46.59 21.8175 45.3275 21.8175 43.7675C21.8175 45.325 23.08 46.59 24.64 46.59C26.1975 46.59 27.4625 45.3275 27.4625 43.7675C27.4625 45.325 28.725 46.59 30.285 46.59C31.845 46.59 33.1075 45.3275 33.1075 43.7675C33.1075 45.325 34.37 46.59 35.93 46.59C37.4875 46.59 38.7525 45.3275 38.7525 43.7675C38.7525 45.365 39.975 46.6525 41.5875 46.5875C43.2525 46.5225 44.4525 44.9625 44.235 43.305Z" fill="#84DDFD"/>
<path d="M30.3525 20.505H21.2775L20.5275 18.765H30.3525V20.505Z" fill="#EDC951"/>
<path d="M44.98 43.2075C43.7125 33.5125 35.7025 25.5525 31.8525 21.7275C31.445 21.3225 31.085 20.965 30.79 20.66C34.8675 13.39 34.805 8.67 34.8 8.4875V4.2325C34.8 3.46 34.2525 2.0025 32.175 2.0025C31.2775 2.0025 30.76 2.3725 30.4825 2.6825C29.91 3.325 29.9275 4.17 29.945 4.405V6.2625C28.94 6.625 26.6825 7.545 24.57 9.15C23.5175 8.4175 21.0325 6.7675 19.23 6.2125V4.405C19.2475 4.1725 19.265 3.3275 18.6925 2.685C18.415 2.375 17.8975 2.005 17 2.005C14.925 2.005 14.375 3.465 14.375 4.235V8.475C14.37 8.6725 14.3075 13.3925 18.385 20.665C18.09 20.97 17.73 21.3275 17.3225 21.7325C13.4725 25.5575 5.46003 33.52 4.19503 43.2125C4.06003 44.25 4.36503 45.3 5.03753 46.095C5.68253 46.86 6.58003 47.3025 7.56253 47.3425C7.61253 47.345 7.66003 47.345 7.70753 47.345C8.63503 47.345 9.51003 46.995 10.18 46.3475C10.3075 46.225 10.4225 46.0975 10.5275 45.9625C11.1825 46.8025 12.2025 47.345 13.3475 47.345C14.495 47.345 15.515 46.8025 16.17 45.96C16.825 46.8025 17.845 47.345 18.9925 47.345C20.14 47.345 21.16 46.8025 21.815 45.96C22.47 46.8025 23.49 47.345 24.6375 47.345C25.785 47.345 26.805 46.8025 27.46 45.96C28.115 46.8025 29.135 47.345 30.2825 47.345C31.43 47.345 32.45 46.8025 33.105 45.96C33.76 46.8025 34.78 47.345 35.9275 47.345C37.0625 47.345 38.075 46.8125 38.73 45.985C38.84 46.13 38.96 46.2675 39.0925 46.395C39.7675 47.045 40.6625 47.3775 41.615 47.3425C42.5975 47.3025 43.495 46.86 44.14 46.095C44.8075 45.2975 45.115 44.245 44.98 43.2075V43.2075ZM29.4225 20.025H19.7475C19.3975 19.4025 19.0775 18.8 18.7875 18.2175H30.385C30.0925 18.8 29.7725 19.4025 29.4225 20.025ZM15.8725 8.49V4.2325C15.8725 3.96 16.0175 3.5025 16.9975 3.5025C17.27 3.5025 17.4625 3.5625 17.5675 3.6775C17.73 3.855 17.74 4.19 17.7325 4.285C17.73 4.3125 17.7275 4.3425 17.7275 4.37V6.8C17.7275 7.1675 17.995 7.4825 18.36 7.54C19.8825 7.7825 23.055 9.8975 24.15 10.6925C24.425 10.8925 24.8 10.8825 25.065 10.6675C27.7075 8.5125 30.88 7.5275 30.9125 7.5175C31.0664 7.47074 31.2013 7.37577 31.2971 7.2466C31.393 7.11742 31.4449 6.96087 31.445 6.8V4.37C31.445 4.3475 31.4425 4.315 31.44 4.2925C31.43 4.19 31.44 3.855 31.605 3.675C31.7125 3.5575 31.9025 3.5 32.175 3.5C33.1525 3.5 33.3 3.9575 33.3 4.23V8.5025C33.3 8.54 33.3225 11.6825 31.0925 16.715H18.0825C15.85 11.685 15.8725 8.54 15.8725 8.49V8.49ZM42.99 45.125C42.62 45.5625 42.11 45.8175 41.5525 45.84C41.0075 45.865 40.5075 45.6725 40.13 45.31C39.7225 44.9175 39.4975 44.37 39.4975 43.77C39.4975 43.355 39.1625 43.02 38.7475 43.02C38.3325 43.02 37.9975 43.355 37.9975 43.77C37.9975 44.9125 37.0675 45.8425 35.925 45.8425C34.7825 45.8425 33.8525 44.9125 33.8525 43.77C33.8525 43.355 33.5175 43.02 33.1025 43.02C32.6875 43.02 32.3525 43.355 32.3525 43.77C32.3525 44.9125 31.4225 45.8425 30.28 45.8425C29.1375 45.8425 28.2075 44.9125 28.2075 43.77C28.2075 43.355 27.8725 43.02 27.4575 43.02C27.0425 43.02 26.7075 43.355 26.7075 43.77C26.7075 44.9125 25.7775 45.8425 24.635 45.8425C23.4925 45.8425 22.5625 44.9125 22.5625 43.77C22.5625 43.355 22.2275 43.02 21.8125 43.02C21.3975 43.02 21.0625 43.355 21.0625 43.77C21.0625 44.9125 20.1325 45.8425 18.99 45.8425C17.8475 45.8425 16.9175 44.9125 16.9175 43.77C16.9175 43.355 16.5825 43.02 16.1675 43.02C15.7525 43.02 15.4175 43.355 15.4175 43.77C15.4175 44.9125 14.4875 45.8425 13.345 45.8425C12.2025 45.8425 11.2725 44.9125 11.2725 43.77C11.2725 43.355 10.9375 43.02 10.5225 43.02C10.1075 43.02 9.77253 43.355 9.77253 43.77C9.77253 44.34 9.54753 44.87 9.13503 45.265C8.93462 45.4601 8.69634 45.612 8.43489 45.7113C8.17345 45.8106 7.89441 45.8553 7.61503 45.8425C7.05753 45.82 6.54753 45.5675 6.17753 45.1275C5.97896 44.891 5.83192 44.6156 5.74583 44.319C5.65973 44.0224 5.63647 43.7111 5.67753 43.405C6.87753 34.22 14.645 26.5025 18.375 22.795C18.8475 22.325 19.2575 21.9175 19.5875 21.575C19.6025 21.56 19.6125 21.545 19.625 21.53H20.5C18.6025 25.0975 17.1275 30.5975 17.0575 30.8575C17.028 30.9686 17.0245 31.0849 17.0471 31.1976C17.0697 31.3102 17.1179 31.4162 17.1879 31.5073C17.258 31.5984 17.3481 31.6721 17.4511 31.7229C17.5542 31.7736 17.6676 31.8 17.7825 31.8C18.115 31.8 18.4175 31.5775 18.5075 31.2425C18.525 31.1775 20.23 24.8175 22.2225 21.53H23.835V28.18C23.835 28.595 24.17 28.93 24.585 28.93C25 28.93 25.335 28.595 25.335 28.18V21.525H27.0225C28.29 23.455 30.1975 29.13 30.86 31.265C30.9071 31.4179 31.002 31.5516 31.1306 31.6465C31.2593 31.7415 31.4151 31.7926 31.575 31.7925C31.6475 31.7925 31.7225 31.7825 31.7975 31.7575C31.9874 31.6987 32.1462 31.567 32.2391 31.3912C32.3319 31.2154 32.3511 31.01 32.2925 30.82C32.2025 30.5275 30.34 24.55 28.7475 21.5225H29.5425C29.555 21.5375 29.565 21.555 29.58 21.5675C29.91 21.91 30.3175 22.3175 30.7925 22.7875C34.525 26.495 42.29 34.2125 43.49 43.3975C43.5725 44.0225 43.39 44.65 42.99 45.125V45.125Z" fill="#333333"/>
<path d="M24.585 32.3975C24.17 32.3975 23.835 32.0625 23.835 31.6475V31.1625C23.835 30.7475 24.17 30.4125 24.585 30.4125C25 30.4125 25.335 30.7475 25.335 31.1625V31.6475C25.335 32.06 25 32.3975 24.585 32.3975Z" fill="#333333"/>
</g>
<defs>
<clipPath id="clip0_8_384">
<rect width="50" height="50" fill="white"/>
</clipPath>
</defs>
</svg>
