<svg width="50" height="50" viewBox="0 0 50 50" fill="none" xmlns="http://www.w3.org/2000/svg">
<g clip-path="url(#clip0_10_533)">
<g filter="url(#filter0_i_10_533)">
<path d="M41.1125 42.435L39.5175 41.1975C36.71 39.0175 32.7225 39.25 30.185 41.74L30.075 41.8475C27.295 44.5775 22.835 44.5575 20.0775 41.805C17.55 39.28 13.54 39.0275 10.7125 41.2125L9.12248 42.44C8.65498 42.8 7.97998 42.4675 7.97998 41.8775V11.355C7.97998 8.45749 10.3275 6.10999 13.225 6.10999H37.01C39.9075 6.10999 42.255 8.45749 42.255 11.355V41.875C42.2575 42.465 41.58 42.7975 41.1125 42.435Z" fill="#FDD653"/>
</g>
<g filter="url(#filter1_i_10_533)">
<path d="M37.5025 6.10748H32.0775C34.705 6.10748 36.8325 8.79248 36.8325 12.1075V39.8C37.875 39.9825 38.89 40.44 39.7725 41.1975L41.22 42.435C41.6425 42.7975 42.2575 42.465 42.2575 41.875V11.355C42.2575 8.45748 40.1275 6.10748 37.5025 6.10748Z" fill="#F487A4"/>
</g>
<path d="M25.0975 44.6225C23.085 44.6225 21.0725 43.86 19.5475 42.3375C17.2925 40.0875 13.6925 39.8575 11.1725 41.8075L9.58498 43.035C9.3697 43.2028 9.1114 43.3063 8.83983 43.3338C8.56826 43.3612 8.29447 43.3113 8.04998 43.19C7.54748 42.9425 7.23248 42.44 7.23248 41.88V11.355C7.23248 8.04999 9.92248 5.35999 13.2275 5.35999H37.0125C40.3175 5.35999 43.0075 8.04999 43.0075 11.355V41.875C43.0075 42.4375 42.695 42.9375 42.19 43.185C41.685 43.4325 41.0975 43.3725 40.6525 43.0275L39.0575 41.79C36.5575 39.85 32.9675 40.0575 30.71 42.275L30.6 42.3825C29.0775 43.8775 27.0875 44.6225 25.0975 44.6225V44.6225ZM15.0525 38.985C17.075 38.985 19.0875 39.7575 20.6075 41.275C23.0625 43.725 27.075 43.7425 29.55 41.3125L29.66 41.205C32.4525 38.465 36.8875 38.2075 39.9775 40.605L41.5075 41.7925V11.355C41.5075 8.87499 39.49 6.85999 37.0125 6.85999H13.225C10.745 6.85999 8.72998 8.87749 8.72998 11.355V41.7975L10.2525 40.62C11.6273 39.5585 13.3156 38.9834 15.0525 38.985V38.985Z" fill="#333333"/>
<path d="M32.0775 24.3325H25.8075V20.7175H32.0775C32.4925 20.7175 32.8275 20.3825 32.8275 19.9675C32.8275 19.5525 32.4925 19.2175 32.0775 19.2175H26.6325L30.3375 14.8075C30.4009 14.732 30.4489 14.6448 30.4786 14.5507C30.5082 14.4567 30.5191 14.3578 30.5105 14.2596C30.5019 14.1613 30.474 14.0658 30.4285 13.9783C30.3829 13.8909 30.3206 13.8133 30.245 13.75C30.1695 13.6865 30.0823 13.6386 29.9882 13.6089C29.8942 13.5792 29.7953 13.5684 29.6971 13.577C29.5988 13.5856 29.5033 13.6134 29.4158 13.659C29.3284 13.7045 29.2508 13.7669 29.1875 13.8425L25.025 18.795L20.925 13.845C20.7983 13.6919 20.616 13.5954 20.4182 13.5767C20.2204 13.5579 20.0232 13.6184 19.87 13.745C19.7169 13.8717 19.6204 14.054 19.6017 14.2518C19.5829 14.4496 19.6435 14.6468 19.77 14.8L23.425 19.2125H18.035C17.62 19.2125 17.285 19.5475 17.285 19.9625C17.285 20.3775 17.62 20.7125 18.035 20.7125H24.305V24.3275H18.035C17.62 24.3275 17.285 24.6625 17.285 25.0775C17.285 25.4925 17.62 25.8275 18.035 25.8275H24.305V29.38C24.305 29.795 24.64 30.13 25.055 30.13C25.47 30.13 25.805 29.795 25.805 29.38V25.8275H32.075C32.49 25.8275 32.825 25.4925 32.825 25.0775C32.8275 24.6675 32.49 24.3325 32.0775 24.3325ZM32.81 35.7H17.3625C16.9475 35.7 16.6125 35.365 16.6125 34.95C16.6125 34.535 16.9475 34.2 17.3625 34.2H32.81C33.225 34.2 33.56 34.535 33.56 34.95C33.56 35.365 33.225 35.7 32.81 35.7Z" fill="#333333"/>
</g>
<defs>
<filter id="filter0_i_10_533" x="7.97998" y="6.10999" width="34.275" height="37.7723" filterUnits="userSpaceOnUse" color-interpolation-filters="sRGB">
<feFlood flood-opacity="0" result="BackgroundImageFix"/>
<feBlend mode="normal" in="SourceGraphic" in2="BackgroundImageFix" result="shape"/>
<feColorMatrix in="SourceAlpha" type="matrix" values="0 0 0 0 0 0 0 0 0 0 0 0 0 0 0 0 0 0 127 0" result="hardAlpha"/>
<feOffset dx="2" dy="1.5"/>
<feComposite in2="hardAlpha" operator="arithmetic" k2="-1" k3="1"/>
<feColorMatrix type="matrix" values="0 0 0 0 1 0 0 0 0 1 0 0 0 0 1 0 0 0 1 0"/>
<feBlend mode="normal" in2="shape" result="effect1_innerShadow_10_533"/>
</filter>
<filter id="filter1_i_10_533" x="32.0775" y="6.10748" width="10.18" height="36.4782" filterUnits="userSpaceOnUse" color-interpolation-filters="sRGB">
<feFlood flood-opacity="0" result="BackgroundImageFix"/>
<feBlend mode="normal" in="SourceGraphic" in2="BackgroundImageFix" result="shape"/>
<feColorMatrix in="SourceAlpha" type="matrix" values="0 0 0 0 0 0 0 0 0 0 0 0 0 0 0 0 0 0 127 0" result="hardAlpha"/>
<feOffset dy="1.5"/>
<feComposite in2="hardAlpha" operator="arithmetic" k2="-1" k3="1"/>
<feColorMatrix type="matrix" values="0 0 0 0 1 0 0 0 0 1 0 0 0 0 1 0 0 0 1 0"/>
<feBlend mode="normal" in2="shape" result="effect1_innerShadow_10_533"/>
</filter>
<clipPath id="clip0_10_533">
<rect width="50" height="50" fill="white"/>
</clipPath>
</defs>
</svg>
