<svg width="50" height="50" viewBox="0 0 50 50" fill="none" xmlns="http://www.w3.org/2000/svg">
<g clip-path="url(#clip0_9_430)">
<path d="M42.4875 26.8475C39.94 26.8475 37.825 25.0025 37.4025 22.575C36.8825 22.7525 36.325 22.85 35.745 22.85C32.8925 22.85 30.0625 20.375 30.0625 17.5225C30.0625 16.5675 29.83 14.6575 30.2825 13.89C28.5725 13.0475 28.1225 12.5175 28.1225 10.4825C28.1225 9.235 27.045 7.735 27.7825 6.8425C26.44 6.545 26.8525 6.695 25.42 6.695C14.835 6.695 6.255 15.275 6.255 25.86C6.255 36.445 14.835 45.025 25.42 45.025C35.82 45.025 44.2875 36.74 44.5775 26.4075C43.919 26.6979 43.2072 26.8478 42.4875 26.8475V26.8475ZM25.4175 31.0225C22.565 31.0225 20.255 28.71 20.255 25.86C20.255 23.0075 22.5675 20.6975 25.4175 20.6975C28.27 20.6975 30.58 23.01 30.58 25.86C30.5825 28.7125 28.27 31.0225 25.4175 31.0225Z" fill="#FFA750"/>
<path d="M13.155 22.045C12.865 19.735 14.08 19.4475 14.83 21.2375C15.58 23.0275 15.985 24.2 17.4275 23.605C18.8725 23.01 18.4675 21.295 17.1975 19.505C15.9275 17.715 18.2375 17.08 19.3925 18.6975C20.5475 20.315 25.5125 19.7375 26.2075 18.2925C26.7025 17.26 26.7025 14.52 28.66 12.765C28.4175 12.4575 28.2725 12.0925 28.1975 11.6075C27.5709 10.6924 27.2362 9.60903 27.2375 8.49999C27.2375 7.89999 27.3375 7.32499 27.5125 6.78499C26.495 6.56749 26.745 6.69749 25.42 6.69749C15.3725 6.69749 7.13751 14.43 6.32751 24.2675C6.87501 24.145 7.39251 23.8525 7.84501 23.3175C9.05751 21.7 10.7325 22.2975 9.98251 24.3375C9.23251 26.3775 8.30751 30.1325 11.2525 30.19C14.195 30.245 13.4425 24.3525 13.155 22.045V22.045Z" fill="#884306"/>
<path d="M34.0125 9.63501C34.0125 9.63501 44.725 8.75751 47.66 18.79C45.115 17.935 39.12 15.92 39.12 15.92L34.0125 9.63501Z" fill="#FFA750"/>
<path d="M47.66 19.54C47.58 19.54 47.5 19.5275 47.42 19.5L38.88 16.63C38.745 16.585 38.6275 16.5025 38.5375 16.3925L33.43 10.1075C33.3439 10.0016 33.2883 9.87424 33.2692 9.73909C33.2502 9.60394 33.2684 9.46616 33.3219 9.3406C33.3754 9.21504 33.4622 9.10648 33.5729 9.02663C33.6836 8.94678 33.814 8.89867 33.95 8.8875C34.0625 8.8775 45.3075 8.08 48.3775 18.58C48.455 18.8475 48.3775 19.1375 48.1775 19.33C48.0375 19.465 47.85 19.54 47.66 19.54V19.54ZM39.565 15.2775L46.445 17.59C43.975 11.625 38.32 10.5475 35.59 10.385L39.565 15.2775Z" fill="#333333"/>
<path d="M44.9925 25.0075C44.78 24.865 44.5075 24.84 44.2725 24.945C43.6631 25.2147 43.0039 25.3535 42.3375 25.3525C40.005 25.3525 38.02 23.685 37.6225 21.39C37.585 21.175 37.455 20.985 37.2675 20.8725C37.08 20.76 36.8525 20.7375 36.6425 20.8075C36.1425 20.9775 35.625 21.0625 35.105 21.0625C32.465 21.0625 30.315 18.915 30.315 16.2725C30.315 15.42 30.545 14.5825 30.9775 13.8475C31.0825 13.6675 31.11 13.4525 31.05 13.2525C30.99 13.0525 30.85 12.8875 30.6625 12.795C30.2325 12.5825 29.845 12.3125 29.505 11.9975C29.495 11.9875 29.4875 11.975 29.475 11.9625C28.8933 11.4135 28.4598 10.7264 28.215 9.965C28.21 9.9475 28.2025 9.9275 28.1975 9.91C28.1525 9.7675 28.115 9.625 28.085 9.4775L28.0775 9.43C28.0525 9.305 28.035 9.1775 28.02 9.0475C28.015 9.01 28.0125 8.9725 28.0075 8.935C27.995 8.79 27.985 8.645 27.985 8.4975C27.986 7.3867 28.3721 6.3106 29.0775 5.4525C29.2025 5.3025 29.26 5.11 29.2475 4.92C29.2425 4.8575 29.23 4.7925 29.2075 4.7325C29.1659 4.61097 29.0937 4.50224 28.9978 4.41683C28.9018 4.33142 28.7855 4.27224 28.66 4.245C27.1373 3.90674 25.5823 3.73572 24.0225 3.735C23.665 3.735 23.3075 3.745 22.9525 3.7625C22.8125 3.77 22.6725 3.7825 22.5325 3.7925C22.32 3.8075 22.11 3.82 21.9 3.84C21.7225 3.8575 21.55 3.8825 21.375 3.905C21.205 3.925 21.035 3.945 20.865 3.97C20.67 4 20.48 4.035 20.285 4.07C20.1375 4.095 19.99 4.12 19.845 4.1475C19.64 4.1875 19.4375 4.235 19.2375 4.2825C19.1075 4.3125 18.975 4.34 18.845 4.3725C18.635 4.425 18.43 4.4825 18.2225 4.5425C18.1025 4.5775 17.9825 4.61 17.8625 4.645C17.6525 4.71 17.4425 4.7775 17.235 4.8475C17.1225 4.885 17.01 4.9225 16.8975 4.9625C16.6875 5.0375 16.4825 5.1175 16.275 5.1975C16.1675 5.24 16.0575 5.2825 15.95 5.325C15.745 5.41 15.5425 5.4975 15.3425 5.5875C15.0369 5.72333 14.7351 5.86755 14.4375 6.02C14.33 6.075 14.225 6.1275 14.1175 6.185C13.93 6.285 13.7425 6.3875 13.56 6.49C13.45 6.5525 13.3425 6.615 13.2325 6.6775C13.055 6.7825 12.88 6.8875 12.7075 6.9975C12.595 7.07 12.4825 7.14 12.37 7.215C12.205 7.3225 12.0425 7.4325 11.8825 7.5425C11.765 7.625 11.6475 7.7075 11.53 7.7925C11.38 7.9025 11.2325 8.0125 11.085 8.125C10.96 8.22 10.8375 8.3175 10.715 8.415C10.58 8.5225 10.4475 8.6325 10.315 8.7425C10.185 8.8525 10.055 8.965 9.92747 9.08C9.80997 9.185 9.68997 9.29 9.57497 9.395C9.43747 9.5225 9.30247 9.6525 9.16747 9.785C9.06497 9.885 8.96497 9.9825 8.86497 10.0825C8.71997 10.23 8.57747 10.38 8.43747 10.5325C8.35247 10.6225 8.26747 10.7125 8.18497 10.805C8.03247 10.975 7.88497 11.1475 7.73747 11.32C7.66997 11.4 7.60247 11.4775 7.53497 11.5575C7.38247 11.75 7.22747 11.95 7.07497 12.15L6.92497 12.345C6.75997 12.5675 6.59997 12.795 6.44247 13.0225C6.40997 13.07 6.37497 13.115 6.34497 13.1625C6.17219 13.4185 6.00548 13.6786 5.84497 13.9425C5.82997 13.965 5.81497 13.9875 5.80247 14.01C4.90737 15.482 4.19544 17.0578 3.68247 18.7025C3.66747 18.75 3.65497 18.8 3.63997 18.85C3.55497 19.125 3.47497 19.4025 3.40247 19.685C3.36747 19.8175 3.33997 19.955 3.30747 20.09C3.25997 20.2875 3.21247 20.485 3.16997 20.685C3.13247 20.8625 3.10247 21.0425 3.06997 21.2225C3.03997 21.3825 3.00997 21.54 2.98497 21.7C2.95247 21.905 2.92747 22.1125 2.89997 22.32C2.88247 22.4575 2.86247 22.595 2.84747 22.735C2.82247 22.955 2.80747 23.1775 2.78997 23.4C2.78247 23.5025 2.76997 23.605 2.76247 23.7075V23.7425C2.73747 24.1725 2.71997 24.605 2.71997 25.0425C2.71997 36.7925 12.2775 46.35 24.0275 46.35C29.6125 46.35 34.8925 44.205 38.8925 40.3075C42.885 36.42 45.17 31.2125 45.325 25.65C45.33 25.3925 45.205 25.15 44.9925 25.0075V25.0075ZM27.2475 5.4975C26.7475 6.41842 26.4854 7.44961 26.485 8.4975C26.485 8.6625 26.4925 8.825 26.505 8.985C26.5075 9.0325 26.5125 9.0775 26.5175 9.125C26.53 9.25 26.545 9.3725 26.565 9.4925C26.5725 9.5325 26.5775 9.575 26.585 9.615C26.6125 9.775 26.6475 9.935 26.6875 10.0925C26.69 10.0975 26.69 10.1025 26.6925 10.11C26.735 10.2675 26.7825 10.4225 26.835 10.575L26.8575 10.635C27.095 11.2975 27.44 11.915 27.8825 12.4575C26.53 13.835 26.12 15.6225 25.8375 16.8575C25.7325 17.31 25.635 17.74 25.5275 17.9625C25.4125 18.2 24.79 18.55 23.83 18.755C23.42 18.7675 23.02 18.82 22.6325 18.9075C21.385 18.9675 20.3275 18.71 20.0025 18.255C19.075 16.955 17.545 16.7275 16.6975 17.33C16.05 17.7925 15.7625 18.775 16.585 19.9325C17.485 21.2 17.68 22.0875 17.5625 22.495C17.5275 22.62 17.445 22.78 17.1425 22.905C16.6025 23.1275 16.4575 23.1875 15.6275 21.1925L15.5225 20.94C14.775 19.16 13.75 19.28 13.4525 19.36C13.05 19.4675 12.14 19.9525 12.4125 22.1325L12.4175 22.165C12.6125 23.7275 13.1325 27.8775 12.0075 29.125C11.8125 29.3425 11.5875 29.43 11.265 29.43C10.605 29.4175 10.3675 29.1775 10.245 28.9975C9.76997 28.3025 9.93997 26.6125 10.685 24.5875C11.235 23.0925 10.73 22.1775 10.075 21.82C9.85247 21.7 9.58997 21.6325 9.30497 21.6325C8.66497 21.6325 7.91247 21.9775 7.25747 22.8425C6.98247 23.1675 6.21497 24.035 4.30247 23.28L4.30997 23.18C4.32747 22.995 4.34997 22.8125 4.37247 22.6275C4.38997 22.4825 4.40747 22.34 4.42747 22.1975C4.44997 22.0325 4.47997 21.8675 4.50747 21.7025C4.53497 21.5425 4.56247 21.3825 4.59247 21.225C4.61997 21.0775 4.65247 20.9325 4.68497 20.7875C4.72247 20.6125 4.76247 20.44 4.80497 20.265C4.83747 20.135 4.86997 20.0075 4.90497 19.88C4.95497 19.6925 5.00747 19.505 5.06497 19.32C5.09747 19.2075 5.13247 19.0975 5.16997 18.985C5.23497 18.785 5.30247 18.5875 5.37247 18.39C5.40747 18.295 5.43997 18.2 5.47747 18.1025C5.55747 17.8925 5.63997 17.6825 5.72497 17.4775C5.75747 17.3975 5.79247 17.3175 5.82497 17.2375C5.91997 17.0175 6.01747 16.8 6.11997 16.585C6.15247 16.5175 6.18247 16.4525 6.21497 16.385C6.32497 16.1575 6.44247 15.935 6.55997 15.7125C6.58747 15.66 6.61497 15.6075 6.64497 15.555C6.77247 15.32 6.90747 15.09 7.04497 14.86C7.06747 14.8225 7.08997 14.7825 7.11497 14.7425C7.26247 14.5 7.41747 14.26 7.57497 14.0225C7.58997 14 7.60497 13.975 7.61997 13.9525C7.79247 13.6975 7.97247 13.445 8.15747 13.1975C8.15997 13.195 8.16247 13.19 8.16497 13.1875C8.91997 12.18 9.76747 11.245 10.6975 10.4C10.7675 10.335 10.8425 10.2725 10.915 10.21C11.07 10.0725 11.2275 9.9325 11.3875 9.8C11.4925 9.7125 11.6025 9.6275 11.71 9.5425C11.84 9.4375 11.97 9.3325 12.105 9.2325C12.2325 9.1375 12.3625 9.045 12.49 8.9525C12.6075 8.8675 12.725 8.7825 12.8475 8.7C12.99 8.6025 13.135 8.51 13.28 8.415C13.3925 8.3425 13.5025 8.27 13.6175 8.2C13.77 8.105 13.9275 8.0125 14.0825 7.9225C14.19 7.86 14.3 7.795 14.4075 7.735C14.57 7.645 14.735 7.5575 14.9 7.47C15.0075 7.415 15.115 7.3575 15.2225 7.305C15.4984 7.16666 15.7777 7.03496 16.06 6.91C16.235 6.8325 16.41 6.7575 16.5875 6.685C16.6975 6.64 16.81 6.595 16.9225 6.5525C17.1 6.485 17.28 6.4175 17.46 6.3525C17.575 6.3125 17.6925 6.2725 17.81 6.235C17.9875 6.175 18.1675 6.1175 18.35 6.0625C18.4725 6.025 18.5975 5.9925 18.7225 5.9575C18.9 5.9075 19.0775 5.86 19.2575 5.815C19.39 5.7825 19.525 5.7525 19.6575 5.7225C19.83 5.6825 20.005 5.6425 20.18 5.61C20.3275 5.58 20.475 5.5575 20.6225 5.53C20.7875 5.5 20.9525 5.47 21.12 5.445C21.285 5.42 21.4525 5.4025 21.62 5.38C21.7725 5.3625 21.9225 5.34 22.075 5.325C22.275 5.305 22.475 5.2925 22.6775 5.28C22.8 5.2725 22.9225 5.26 23.0475 5.2525C23.375 5.2375 23.7025 5.2275 24.035 5.2275C25.1025 5.235 26.1825 5.3225 27.2475 5.4975V5.4975ZM24.025 20.2525C26.665 20.2525 28.815 22.4 28.815 25.0425C28.815 27.6825 26.6675 29.8325 24.025 29.8325C21.3825 29.8325 19.235 27.685 19.235 25.0425C19.235 22.8 20.7875 20.9175 22.8725 20.4C22.9359 20.3957 22.9992 20.3907 23.0625 20.385C23.365 20.36 23.68 20.315 23.9925 20.255C24.005 20.255 24.015 20.2525 24.025 20.2525V20.2525ZM18.9575 21.325C18.7325 20.5075 18.26 19.7025 17.81 19.07C17.59 18.76 17.57 18.5775 17.5675 18.56C17.5825 18.5475 17.675 18.5025 17.8525 18.5225C18.19 18.56 18.5375 18.7875 18.7825 19.1325C19.115 19.6 19.6125 19.9 20.155 20.0925C19.7001 20.4453 19.297 20.8601 18.9575 21.325V21.325ZM24.025 44.85C13.1025 44.85 4.21747 35.965 4.21747 25.0425C4.21747 24.975 4.22247 24.9075 4.22247 24.8425C5.92997 25.3675 7.39497 25.015 8.41497 23.7975C8.42497 23.7875 8.43247 23.775 8.43997 23.765C8.88497 23.17 9.28497 23.1075 9.35247 23.145C9.37997 23.16 9.51247 23.425 9.27247 24.0775C8.59997 25.9075 8.00497 28.395 9.00247 29.8525C9.33247 30.335 9.98497 30.9125 11.2325 30.9375H11.2875C12.0125 30.9375 12.645 30.66 13.1175 30.135C14.5075 28.59 14.315 25.305 13.9 21.985L13.895 21.9525C13.8425 21.525 13.8525 21.2325 13.88 21.045C13.955 21.1525 14.0425 21.3075 14.135 21.5275L14.24 21.7775C14.8975 23.3575 15.645 25.1475 17.71 24.2975C17.735 24.2875 17.7575 24.275 17.7825 24.2625C17.75 24.5175 17.7325 24.7775 17.7325 25.0425C17.7325 28.51 20.5525 31.3325 24.0225 31.3325C27.4925 31.3325 30.3125 28.51 30.3125 25.0425C30.3125 22.4175 28.695 20.165 26.405 19.2225C26.605 19.0425 26.77 18.84 26.8775 18.615C27.0575 18.24 27.1675 17.7575 27.2975 17.195C27.5675 16.0125 27.9 14.5725 28.96 13.5025C29.08 13.595 29.205 13.6825 29.3325 13.7675C28.9871 14.5583 28.8092 15.4121 28.81 16.275C28.81 19.7425 31.63 22.565 35.1 22.565C35.5125 22.565 35.925 22.525 36.33 22.4425C37.135 25.0425 39.545 26.855 42.3325 26.855C42.8175 26.855 43.295 26.8 43.7625 26.69C42.935 36.955 34.4625 44.85 24.025 44.85V44.85Z" fill="#333333"/>
<path d="M24.195 12.47C24.105 12.47 24.015 12.4525 23.925 12.42L21.9375 11.6525C21.55 11.5025 21.36 11.07 21.5075 10.6825C21.655 10.295 22.09 10.105 22.4775 10.2525L24.465 11.02C24.8525 11.17 25.0425 11.6025 24.895 11.99C24.8403 12.1312 24.7441 12.2526 24.6192 12.3382C24.4943 12.4239 24.3464 12.4698 24.195 12.47V12.47Z" fill="#FAEE47"/>
<path d="M16.4825 12.8025C16.42 12.8025 16.3575 12.795 16.295 12.78C16.1024 12.7305 15.9374 12.6066 15.8361 12.4355C15.7349 12.2644 15.7057 12.0601 15.755 11.8675L16.2225 10.0375C16.272 9.84492 16.3959 9.67986 16.567 9.5786C16.7381 9.47734 16.9424 9.44817 17.135 9.4975C17.3276 9.54695 17.4927 9.67085 17.5939 9.84196C17.6952 10.0131 17.7243 10.2174 17.675 10.41L17.2075 12.24C17.1664 12.401 17.0728 12.5438 16.9415 12.6456C16.8102 12.7475 16.6487 12.8027 16.4825 12.8025V12.8025Z" fill="#F8455E"/>
<path d="M10.045 17.2825C9.77 17.2825 9.5075 17.1325 9.375 16.87C9.33059 16.782 9.30395 16.6862 9.29663 16.5879C9.2893 16.4896 9.30143 16.3909 9.33231 16.2973C9.3632 16.2037 9.41223 16.1171 9.47661 16.0425C9.54099 15.9679 9.61945 15.9068 9.7075 15.8625L12.365 14.525C12.735 14.3375 13.185 14.4875 13.3725 14.8575C13.56 15.2275 13.41 15.6775 13.04 15.865L10.3825 17.2025C10.275 17.255 10.16 17.2825 10.045 17.2825V17.2825Z" fill="#3DC4AC"/>
</g>
<defs>
<clipPath id="clip0_9_430">
<rect width="50" height="50" fill="white"/>
</clipPath>
</defs>
</svg>
