<svg width="50" height="50" viewBox="0 0 50 50" fill="none" xmlns="http://www.w3.org/2000/svg">
<g clip-path="url(#clip0_8_184)">
<path d="M6.83252 12.115C6.83252 14.1273 7.63191 16.0572 9.05485 17.4802C10.4778 18.9031 12.4077 19.7025 14.42 19.7025C16.4323 19.7025 18.3623 18.9031 19.7852 17.4802C21.2081 16.0572 22.0075 14.1273 22.0075 12.115C22.0075 10.1027 21.2081 8.17276 19.7852 6.74982C18.3623 5.32689 16.4323 4.5275 14.42 4.5275C12.4077 4.5275 10.4778 5.32689 9.05485 6.74982C7.63191 8.17276 6.83252 10.1027 6.83252 12.115V12.115Z" fill="#FFA750"/>
<path d="M15.955 23.3625C15.955 23.3625 15.4125 33.2875 23.2625 35.555C25.88 36.065 26.4225 35.875 26.4225 35.875C26.4225 35.875 35.4225 35.525 36.7625 23.03C36.235 22.695 36.55 21.4175 34.47 22.6C32.87 23.4925 31.8625 23.4175 30.57 22.7525C29.2775 22.0875 28.8475 22.44 27.9525 23.015C27.06 23.59 24.365 23.6025 23.325 22.7525C22.285 21.9025 20.895 21.9575 19.91 22.505C18.925 23.0525 17.9975 24.415 15.955 23.3625Z" fill="#FF927C"/>
<path d="M47.3075 6.4425C47.1382 6.01243 46.8081 5.66518 46.3872 5.47431C45.9662 5.28344 45.4875 5.26396 45.0525 5.42L33.45 9.53749C33.31 9.58749 33.1875 9.67749 33.1 9.79749L30.5975 13.165H22.85C22.9525 12.605 23.01 12.03 23.01 11.4425C23.01 6.1975 18.7425 1.9325 13.5 1.9325C8.28247 1.9325 4.03497 6.1575 3.99247 11.365C3.97997 11.4175 3.97247 11.4725 3.97247 11.5275C3.97247 11.59 3.98247 11.6475 3.99497 11.705C4.12497 16.4625 7.76247 20.355 12.4075 20.89C12.3125 24.475 12.8775 27.555 14.085 30.055C15.745 33.49 18.5775 35.7425 22.515 36.7625V43.045C16.265 43.525 14.4925 45.95 14.4175 46.055C14.2575 46.285 14.2375 46.5825 14.365 46.8325C14.4283 46.9542 14.5238 47.0563 14.641 47.1277C14.7582 47.1991 14.8927 47.237 15.03 47.2375H34.8025C34.9326 47.2374 35.0605 47.2035 35.1736 47.139C35.2866 47.0745 35.381 46.9817 35.4473 46.8697C35.5136 46.7577 35.5497 46.6304 35.5519 46.5003C35.5541 46.3702 35.5224 46.2417 35.46 46.1275C35.3075 45.85 33.815 43.4725 27.0475 43.03V36.79C30.5675 36.1525 33.425 34.1825 35.3425 31.06C38.19 26.425 38.7375 19.4375 36.7075 13.6675C36.6025 13.3675 36.3175 13.1675 36 13.1675H34.9775L35.4625 12.5075L46.235 8.7875C46.6925 8.63 47.0725 8.2875 47.275 7.845C47.4725 7.4025 47.485 6.8925 47.3075 6.4425V6.4425ZM31.35 14.665H32.015L25.965 22.9175C25.8875 22.9275 25.81 22.935 25.73 22.9375C25.5575 22.9425 25.3975 22.925 25.2425 22.8875L31.35 14.665V14.665ZM20.5525 7.6475C21.0625 8.5925 21.3875 9.65249 21.48 10.775H15.925L20.5525 7.6475ZM17.2875 18.4875L15.145 13.505L19.715 16.4775C19.045 17.3025 18.2175 17.9825 17.2875 18.4875ZM16.005 12.275H21.465C21.4125 12.775 21.3125 13.26 21.175 13.7275C21.1175 13.9175 21.055 14.105 20.985 14.2875C20.975 14.3175 20.9625 14.345 20.95 14.375C20.8325 14.67 20.695 14.955 20.5475 15.23L16.005 12.275ZM19.7175 6.4025L14.8675 9.6825L16.6875 4.095C17.8725 4.6125 18.9125 5.4075 19.7175 6.4025ZM15.26 3.6275L13.38 9.39999L10.9875 3.835C11.7775 3.5725 12.62 3.4275 13.4975 3.4275C14.1025 3.43 14.6925 3.5 15.26 3.6275V3.6275ZM9.61497 4.44L11.81 9.54499L7.17497 6.53C7.83747 5.68 8.66747 4.9675 9.61497 4.44V4.44ZM6.36997 7.795L10.95 10.775H5.51747C5.60497 9.70999 5.90247 8.7025 6.36997 7.795V7.795ZM6.50247 15.335C5.98747 14.41 5.64747 13.375 5.53247 12.275H11.03L6.50247 15.335V15.335ZM7.35247 16.5725L12.0875 13.37L10.3225 18.7925C9.16497 18.2925 8.14997 17.525 7.35247 16.5725ZM13.215 19.445H13.21C12.71 19.4275 12.22 19.3625 11.7475 19.2575L13.5725 13.65L15.905 19.0725C15.3205 19.2591 14.7166 19.3783 14.105 19.4275C13.905 19.4425 13.7025 19.4525 13.5 19.4525C13.4025 19.4525 13.31 19.4475 13.215 19.445V19.445ZM35.46 14.665C37.1475 19.9275 36.605 26.135 34.0625 30.2725C32.2475 33.2275 29.6 34.955 26.1975 35.4025C25.825 35.4525 25.545 35.77 25.545 36.145V43.7375C25.545 44.14 25.8625 44.47 26.2625 44.4875C29.4475 44.6225 31.4025 45.19 32.5675 45.7325H17.4C18.5775 45.19 20.4475 44.6375 23.3025 44.4925C23.4948 44.4829 23.6761 44.3996 23.8087 44.26C23.9414 44.1204 24.0152 43.9351 24.015 43.7425V36.165C24.015 35.8125 23.77 35.51 23.4275 35.4325C15.38 33.6475 13.7625 26.72 13.9075 20.94C13.9175 20.94 13.925 20.9375 13.935 20.9375C14.1765 20.9258 14.4175 20.905 14.6575 20.875C17.5225 20.525 19.995 18.8975 21.4925 16.5825C21.5 16.57 21.51 16.555 21.5175 16.5425C21.7551 16.1711 21.9665 15.7834 22.15 15.3825C22.1675 15.345 22.1825 15.31 22.2 15.2725C22.2875 15.075 22.37 14.8725 22.445 14.6675C22.445 14.665 22.4475 14.6625 22.4475 14.66H29.485L24.025 22.0125C23.3875 21.435 22.615 21.1075 21.7625 21.065C20.755 21.0125 19.72 21.38 19 22.045C17.5375 23.3925 16.3175 22.4675 16.1775 22.3525C16.0265 22.2245 15.8309 22.1616 15.6337 22.1776C15.4364 22.1935 15.2535 22.287 15.125 22.4375C15.0607 22.5121 15.0117 22.5987 14.981 22.6923C14.9502 22.7859 14.9382 22.8846 14.9456 22.9828C14.953 23.0811 14.9798 23.1769 15.0243 23.2648C15.0688 23.3526 15.1302 23.4309 15.205 23.495C16 24.1775 18.0275 24.985 20.0175 23.1475C20.4425 22.7575 21.08 22.53 21.6875 22.5625C22.0975 22.5825 22.695 22.7325 23.2225 23.3275C23.32 23.4375 23.4225 23.535 23.5275 23.63C23.5425 23.6475 23.555 23.6675 23.5725 23.685C24.2175 24.34 25.1325 24.4525 25.685 24.4525C25.7925 24.4525 25.8875 24.4475 25.9625 24.4425C26.265 24.42 26.4775 24.37 26.6325 24.3075C27.3825 24.1075 28.08 23.695 28.5075 23.16C28.67 22.9575 29.09 22.8225 29.5775 22.8225H29.59C30.2425 22.8225 30.715 23.0425 30.8425 23.1975C31.2775 23.73 32.0075 24.0025 32.845 23.945C33.8025 23.8775 34.6725 23.3825 35.115 22.65C35.33 22.295 35.215 21.835 34.86 21.62C34.505 21.405 34.045 21.52 33.83 21.875C33.6375 22.1925 33.21 22.4175 32.74 22.45C32.3675 22.4775 32.1025 22.37 32.0075 22.2525C31.45 21.5675 30.395 21.325 29.59 21.325H29.5725C29.36 21.325 29.155 21.345 28.96 21.3775L33.8775 14.67H35.46V14.665ZM45.9075 7.2175C45.8875 7.2575 45.8425 7.3325 45.7425 7.3675L34.7475 11.1625C34.6025 11.2125 34.4775 11.305 34.3875 11.4275L33.115 13.1625H32.465L34.1675 10.8725L45.555 6.83C45.7 6.7775 45.8575 6.85 45.9125 6.9925C45.9525 7.0925 45.925 7.1775 45.9075 7.2175V7.2175Z" fill="#333333"/>
</g>
<defs>
<clipPath id="clip0_8_184">
<rect width="50" height="50" fill="white"/>
</clipPath>
</defs>
</svg>
