<svg width="50" height="50" viewBox="0 0 50 50" fill="none" xmlns="http://www.w3.org/2000/svg">
<g clip-path="url(#clip0_10_1043)">
<path d="M43.475 18.3225C43.4587 18.29 43.451 18.2538 43.4528 18.2174C43.4545 18.1811 43.4656 18.1458 43.485 18.115C44.2025 16.9775 44.905 15.2525 44.665 13.0525C44.2975 10.26 43.96 8.62 43.8425 8.085C43.8306 8.03185 43.7989 7.98522 43.7538 7.95457C43.7088 7.92393 43.6538 7.91157 43.6 7.92L39.3725 8.53C39.3675 8.53 39.365 8.53 39.36 8.5325C39.2325 8.5425 37.1075 8.725 35.5375 9.8725C35.47 9.9225 35.3825 9.93 35.31 9.89C34.3487 9.37366 33.345 8.94042 32.31 8.595C32.0325 8.5025 31.885 8.2025 31.99 7.93L32.0225 7.8425C32.2025 7.375 31.8575 6.875 31.3575 6.875H21.285C20.775 6.875 20.43 7.3925 20.6275 7.8625C20.7425 8.14 20.595 8.4525 20.3075 8.545C19.2427 8.88919 18.2103 9.32672 17.2225 9.8525C17.15 9.89 17.065 9.8825 17 9.8375C15.4375 8.725 13.3575 8.5475 13.23 8.5375C13.225 8.5375 13.2225 8.5375 13.2175 8.535L8.98998 7.925C8.93623 7.91705 8.88146 7.92961 8.83653 7.96018C8.79161 7.99074 8.75982 8.03708 8.74748 8.09C8.62998 8.625 8.29248 10.265 7.92498 13.0575C7.69248 15.1825 8.34248 16.865 9.03248 18.005C9.06998 18.0675 9.07498 18.145 9.03998 18.21C7.73349 20.8004 7.03333 23.6541 6.99248 26.555C6.92748 30.81 8.27498 34.78 10.6 38.0175C10.625 38.0525 10.6375 38.0925 10.64 38.1325L10.915 45.42C10.9218 45.5992 10.9978 45.7687 11.1268 45.8932C11.2559 46.0176 11.4282 46.0872 11.6075 46.0875H12.925C13.1875 46.0875 13.43 45.9375 13.5475 45.7025L14.855 43.14C14.9125 43.025 16.145 43.2075 16.2525 43.275C19.0375 44.9825 22.2875 46.0025 25.7625 46.085C29.6275 46.1775 33.2375 45.125 36.2875 43.2475C36.395 43.18 36.5375 43.22 36.595 43.335L37.77 45.705C37.8875 45.9425 38.1275 46.09 38.3925 46.09H40.9475C41.1269 46.0901 41.2994 46.0206 41.4285 45.8961C41.5577 45.7716 41.6335 45.6018 41.64 45.4225L41.92 38.0375C41.9225 37.9975 41.935 37.9575 41.9575 37.9225C44.165 34.79 45.4675 30.9725 45.4675 26.85C45.4675 23.785 44.7475 20.8925 43.475 18.3225ZM25.7575 36.64C21.72 36.64 17.6475 33.8125 17.6475 29.775C17.6475 25.7375 21.27 21.335 25.3075 21.335C29.345 21.335 33.16 25.1725 33.16 29.21C33.16 33.2475 29.795 36.64 25.7575 36.64Z" fill="#FFA750"/>
<path d="M40.73 46.835H38.05C37.485 46.835 36.9775 46.52 36.7275 46.0125L35.7475 44.0375C32.4275 45.955 28.6525 46.9175 24.8 46.8275C21.3475 46.745 17.955 45.7925 14.9525 44.065L13.9875 46.0125C13.7375 46.52 13.23 46.8325 12.665 46.8325H9.98504C9.18754 46.8325 8.54004 46.2075 8.51004 45.41L8.22754 37.9325C5.65754 34.295 4.33254 30.035 4.40004 25.6025C4.44754 22.515 5.15254 19.5525 6.49754 16.79C5.81254 15.5775 5.12504 13.72 5.38004 11.3875C5.76754 8.45 6.12004 6.7125 6.25504 6.1025C6.30913 5.86249 6.45151 5.65161 6.65391 5.51174C6.85631 5.37186 7.10391 5.31324 7.34754 5.3475L11.7625 5.985C12.085 6.0125 14.1075 6.2225 15.7975 7.3C16.7225 6.8275 17.6875 6.4225 18.67 6.0925C18.57 5.69 18.6425 5.26 18.8775 4.9075C19.0143 4.70194 19.1997 4.53342 19.4174 4.41695C19.6351 4.30048 19.8782 4.23969 20.125 4.24H30.68C31.1725 4.24 31.635 4.4825 31.915 4.89C32.0401 5.07184 32.1234 5.27914 32.1589 5.49701C32.1943 5.71487 32.1811 5.93787 32.12 6.15C33.065 6.475 33.995 6.875 34.8925 7.34C36.595 6.2275 38.66 6.0125 38.9875 5.985L43.4025 5.3475C43.9075 5.275 44.3875 5.6075 44.495 6.1025C44.63 6.71 44.9825 8.44 45.37 11.3725C45.635 13.785 44.905 15.685 44.18 16.92C45.5325 19.745 46.2175 22.7725 46.2175 25.9225C46.2175 30.205 44.93 34.3175 42.4925 37.8275L42.205 45.41C42.175 46.21 41.525 46.835 40.73 46.835ZM35.9675 42.3225C36.0575 42.3225 36.1475 42.335 36.2375 42.36C36.5 42.435 36.72 42.62 36.8425 42.865L38.0725 45.3475L40.7075 45.335L41 37.62C41.0075 37.4325 41.0675 37.2525 41.175 37.0975C43.4925 33.8125 44.7175 29.95 44.7175 25.925C44.7175 22.91 44.0425 20.0175 42.71 17.3275C42.5575 17.0225 42.575 16.6675 42.7575 16.3775C43.4 15.3575 44.1175 13.6925 43.8825 11.555C43.58 9.2625 43.3 7.7275 43.1325 6.905L39.19 7.475C39.1775 7.4775 39.1525 7.48 39.14 7.48C39.04 7.4875 36.985 7.6625 35.5075 8.7425C35.205 8.9625 34.7975 8.9925 34.47 8.815C33.5008 8.2938 32.4888 7.85638 31.445 7.5075C31.2792 7.4519 31.1262 7.36349 30.9952 7.24753C30.8642 7.13156 30.7578 6.99042 30.6825 6.8325C30.5325 6.515 30.52 6.1575 30.645 5.8275L30.68 5.735L20.1275 5.74C20.2675 6.065 20.2625 6.44 20.1125 6.7625C20.0377 6.925 19.9299 7.07021 19.7961 7.18897C19.6623 7.30773 19.5053 7.39746 19.335 7.4525C18.2614 7.80089 17.22 8.24171 16.2225 8.77C16.0631 8.85482 15.8831 8.89344 15.7029 8.88152C15.5227 8.86959 15.3494 8.80759 15.2025 8.7025C13.7275 7.6525 11.715 7.4825 11.63 7.4775C11.6125 7.475 11.58 7.4725 11.5625 7.47L7.62254 6.9025C7.45504 7.725 7.17504 9.265 6.87254 11.5675C6.69004 13.2225 7.04504 14.8075 7.93004 16.2625C8.10504 16.5525 8.12004 16.9025 7.96754 17.205C6.64254 19.835 5.94754 22.6675 5.90254 25.6225C5.84004 29.7825 7.09754 33.7825 9.54004 37.185C9.65254 37.34 9.71504 37.5225 9.72254 37.715L10.01 45.33H12.6675L13.865 42.89C13.985 42.645 14.205 42.4625 14.4675 42.385C14.73 42.31 15.015 42.3475 15.25 42.4925C18.145 44.265 21.46 45.245 24.84 45.325C28.595 45.4125 32.27 44.425 35.4575 42.4625C35.61 42.3725 35.7875 42.3225 35.9675 42.3225ZM14.46 43.775C14.4625 43.775 14.4625 43.775 14.46 43.775C14.4625 43.775 14.4625 43.775 14.46 43.775ZM44.0525 16.66C44.0525 16.66 44.0525 16.6625 44.0525 16.66C44.0525 16.6625 44.0525 16.66 44.0525 16.66Z" fill="#333333"/>
<path d="M19.3875 29.865C19.3875 30.7567 19.5631 31.6396 19.9043 32.4634C20.2455 33.2872 20.7457 34.0357 21.3762 34.6663C22.0067 35.2968 22.7552 35.7969 23.579 36.1381C24.4028 36.4794 25.2858 36.655 26.1774 36.655C27.0691 36.655 27.9521 36.4794 28.7759 36.1381C29.5997 35.7969 30.3482 35.2968 30.9787 34.6663C31.6092 34.0357 32.1094 33.2872 32.4506 32.4634C32.7918 31.6396 32.9675 30.7567 32.9675 29.865C32.9675 28.0642 32.2521 26.3371 30.9787 25.0637C29.7053 23.7904 27.9783 23.075 26.1774 23.075C24.3766 23.075 22.6496 23.7904 21.3762 25.0637C20.1028 26.3371 19.3875 28.0642 19.3875 29.865Z" fill="#FF917B"/>
<path d="M25.3075 37.405C20.67 37.405 16.8975 33.6325 16.8975 28.995C16.8975 24.3575 20.67 20.585 25.3075 20.585C29.945 20.585 33.7175 24.3575 33.7175 28.995C33.7175 33.6325 29.945 37.405 25.3075 37.405ZM25.3075 22.085C21.4975 22.085 18.3975 25.185 18.3975 28.995C18.3975 32.805 21.4975 35.905 25.3075 35.905C29.1175 35.905 32.2175 32.805 32.2175 28.995C32.2175 25.185 29.1175 22.085 25.3075 22.085Z" fill="#333333"/>
<path d="M22.0525 30.7825C20.925 30.7825 20.01 29.865 20.01 28.74C20.01 27.6125 20.9275 26.6975 22.0525 26.6975C23.1775 26.6975 24.095 27.615 24.095 28.74C24.095 29.865 23.1775 30.7825 22.0525 30.7825ZM22.0525 28.1975C21.7525 28.1975 21.51 28.44 21.51 28.74C21.51 29.04 21.7525 29.2825 22.0525 29.2825C22.3525 29.2825 22.595 29.04 22.595 28.74C22.595 28.44 22.35 28.1975 22.0525 28.1975ZM28.785 30.7825C27.66 30.7825 26.7425 29.865 26.7425 28.74C26.7425 27.6125 27.66 26.6975 28.785 26.6975C29.91 26.6975 30.8275 27.615 30.8275 28.74C30.8275 29.865 29.9125 30.7825 28.785 30.7825ZM28.785 28.1975C28.485 28.1975 28.2425 28.44 28.2425 28.74C28.2425 29.04 28.485 29.2825 28.785 29.2825C29.085 29.2825 29.3275 29.04 29.3275 28.74C29.3275 28.44 29.085 28.1975 28.785 28.1975ZM20.6475 19.34C20.2325 19.34 19.8975 19.005 19.8975 18.59C19.8975 17.3575 18.895 16.355 17.6625 16.355C16.43 16.355 15.4275 17.3575 15.4275 18.59C15.4275 19.005 15.0925 19.34 14.6775 19.34C14.2625 19.34 13.9275 19.005 13.9275 18.59C13.9275 16.53 15.6025 14.855 17.6625 14.855C19.7225 14.855 21.3975 16.53 21.3975 18.59C21.3975 19.005 21.0625 19.34 20.6475 19.34ZM36.1425 19.34C35.7275 19.34 35.3925 19.005 35.3925 18.59C35.3925 17.3575 34.39 16.355 33.1575 16.355C31.925 16.355 30.9225 17.3575 30.9225 18.59C30.9225 19.005 30.5875 19.34 30.1725 19.34C29.7575 19.34 29.4225 19.005 29.4225 18.59C29.4225 16.53 31.0975 14.855 33.1575 14.855C35.2175 14.855 36.8925 16.53 36.8925 18.59C36.8925 19.005 36.5575 19.34 36.1425 19.34Z" fill="#333333"/>
</g>
<defs>
<clipPath id="clip0_10_1043">
<rect width="50" height="50" fill="white"/>
</clipPath>
</defs>
</svg>
