<svg width="50" height="50" viewBox="0 0 50 50" fill="none" xmlns="http://www.w3.org/2000/svg">
<g clip-path="url(#clip0_7_12)">
<path d="M8.48501 26.585C7.70501 26.585 7.07501 27.19 7.07501 27.935V32.3175C7.07501 37.5125 11.1625 41.795 16.425 42.3775C16.5425 42.39 16.635 42.485 16.635 42.6V43.8075C16.635 44.6 17.3075 45.245 18.135 45.245H34.4625C35.2925 45.245 35.9625 44.6025 35.9625 43.8075V42.6C35.9625 42.485 36.0525 42.3925 36.1725 42.3775C41.4375 41.795 45.5225 37.5125 45.5225 32.3175V27.935C45.5225 27.19 44.89 26.585 44.1125 26.585H8.48501Z" fill="#BC9BE0"/>
<path d="M7.53751 9.9325L5.41751 9.9625C4.98751 9.9675 4.64001 10.3825 4.64001 10.8925C4.64001 11.4025 4.98501 11.8175 5.41751 11.8225L7.53751 11.8525V9.9325ZM45.04 9.3925L26.4325 9.66V12.125L45.04 12.3925C45.4775 12.4 45.835 11.98 45.835 11.4625V10.325C45.835 9.805 45.4775 9.3875 45.04 9.3925ZM7.53751 15.73L5.41751 15.76C4.98751 15.765 4.64001 16.18 4.64001 16.69C4.64001 17.2 4.98501 17.615 5.41751 17.62L7.53751 17.65V15.73ZM45.04 15.19L26.4325 15.4575V17.9225L45.04 18.19C45.4775 18.1975 45.835 17.7775 45.835 17.26V16.1225C45.835 15.6025 45.4775 15.185 45.04 15.19V15.19Z" fill="#FFA750"/>
<path d="M7.53752 12.605H7.52752L5.40752 12.575C4.55752 12.5625 3.89252 11.825 3.89252 10.895C3.89252 9.965 4.55752 9.2275 5.40752 9.215L7.52752 9.185C7.73002 9.1875 7.92252 9.26 8.06502 9.4C8.20752 9.54 8.28752 9.7325 8.28752 9.935V11.8575C8.28752 12.0575 8.20752 12.25 8.06502 12.3925C7.92252 12.5275 7.73502 12.605 7.53752 12.605ZM5.45002 11.075L6.78752 11.095V10.695L5.45002 10.715C5.42752 10.735 5.39002 10.7975 5.39002 10.895C5.39002 10.9925 5.43002 11.0525 5.45002 11.075V11.075ZM45.05 13.1425H45.03L26.4225 12.875C26.2253 12.8724 26.0371 12.7922 25.8986 12.6518C25.7601 12.5115 25.6825 12.3222 25.6825 12.125V9.66C25.6825 9.46281 25.7601 9.27354 25.8986 9.13318C26.0371 8.99281 26.2253 8.91263 26.4225 8.91L45.03 8.6425C45.415 8.64 45.7925 8.79 46.08 9.0725C46.4025 9.39 46.5875 9.845 46.5875 10.3225V11.46C46.5875 11.9375 46.4025 12.3925 46.08 12.71C45.795 12.9925 45.43 13.1425 45.05 13.1425V13.1425ZM27.18 11.3875L45.025 11.645C45.0475 11.6225 45.0825 11.5625 45.0825 11.465V10.325C45.0825 10.2275 45.045 10.1675 45.025 10.145L27.18 10.4025V11.3875ZM7.53752 18.4025H7.52752L5.40752 18.3725C4.57252 18.36 3.89252 17.6075 3.89252 16.6925C3.89252 15.7775 4.57252 15.025 5.40752 15.0125L7.52752 14.9825C7.73002 14.98 7.92252 15.0575 8.06502 15.1975C8.20752 15.3375 8.28752 15.53 8.28752 15.7325V17.655C8.28752 17.855 8.20752 18.0475 8.06502 18.19C7.92252 18.325 7.73502 18.4025 7.53752 18.4025V18.4025ZM5.45002 16.8725L6.78752 16.8925V16.4925L5.45002 16.5125C5.43002 16.535 5.39002 16.595 5.39002 16.6925C5.39002 16.7875 5.43002 16.85 5.45002 16.8725ZM45.05 18.94H45.03L26.4225 18.6725C26.2253 18.6699 26.0371 18.5897 25.8986 18.4493C25.7601 18.309 25.6825 18.1197 25.6825 17.9225V15.4575C25.6825 15.2603 25.7601 15.071 25.8986 14.9307C26.0371 14.7903 26.2253 14.7101 26.4225 14.7075L45.03 14.44C45.415 14.435 45.7925 14.5875 46.08 14.87C46.4025 15.1875 46.5875 15.6425 46.5875 16.12V17.2575C46.5875 17.735 46.4025 18.19 46.08 18.5075C45.795 18.7875 45.43 18.94 45.05 18.94V18.94ZM27.18 17.185L45.025 17.4425C45.0475 17.42 45.0825 17.36 45.0825 17.2625V16.125C45.0825 16.0275 45.045 15.9675 45.025 15.945L27.18 16.2025V17.185Z" fill="#333333"/>
<path d="M25.92 4.6375V6.8725C25.92 6.8725 24.0475 7.32 24.0475 9.235V24.5225H21.7075V8.66C21.7075 8.66 21.58 4.6375 25.92 4.6375ZM19.905 4.6375V6.8725C19.905 6.8725 18.0325 7.32 18.0325 9.235V24.5225H15.6925V8.66C15.6925 8.66 15.565 4.6375 19.905 4.6375ZM13.935 4.6375V6.8725C13.935 6.8725 12.0625 7.32 12.0625 9.235V24.5225H9.72252V8.66C9.72252 8.66 9.59252 4.6375 13.935 4.6375Z" fill="#FEEE7D"/>
<path d="M44.025 23.7725H24.8V9.235C24.8 7.9725 25.97 7.635 26.0975 7.6025C26.435 7.5225 26.6725 7.22 26.6725 6.8725V4.6375C26.6725 4.2225 26.3375 3.8875 25.9225 3.8875C24.375 3.8875 23.145 4.345 22.27 5.25C20.9125 6.6525 20.9575 8.6 20.96 8.6575V23.77H18.785V9.235C18.785 7.9725 19.955 7.635 20.0825 7.6025C20.42 7.5225 20.6575 7.22 20.6575 6.8725V4.6375C20.6575 4.2225 20.3225 3.8875 19.9075 3.8875C18.36 3.8875 17.13 4.345 16.255 5.25C14.8975 6.6525 14.9425 8.6 14.945 8.6575V23.77H12.815V9.235C12.815 7.9725 13.985 7.635 14.1125 7.6025C14.45 7.5225 14.6875 7.22 14.6875 6.8725V4.6375C14.6875 4.2225 14.3525 3.8875 13.9375 3.8875C12.39 3.8875 11.16 4.345 10.285 5.25C8.92752 6.65 8.97252 8.6 8.97502 8.6575V23.77H6.14001C4.90001 23.77 3.89001 24.78 3.89001 26.02V30.8875C3.89001 36.8325 8.22752 41.855 14.055 42.7475V43.65C14.055 44.9425 15.1075 45.995 16.4 45.995H33.7625C35.055 45.995 36.1075 44.9425 36.1075 43.65V42.7475C41.9325 41.855 46.2725 36.8325 46.2725 30.8875V26.02C46.275 24.78 45.265 23.7725 44.025 23.7725V23.7725ZM22.4575 8.64C22.4575 8.625 22.4375 7.2225 23.3525 6.2875C23.7975 5.8325 24.4075 5.5475 25.17 5.44V6.35C24.325 6.7475 23.2975 7.645 23.2975 9.235V23.7725H22.4575V8.64ZM16.4425 8.64C16.4425 8.625 16.4225 7.2225 17.3375 6.2875C17.7825 5.8325 18.3925 5.5475 19.155 5.44V6.35C18.31 6.7475 17.2825 7.645 17.2825 9.235V23.7725H16.4425V8.64V8.64ZM10.47 8.635C10.47 8.62 10.4525 7.23 11.3575 6.295C11.805 5.835 12.415 5.5475 13.1825 5.4375V6.3475C12.3375 6.745 11.31 7.6425 11.31 9.2325V23.77H10.47V8.635V8.635ZM44.775 30.8875C44.775 36.22 40.785 40.7025 35.4975 41.315C35.2536 41.3427 35.0284 41.4592 34.8647 41.6422C34.7011 41.8252 34.6104 42.062 34.61 42.3075V43.6475C34.61 44.115 34.23 44.4925 33.765 44.4925H16.4025C15.935 44.4925 15.5575 44.1125 15.5575 43.6475V42.3075C15.5575 41.8 15.175 41.3725 14.6725 41.315C9.38251 40.7025 5.39251 36.22 5.39251 30.8875V26.02C5.39251 25.6075 5.73001 25.27 6.14251 25.27H44.0225C44.435 25.27 44.7725 25.6075 44.7725 26.02V30.8875H44.775Z" fill="#333333"/>
</g>
<defs>
<clipPath id="clip0_7_12">
<rect width="50" height="50" fill="white"/>
</clipPath>
</defs>
</svg>
