<svg width="50" height="50" viewBox="0 0 50 50" fill="none" xmlns="http://www.w3.org/2000/svg">
<g clip-path="url(#clip0_8_307)">
<path d="M47.81 36.6575L44.785 20.0525C44.335 17.58 42.1675 15.78 39.64 15.78H12.265C9.7375 15.78 7.5725 17.5775 7.12 20.0525L4.13 36.4625C3.5525 39.6375 5.515 42.7225 8.65 43.5625C11.9525 44.4475 14.03 42.1575 14.955 38.8825L15.8675 36.21C16.12 35.3175 16.325 34.135 17.12 33.74C17.0825 33.545 17.0625 33.3475 17.0625 33.1425C17.0625 32.7 17.195 32.2575 17.42 31.84C16.5625 32.165 15.6375 32.345 14.6675 32.345C10.37 32.345 6.885 28.86 6.885 24.5625C6.885 20.265 10.37 16.78 14.6675 16.78C18.965 16.78 22.45 20.265 22.45 24.5625C22.45 26.46 21.77 28.1975 20.6425 29.5475C19.37 29.585 18.275 30.3175 17.7175 31.38C18.4925 30.3325 19.8275 29.5425 21.0125 29.5425C22.81 29.5425 24.51 31.66 24.51 33.4475C24.51 33.535 24.5025 33.62 24.4975 33.705L27.1 33.74C27.0925 33.655 27.0875 33.57 27.0875 33.4825C27.0875 31.695 28.2475 29.805 30.045 29.805C31.11 29.805 32.4275 30.4875 33.33 31.4125C32.765 30.305 31.6175 29.545 30.29 29.545C29.985 29.545 29.6925 29.5875 29.4125 29.6625C28.1802 28.2495 27.5024 26.4374 27.505 24.5625C27.505 20.265 30.99 16.78 35.2875 16.78C39.585 16.78 43.07 20.265 43.07 24.5625C43.07 28.86 39.585 32.345 35.2875 32.345C34.84 32.345 34.4 32.305 33.9725 32.2325C34.225 32.655 34.3775 33.0975 34.3775 33.5325C34.3775 33.8875 34.3175 34.23 34.21 34.55C34.7575 35.01 35.1525 35.6525 35.295 36.395L35.775 38.8875C36.4325 42.3025 39.8225 44.4775 43.2225 43.665C46.375 42.9075 48.39 39.835 47.81 36.6575V36.6575Z" fill="#53ECF4"/>
<path d="M18.5575 33.58C18.5575 34.3226 18.8525 35.0348 19.3776 35.5599C19.9027 36.085 20.6149 36.38 21.3575 36.38C22.1001 36.38 22.8123 36.085 23.3374 35.5599C23.8625 35.0348 24.1575 34.3226 24.1575 33.58C24.1575 32.8374 23.8625 32.1252 23.3374 31.6001C22.8123 31.075 22.1001 30.78 21.3575 30.78C20.6149 30.78 19.9027 31.075 19.3776 31.6001C18.8525 32.1252 18.5575 32.8374 18.5575 33.58Z" fill="#BC9BE0"/>
<path d="M28.1025 33.58C28.1025 34.3226 28.3975 35.0348 28.9226 35.5599C29.4477 36.085 30.1599 36.38 30.9025 36.38C31.6451 36.38 32.3573 36.085 32.8824 35.5599C33.4075 35.0348 33.7025 34.3226 33.7025 33.58C33.7025 32.8374 33.4075 32.1252 32.8824 31.6001C32.3573 31.075 31.6451 30.78 30.9025 30.78C30.1599 30.78 29.4477 31.075 28.9226 31.6001C28.3975 32.1252 28.1025 32.8374 28.1025 33.58Z" fill="#BC9BE0"/>
<path d="M36.015 18.2475C32.1225 18.2475 28.965 21.4025 28.965 25.2975C28.965 27.065 29.6175 28.68 30.6925 29.9175C30.9475 29.85 31.2125 29.81 31.4875 29.81C32.9475 29.81 34.1675 30.8225 34.4925 32.18C34.9825 32.2875 35.49 32.3475 36.0125 32.3475C39.905 32.3475 43.0625 29.1925 43.0625 25.2975C43.065 21.405 39.9075 18.2475 36.015 18.2475Z" fill="#FBC07C"/>
<path d="M35.2825 23.305C34.095 23.305 33.1275 22.3375 33.1275 21.15C33.1275 19.9625 34.095 18.995 35.2825 18.995C36.4725 18.995 37.44 19.9625 37.44 21.15C37.44 22.3375 36.4725 23.305 35.2825 23.305V23.305ZM35.2825 20.4925C34.92 20.4925 34.6275 20.7875 34.6275 21.1475C34.6275 21.5075 34.9225 21.8025 35.2825 21.8025C35.6425 21.8025 35.94 21.5075 35.94 21.1475C35.94 20.7875 35.645 20.4925 35.2825 20.4925ZM35.2825 29.9275C34.1425 29.9275 33.2125 29 33.2125 27.8575C33.2125 26.715 34.14 25.7875 35.2825 25.7875C36.4225 25.7875 37.3525 26.715 37.3525 27.8575C37.3525 29 36.4225 29.9275 35.2825 29.9275ZM35.2825 27.2875C35.1698 27.2875 35.0597 27.321 34.966 27.3836C34.8724 27.4462 34.7994 27.5352 34.7563 27.6393C34.7132 27.7434 34.7019 27.858 34.7239 27.9685C34.7459 28.079 34.8002 28.1805 34.8799 28.2601C34.9595 28.3398 35.061 28.394 35.1715 28.416C35.282 28.438 35.3965 28.4268 35.5006 28.3837C35.6047 28.3406 35.6937 28.2676 35.7564 28.1739C35.819 28.0803 35.8524 27.9702 35.8525 27.8575C35.8525 27.5425 35.5975 27.2875 35.2825 27.2875ZM31.97 26.6375C30.8025 26.6375 29.8525 25.6875 29.8525 24.52C29.8525 23.3525 30.8025 22.4025 31.97 22.4025C33.1375 22.4025 34.0875 23.3525 34.0875 24.52C34.0875 25.6875 33.1375 26.6375 31.97 26.6375ZM31.97 23.9025C31.63 23.9025 31.3525 24.18 31.3525 24.52C31.3525 24.86 31.63 25.1375 31.97 25.1375C32.31 25.1375 32.5875 24.86 32.5875 24.52C32.5875 24.18 32.31 23.9025 31.97 23.9025ZM38.5775 26.6375C37.41 26.6375 36.46 25.6875 36.46 24.52C36.46 23.3525 37.41 22.4025 38.5775 22.4025C39.745 22.4025 40.695 23.3525 40.695 24.52C40.6925 25.6875 39.745 26.6375 38.5775 26.6375ZM38.5775 23.9025C38.2375 23.9025 37.96 24.18 37.96 24.52C37.96 24.86 38.2375 25.1375 38.5775 25.1375C38.9175 25.1375 39.195 24.86 39.195 24.52C39.1925 24.18 38.9175 23.9025 38.5775 23.9025Z" fill="#333333"/>
<path d="M20.81 29.815C21.8705 28.5489 22.4504 26.9491 22.4475 25.2975C22.4475 21.405 19.2925 18.2475 15.3975 18.2475C11.505 18.2475 8.34747 21.4025 8.34747 25.2975C8.34747 29.19 11.5025 32.3475 15.3975 32.3475C16.315 32.3475 17.1875 32.17 17.9925 31.8525C18.415 30.6875 19.51 29.8525 20.81 29.815V29.815Z" fill="#FBC07C"/>
<path d="M14.8 29.585H14.485C13.4875 29.585 12.675 28.7725 12.675 27.775V26.1975H11.0975C10.1 26.1975 9.28748 25.385 9.28748 24.3875V24.0725C9.28748 23.075 10.1 22.2625 11.0975 22.2625H12.675V20.685C12.675 19.6875 13.4875 18.875 14.485 18.875H14.8C15.7975 18.875 16.61 19.6875 16.61 20.685V22.2625H18.1875C19.185 22.2625 19.9975 23.075 19.9975 24.0725V24.3875C19.9975 25.385 19.185 26.1975 18.1875 26.1975H16.61V27.775C16.61 28.7725 15.8 29.585 14.8 29.585V29.585ZM11.0975 23.7625C10.9275 23.7625 10.7875 23.9025 10.7875 24.0725V24.3875C10.7875 24.5575 10.9275 24.6975 11.0975 24.6975H13.425C13.84 24.6975 14.175 25.0325 14.175 25.4475V27.775C14.175 27.945 14.315 28.085 14.485 28.085H14.8C14.97 28.085 15.11 27.945 15.11 27.775V25.4475C15.11 25.0325 15.445 24.6975 15.86 24.6975H18.1875C18.3575 24.6975 18.4975 24.5575 18.4975 24.3875V24.0725C18.4975 23.9025 18.3575 23.7625 18.1875 23.7625H15.86C15.445 23.7625 15.11 23.4275 15.11 23.0125V20.685C15.11 20.515 14.97 20.375 14.8 20.375H14.485C14.315 20.375 14.175 20.515 14.175 20.685V23.0125C14.175 23.4275 13.84 23.7625 13.425 23.7625H11.0975V23.7625ZM23.6425 18.085H21.63C21.215 18.085 20.88 17.75 20.88 17.335C20.88 16.92 21.215 16.585 21.63 16.585H23.6425C24.0575 16.585 24.3925 16.92 24.3925 17.335C24.3925 17.75 24.0575 18.085 23.6425 18.085ZM28.225 18.085H25.955C25.54 18.085 25.205 17.75 25.205 17.335C25.205 16.92 25.54 16.585 25.955 16.585H28.225C28.64 16.585 28.975 16.92 28.975 17.335C28.975 17.75 28.64 18.085 28.225 18.085Z" fill="#333333"/>
<path d="M48.5425 36.125L45.3675 18.5975C44.83 15.6275 42.2475 13.4725 39.23 13.4725H38.1625V12.5675C38.1625 11.29 37.1225 10.25 35.845 10.25H31.8525C30.575 10.25 29.535 11.29 29.535 12.5675V13.4725H27.1375V12.26C27.1375 11.295 26.505 10.4775 25.6325 10.195V9.80001C25.6325 9.56596 25.7255 9.34149 25.891 9.17599C26.0565 9.01049 26.2809 8.91751 26.515 8.91751H35.655C36.07 8.91751 36.405 8.58251 36.405 8.16751C36.405 7.75251 36.07 7.41751 35.655 7.41751H26.515C25.2025 7.41751 24.1325 8.48501 24.1325 9.80001V10.195C23.26 10.4775 22.6275 11.295 22.6275 12.26V13.4725H20.465V12.5675C20.465 11.29 19.425 10.25 18.1475 10.25H14.155C12.8775 10.25 11.8375 11.29 11.8375 12.5675V13.4725H10.5C7.48249 13.4725 4.9025 15.6275 4.3625 18.5975L1.22499 35.9175C0.554995 39.6225 2.875 43.29 6.5125 44.27C10.3575 45.305 14.3625 43.0275 15.44 39.1925L16.3625 35.9075C16.4805 35.4889 16.7014 35.1065 17.005 34.795C17.685 36.175 19.1025 37.13 20.7425 37.13C22.6875 37.13 24.32 35.79 24.7775 33.985H26.25C26.7075 35.79 28.34 37.13 30.285 37.13C31.6775 37.13 32.91 36.44 33.665 35.39C33.7875 35.62 33.8775 35.8675 33.9275 36.125L34.43 38.755C34.8025 40.7 35.925 42.365 37.59 43.4375C38.7675 44.1975 40.1 44.5875 41.4625 44.5875C42.0275 44.5875 42.595 44.52 43.16 44.385C46.8575 43.495 49.2225 39.8675 48.5425 36.125V36.125ZM31.035 12.57C31.035 12.12 31.4025 11.7525 31.8525 11.7525H35.845C36.295 11.7525 36.6625 12.12 36.6625 12.57V13.475H31.035V12.57V12.57ZM24.1275 12.2625C24.1275 11.8925 24.4275 11.5925 24.7975 11.5925H24.9675C25.3375 11.5925 25.6375 11.8925 25.6375 12.2625V13.475H24.1275V12.2625ZM13.3375 12.57C13.3375 12.12 13.705 11.7525 14.155 11.7525H18.1475C18.5975 11.7525 18.965 12.12 18.965 12.57V13.475H13.3375V12.57V12.57ZM17.2625 30.67C17.21 30.75 17.16 30.8325 17.1125 30.915C17.08 30.975 17.0475 31.035 17.0175 31.0975C16.9975 31.135 16.9775 31.1725 16.96 31.21C16.2217 31.4651 15.4461 31.5953 14.665 31.595C10.7875 31.595 7.63249 28.44 7.63249 24.5625C7.63249 20.685 10.7875 17.53 14.665 17.53C18.5425 17.53 21.6975 20.685 21.6975 24.5625C21.6975 26.1025 21.1875 27.6025 20.2575 28.8225C20.205 28.8275 20.155 28.8375 20.1025 28.845C20.06 28.8525 20.0175 28.8575 19.9775 28.865C19.915 28.8775 19.855 28.89 19.795 28.905C19.73 28.92 19.665 28.9375 19.6 28.955C19.5575 28.9675 19.515 28.9775 19.4725 28.99C19.3625 29.025 19.2575 29.065 19.1525 29.1075C19.13 29.1175 19.105 29.1275 19.0825 29.1375C18.3651 29.4462 17.7504 29.9526 17.31 30.5975C17.295 30.625 17.28 30.6475 17.2625 30.67ZM20.74 35.6275C19.44 35.6275 18.355 34.69 18.1225 33.455V33.4525C18.0916 33.2902 18.0757 33.1253 18.075 32.96C18.0774 32.4663 18.2158 31.9827 18.475 31.5625C18.4875 31.5425 18.5 31.52 18.5125 31.5C18.5325 31.47 18.5525 31.4425 18.5725 31.4125C18.6 31.3725 18.6275 31.335 18.6575 31.2975C18.6725 31.2775 18.69 31.2575 18.705 31.2375C18.75 31.185 18.795 31.135 18.8425 31.085L18.8575 31.07C18.9175 31.01 18.9775 30.955 19.0425 30.9025C19.0425 30.9025 19.045 30.9025 19.045 30.9C19.105 30.8525 19.165 30.805 19.23 30.7625L19.275 30.7325C19.325 30.7 19.3775 30.6675 19.43 30.64C19.45 30.6275 19.47 30.6175 19.49 30.605C19.5945 30.5509 19.7022 30.5033 19.8125 30.4625C19.8375 30.4525 19.86 30.445 19.885 30.435C19.9375 30.4175 19.99 30.4025 20.045 30.3875C20.0575 30.385 20.0675 30.3825 20.08 30.3775C20.2675 30.33 20.4625 30.3025 20.6625 30.2975C20.665 30.2975 20.67 30.295 20.6725 30.295C20.695 30.295 20.7175 30.2925 20.74 30.2925C22.21 30.2925 23.4075 31.4875 23.4075 32.96C23.4075 33.0325 23.4025 33.1025 23.3975 33.1725V33.18C23.2825 34.5475 22.135 35.6275 20.74 35.6275V35.6275ZM30.285 35.6275C28.8875 35.6275 27.7425 34.5475 27.63 33.18V33.1725C27.625 33.1025 27.62 33.0325 27.62 32.96C27.62 31.7275 28.46 30.6925 29.5975 30.3875H29.6025C29.715 30.3575 29.825 30.335 29.935 30.32C29.9425 30.32 29.95 30.3175 29.9575 30.3175C30.1514 30.2913 30.3478 30.2879 30.5425 30.3075C30.5675 30.31 30.59 30.315 30.615 30.3175C30.675 30.325 30.735 30.3325 30.795 30.345L30.87 30.36C30.93 30.3725 30.99 30.3875 31.0475 30.405C31.0675 30.41 31.085 30.4175 31.105 30.4225C31.175 30.445 31.2425 30.47 31.31 30.4975C31.3175 30.5 31.325 30.5025 31.33 30.505C31.645 30.64 31.93 30.8325 32.17 31.0725L32.175 31.0775C32.23 31.1325 32.2825 31.19 32.3325 31.25C32.34 31.2575 32.345 31.265 32.3525 31.2725C32.395 31.325 32.4375 31.3825 32.4775 31.4375C32.4875 31.4525 32.4975 31.465 32.5075 31.48C32.54 31.5275 32.5675 31.5775 32.5975 31.6275C32.7225 31.845 32.8175 32.08 32.88 32.3325C32.9275 32.5325 32.9575 32.74 32.9575 32.955C32.9575 33.0375 32.9525 33.1175 32.945 33.195C32.9425 33.23 32.9375 33.2625 32.9325 33.2975C32.9275 33.34 32.92 33.3825 32.9125 33.4225C32.905 33.465 32.895 33.51 32.885 33.5525C32.8775 33.5825 32.87 33.61 32.8625 33.6375C32.85 33.6875 32.8375 33.735 32.82 33.785C32.465 34.8575 31.465 35.6275 30.285 35.6275V35.6275ZM34.1875 31.51C34.18 31.4875 34.17 31.4675 34.16 31.445C34.1375 31.385 34.1125 31.3275 34.0875 31.27C34.055 31.195 34.0175 31.12 33.98 31.0475C33.965 31.0175 33.95 30.9875 33.935 30.96C33.6491 30.4353 33.2531 29.9786 32.7741 29.6213C32.2951 29.264 31.7445 29.0145 31.16 28.89C31.13 28.8825 31.0975 28.8775 31.0675 28.8725C30.9725 28.855 30.875 28.84 30.7775 28.8275C30.7425 28.8225 30.7075 28.8175 30.6725 28.815C30.4315 28.7903 30.1888 28.7886 29.9475 28.81C29.9225 28.8125 29.8975 28.8125 29.8725 28.815C29.835 28.8175 29.8 28.825 29.7625 28.83L29.7 28.8375C28.7625 27.615 28.25 26.1125 28.25 24.5625C28.25 20.685 31.405 17.53 35.2825 17.53C39.16 17.53 42.315 20.685 42.315 24.5625C42.315 28.44 39.16 31.595 35.2825 31.595C34.9175 31.595 34.5525 31.5675 34.1875 31.51V31.51ZM42.81 42.925C41.285 43.2925 39.7225 43.025 38.405 42.175C37.0875 41.325 36.2 40.01 35.905 38.47L35.4025 35.84C35.2575 35.0775 34.895 34.3675 34.3675 33.8C34.4175 33.5575 34.4425 33.3075 34.4475 33.05C34.725 33.0775 35.005 33.0925 35.2825 33.0925C39.9875 33.0925 43.815 29.265 43.815 24.56C43.815 19.855 39.9875 16.0275 35.2825 16.0275C30.5775 16.0275 26.75 19.86 26.75 24.565C26.75 26.2775 27.2675 27.9425 28.22 29.3475C28.215 29.35 28.2125 29.3525 28.21 29.355C28.1475 29.39 28.085 29.4275 28.025 29.4675L27.8825 29.565C27.825 29.6075 27.7675 29.65 27.71 29.695C27.6088 29.7757 27.5112 29.8608 27.4175 29.95C27.375 29.99 27.335 30.03 27.295 30.07C27.245 30.1225 27.195 30.1775 27.1475 30.23C27.11 30.2725 27.0725 30.315 27.0375 30.3575C26.99 30.415 26.9475 30.475 26.905 30.535C26.8725 30.58 26.84 30.6225 26.81 30.67C26.7675 30.735 26.7275 30.8025 26.6875 30.87C26.6625 30.915 26.635 30.9575 26.61 31.005C26.57 31.08 26.5325 31.16 26.4975 31.2375C26.48 31.2775 26.4575 31.3175 26.4425 31.3575C26.3975 31.4675 26.355 31.58 26.32 31.6925C26.315 31.705 26.31 31.715 26.3075 31.7275C26.2675 31.855 26.235 31.9825 26.2075 32.115C26.2 32.1525 26.195 32.1925 26.19 32.23C26.175 32.315 26.1575 32.4 26.1475 32.485H24.88C24.87 32.3975 24.8525 32.315 24.8375 32.23C24.83 32.1925 24.8275 32.1525 24.82 32.115C24.7925 31.985 24.76 31.855 24.72 31.7275C24.7175 31.715 24.7125 31.705 24.7075 31.6925C24.67 31.5775 24.63 31.4675 24.585 31.3575C24.5675 31.3175 24.5475 31.2775 24.53 31.2375C24.495 31.16 24.4575 31.08 24.4175 31.005C24.3925 30.96 24.365 30.915 24.34 30.87C24.3 30.8025 24.2625 30.735 24.2175 30.67C24.1875 30.625 24.155 30.58 24.1225 30.535C24.0797 30.4748 24.0356 30.4156 23.99 30.3575C23.955 30.3125 23.9175 30.2725 23.88 30.23C23.8325 30.175 23.785 30.12 23.7325 30.07C23.6925 30.03 23.6525 29.99 23.61 29.95C23.5575 29.9 23.505 29.8525 23.45 29.805C23.405 29.7675 23.3625 29.73 23.3175 29.695C23.26 29.65 23.205 29.6075 23.145 29.565L23.0025 29.4675C22.9425 29.4275 22.88 29.39 22.8175 29.355C22.7675 29.325 22.7175 29.2975 22.6675 29.27C22.6025 29.235 22.535 29.205 22.47 29.175C22.4175 29.1525 22.3675 29.1275 22.315 29.105C22.245 29.0775 22.1725 29.0525 22.1025 29.0275C22.0575 29.0125 22.015 28.995 21.97 28.98C22.7758 27.6482 23.2028 26.1216 23.205 24.565C23.205 19.86 19.3775 16.0325 14.6725 16.0325C9.96749 16.0325 6.13499 19.86 6.13499 24.565C6.13499 29.27 9.9625 33.0975 14.6675 33.0975C15.315 33.0975 15.955 33.0225 16.5775 32.88C16.5775 32.9075 16.5725 32.935 16.5725 32.9625C16.5725 33.04 16.575 33.1175 16.58 33.195C15.7706 33.743 15.1809 34.5594 14.915 35.5L13.9925 38.785C13.1375 41.8325 9.95749 43.6425 6.89999 42.82C4.01249 42.0425 2.1675 39.1275 2.7 36.185L5.8375 18.865C6.25 16.61 8.20999 14.9725 10.5 14.9725H39.23C41.5225 14.9725 43.4825 16.61 43.89 18.865L47.065 36.3925C47.605 39.3525 45.7325 42.2225 42.81 42.925Z" fill="#333333"/>
</g>
<defs>
<clipPath id="clip0_8_307">
<rect width="50" height="50" fill="white"/>
</clipPath>
</defs>
</svg>
