<svg width="50" height="50" viewBox="0 0 50 50" fill="none" xmlns="http://www.w3.org/2000/svg">
<g clip-path="url(#clip0_8_416)">
<path d="M47.0425 21.5025L47.0375 21.4675C47.0325 21.1225 46.9975 20.7875 46.9275 20.4625L45.5525 9.83001C45.4622 9.00205 45.0692 8.23662 44.4491 7.68064C43.829 7.12465 43.0254 6.81727 42.1925 6.81751L10.1325 6.905C8.44749 6.905 7.51999 8.1475 7.28749 9.815C7.28749 9.815 5.28249 22.5475 5.27999 22.56C4.82999 25.48 5.53499 26.87 8.56999 26.87C11.605 26.87 14.065 24.485 14.065 21.54C14.065 21.5275 14.0625 21.515 14.0625 21.5025H14.0675C14.0675 21.515 14.065 21.5275 14.065 21.54C14.065 24.4825 16.525 26.87 19.56 26.87C22.595 26.87 25.055 24.485 25.055 21.54C25.055 21.5275 25.0525 21.515 25.0525 21.5025H25.0575C25.0575 21.515 25.055 21.5275 25.055 21.54C25.055 24.4825 27.515 26.87 30.55 26.87C33.585 26.87 36.045 24.485 36.045 21.54C36.045 24.4825 38.505 26.87 41.54 26.87C44.575 26.87 47.035 24.485 47.035 21.54C47.0425 21.5275 47.0425 21.515 47.0425 21.5025V21.5025ZM36.05 21.5425C36.05 21.53 36.0475 21.5175 36.0475 21.505H36.0525C36.0525 21.515 36.05 21.5275 36.05 21.5425Z" fill="#FDD653"/>
<path d="M44.5375 26.2625C43.6775 26.805 42.65 27.12 41.5475 27.12C38.5125 27.12 36.0525 24.735 36.0525 21.79C36.0525 24.7325 33.5925 27.12 30.5575 27.12C27.5225 27.12 25.0625 24.735 25.0625 21.79C25.0625 24.7325 22.6025 27.12 19.5675 27.12C16.5325 27.12 14.0725 24.735 14.0725 21.79C14.0725 24.7325 11.6125 27.12 8.57751 27.12C7.54501 27.12 7.7625 26.72 7.4425 27.12L7.67501 27.645L7.65001 41.36C7.65001 43.085 8.60751 44.9975 10.33 44.9975L30.935 45.0825V37.0025C30.935 34.8175 32.7075 33.045 34.8925 33.045H35.1875C37.3725 33.045 39.145 34.8175 39.145 37.0025V45.1175L41.45 45.1275C43.175 45.1275 44.5725 43.73 44.5725 42.005V26.365L44.5375 26.2625V26.2625ZM18.69 39.385C18.69 39.747 18.5462 40.0942 18.2902 40.3502C18.0342 40.6062 17.687 40.75 17.325 40.75H10.05C9.68798 40.75 9.34079 40.6062 9.0848 40.3502C8.82882 40.0942 8.68501 39.747 8.68501 39.385V39.2825C8.68501 38.9205 8.82882 38.5733 9.0848 38.3173C9.34079 38.0613 9.68798 37.9175 10.05 37.9175H9.85251V31.9525C9.85251 31.285 10.3925 30.745 11.0625 30.745H16.315C16.9825 30.745 17.5225 31.285 17.5225 31.9525V37.9175H17.325C17.687 37.9175 18.0342 38.0613 18.2902 38.3173C18.5462 38.5733 18.69 38.9205 18.69 39.2825V39.385Z" fill="#FF927C"/>
<path d="M17.5225 37.92H11.4025V32.6125C11.4025 32.3425 11.6225 32.1225 11.8925 32.1225H16.315C16.9825 32.1225 17.525 32.6625 17.525 33.3325V37.92H17.5225Z" fill="#84DDFD"/>
<path d="M17.8575 40.75H11.06C10.6 40.75 10.2275 40.3775 10.2275 39.9175C10.2275 39.4575 10.6 39.085 11.06 39.085H17.8575C18.3175 39.085 18.69 39.4575 18.69 39.9175C18.69 40.3775 18.3175 40.75 17.8575 40.75Z" fill="#FBC07C"/>
<path d="M47.7925 21.7925V21.775C47.7925 21.7425 47.7925 21.71 47.79 21.6775V21.675C47.7825 21.305 47.7425 20.9425 47.6725 20.5975L46.3025 8C46.075 5.9 44.31 4.3175 42.1975 4.3175H8.34751C6.30001 4.3175 4.54251 5.8475 4.26001 7.875L2.52001 20.3075C2.40251 20.7625 2.33751 21.225 2.32751 21.6825C2.32501 21.71 2.32501 21.7425 2.32501 21.7725V21.7925C2.32501 23.8525 3.38501 25.675 5.00001 26.775V42.005C5.00001 44.14 6.73751 45.8775 8.87251 45.8775H41.4425C43.5775 45.8775 45.315 44.14 45.315 42.005V26.635C46.82 25.525 47.7925 23.7675 47.7925 21.7925V21.7925ZM3.82501 21.81C3.82501 21.7975 3.82501 21.7875 3.82751 21.775V21.74C3.83251 21.38 3.88251 21.0125 3.98001 20.6475C3.98751 20.6175 3.99501 20.5875 3.99751 20.5575L5.74251 8.08C5.92251 6.79 7.04251 5.815 8.34501 5.815H42.195C43.54 5.815 44.6625 6.82251 44.8075 8.16001L46.1825 20.7925C46.185 20.8175 46.19 20.8425 46.195 20.8675C46.2525 21.14 46.285 21.43 46.2875 21.73C46.2875 21.745 46.2875 21.76 46.29 21.7725C46.29 21.785 46.29 21.7975 46.2925 21.81C46.285 23.535 45.2825 25.04 43.8125 25.8125C43.795 25.8225 43.7775 25.83 43.76 25.8375C43.655 25.89 43.5475 25.94 43.4375 25.9875C43.4025 26.0025 43.365 26.0175 43.3275 26.0325C43.225 26.0725 43.12 26.11 43.015 26.1425C42.985 26.1525 42.9575 26.1625 42.9275 26.17C42.795 26.21 42.6625 26.2425 42.525 26.27C42.4925 26.2775 42.4575 26.2825 42.4225 26.2875C42.315 26.3075 42.205 26.3225 42.095 26.335C41.7505 26.375 41.4027 26.3784 41.0575 26.345C41.0075 26.34 40.9575 26.33 40.9075 26.3225C40.8 26.3075 40.6925 26.295 40.5875 26.275C40.535 26.265 40.485 26.2475 40.4325 26.2375C40.3325 26.215 40.23 26.1925 40.1325 26.1625C40.08 26.1475 40.0275 26.125 39.975 26.1075C39.8825 26.075 39.7875 26.045 39.695 26.01C39.6425 25.99 39.595 25.9625 39.5425 25.94C39.455 25.9 39.365 25.8625 39.28 25.8175C39.2275 25.79 39.18 25.7575 39.13 25.73C39.05 25.685 38.9675 25.64 38.89 25.59C38.84 25.5575 38.7925 25.5175 38.7425 25.4825C38.67 25.43 38.595 25.38 38.525 25.325C38.4775 25.2875 38.435 25.245 38.3875 25.205C38.32 25.1475 38.25 25.09 38.1875 25.03C38.1425 24.9875 38.105 24.9425 38.0625 24.8975C38.0025 24.835 37.9375 24.7725 37.8825 24.705C37.8425 24.6575 37.8075 24.6075 37.7675 24.5575C37.7125 24.49 37.6575 24.4225 37.6075 24.3525C37.57 24.3 37.54 24.245 37.505 24.19C37.46 24.1175 37.41 24.05 37.37 23.975C37.3375 23.9175 37.3125 23.8575 37.2825 23.8C37.245 23.725 37.205 23.6525 37.17 23.575C37.1425 23.515 37.1225 23.45 37.1 23.39C37.07 23.3125 37.0375 23.235 37.01 23.155C36.99 23.09 36.975 23.0225 36.9575 22.9575C36.935 22.8775 36.91 22.7975 36.8925 22.7175C36.8775 22.65 36.87 22.58 36.86 22.5125C36.8475 22.43 36.83 22.35 36.82 22.265C36.8125 22.195 36.8125 22.1225 36.8075 22.0525C36.8025 21.9675 36.795 21.885 36.795 21.7975V21.7775V21.75C36.795 21.725 36.79 21.7 36.7875 21.675L36.17 12.0075C36.1638 11.9091 36.1382 11.8129 36.0948 11.7244C36.0513 11.6359 35.9908 11.5569 35.9167 11.4918C35.8426 11.4268 35.7564 11.377 35.663 11.3454C35.5696 11.3138 35.4709 11.3009 35.3725 11.3075C35.2742 11.3139 35.178 11.3395 35.0896 11.3831C35.0012 11.4266 34.9222 11.4871 34.8572 11.5612C34.7922 11.6353 34.7425 11.7214 34.7108 11.8147C34.6791 11.908 34.6661 12.0067 34.6725 12.105L35.29 21.8025C35.29 21.885 35.2825 21.965 35.2775 22.0475C35.2725 22.12 35.2725 22.1925 35.265 22.265C35.2575 22.345 35.24 22.425 35.2275 22.505C35.215 22.5775 35.2075 22.65 35.1925 22.72C35.175 22.7975 35.1525 22.8725 35.1325 22.9475C35.1125 23.0175 35.0975 23.09 35.075 23.1575C35.05 23.23 35.02 23.3 34.9925 23.3725C34.9675 23.44 34.9425 23.51 34.915 23.5775C34.885 23.645 34.85 23.71 34.815 23.7775C34.7825 23.845 34.75 23.9125 34.715 23.9775C34.68 24.04 34.6375 24.1 34.6 24.16C34.56 24.225 34.52 24.2925 34.4775 24.355C34.4375 24.4125 34.39 24.465 34.3475 24.5225C34.3 24.585 34.255 24.6475 34.2025 24.7075C34.1575 24.76 34.105 24.81 34.0575 24.86C34.0025 24.9175 33.9525 24.9775 33.895 25.0325C33.845 25.08 33.79 25.125 33.7375 25.17C33.6775 25.2225 33.62 25.2775 33.5575 25.3275C33.5025 25.37 33.445 25.41 33.3875 25.45C33.3225 25.4975 33.26 25.5475 33.1925 25.59C33.1325 25.63 33.0675 25.6625 33.005 25.7C32.9375 25.74 32.87 25.7825 32.8025 25.82C32.735 25.855 32.6625 25.885 32.5925 25.9175C32.525 25.95 32.46 25.9825 32.39 26.0125C32.315 26.0425 32.235 26.0675 32.1575 26.095C32.09 26.1175 32.025 26.145 31.955 26.1675C31.8675 26.1925 31.7775 26.2125 31.6875 26.235C31.625 26.25 31.565 26.27 31.5 26.2825C31.405 26.3025 31.305 26.3125 31.2075 26.325C31.1475 26.3325 31.09 26.345 31.03 26.3525C30.7074 26.3829 30.3826 26.3829 30.06 26.3525C30.01 26.3475 29.96 26.3375 29.91 26.33C29.8025 26.315 29.695 26.3025 29.59 26.2825C29.5375 26.2725 29.485 26.255 29.4325 26.2425C29.3325 26.22 29.2325 26.1975 29.135 26.1675C29.08 26.15 29.025 26.1275 28.97 26.11C28.88 26.08 28.7875 26.05 28.7 26.015C28.6425 25.9925 28.5875 25.9625 28.5325 25.9375C28.45 25.9 28.365 25.865 28.285 25.8225C28.2275 25.7925 28.1725 25.7575 28.115 25.7225C28.04 25.68 27.965 25.64 27.8925 25.5925C27.8375 25.555 27.785 25.515 27.73 25.475C27.6625 25.4275 27.5925 25.38 27.5275 25.33C27.475 25.2875 27.425 25.24 27.3725 25.195C27.31 25.1425 27.2475 25.09 27.19 25.035C27.14 24.9875 27.095 24.935 27.0475 24.885C26.9925 24.8275 26.935 24.7725 26.8825 24.71C26.8375 24.655 26.795 24.5975 26.7525 24.5425C26.705 24.48 26.655 24.4225 26.61 24.3575C26.57 24.3 26.535 24.2375 26.4975 24.1775C26.455 24.1125 26.4125 24.0475 26.3725 23.98C26.3375 23.9175 26.3075 23.8525 26.275 23.7875C26.24 23.7175 26.2025 23.65 26.17 23.58C26.14 23.515 26.1175 23.445 26.0925 23.3775C26.065 23.305 26.0325 23.2325 26.01 23.16C25.9875 23.0925 25.9725 23.0225 25.955 22.9525C25.935 22.875 25.91 22.8 25.8925 22.7225C25.8775 22.6525 25.87 22.58 25.8575 22.51C25.845 22.43 25.8275 22.3525 25.82 22.27C25.8125 22.1975 25.8125 22.125 25.8075 22.0525C25.8025 21.97 25.795 21.8875 25.795 21.8025V21.7825V21.755L25.7925 13.0875C25.7925 12.6725 25.4575 12.3375 25.0425 12.3375C24.6275 12.3375 24.2925 12.6725 24.2925 13.0875L24.295 21.715C24.295 21.7275 24.29 21.74 24.29 21.7525C24.29 21.7625 24.29 21.78 24.2925 21.7975V21.8C24.2925 21.885 24.285 21.9675 24.28 22.0525C24.275 22.125 24.275 22.1975 24.2675 22.27C24.26 22.35 24.2425 22.4275 24.23 22.5075C24.2175 22.58 24.21 22.6525 24.195 22.7225C24.1775 22.7975 24.155 22.8725 24.135 22.945C24.115 23.0175 24.1 23.09 24.0775 23.16C24.055 23.23 24.025 23.2975 24 23.365C23.9725 23.4375 23.9475 23.51 23.9175 23.58C23.89 23.645 23.855 23.705 23.8225 23.7675C23.7875 23.8375 23.755 23.91 23.715 23.98C23.6825 24.04 23.6425 24.095 23.6075 24.15C23.565 24.22 23.525 24.29 23.4775 24.355C23.44 24.4075 23.3975 24.4575 23.3575 24.51C23.3075 24.5775 23.2575 24.645 23.2025 24.7075C23.16 24.7575 23.1125 24.8025 23.0675 24.85C23.01 24.9125 22.955 24.975 22.895 25.0325C22.8475 25.0775 22.7975 25.1175 22.7475 25.16C22.685 25.215 22.6225 25.2725 22.5575 25.3275C22.505 25.3675 22.45 25.405 22.395 25.445C22.3275 25.495 22.2625 25.545 22.1925 25.5925C22.135 25.63 22.075 25.66 22.015 25.695C21.9425 25.7375 21.875 25.7825 21.8 25.82C21.7375 25.8525 21.67 25.88 21.605 25.91C21.5325 25.945 21.46 25.98 21.385 26.0125C21.3125 26.0425 21.235 26.065 21.16 26.0925C21.09 26.1175 21.0225 26.145 20.95 26.1675C20.865 26.1925 20.7775 26.2125 20.69 26.2325C20.625 26.2475 20.5625 26.2675 20.4975 26.28C20.3975 26.3 20.2925 26.3125 20.19 26.325C20.135 26.3325 20.0825 26.3425 20.0275 26.35C19.7049 26.3804 19.3801 26.3804 19.0575 26.35C19.0075 26.345 18.9575 26.335 18.9075 26.3275C18.8 26.3125 18.6925 26.3 18.5875 26.28C18.535 26.27 18.4825 26.2525 18.43 26.24C18.33 26.2175 18.23 26.195 18.1325 26.165C18.0775 26.1475 18.0225 26.125 17.9675 26.1075C17.8775 26.0775 17.785 26.0475 17.6975 26.0125C17.64 25.99 17.585 25.96 17.53 25.935C17.4475 25.8975 17.3625 25.8625 17.2825 25.82C17.225 25.79 17.17 25.755 17.1125 25.72C17.0375 25.6775 16.9625 25.6375 16.89 25.59C16.835 25.5525 16.7825 25.5125 16.7275 25.4725C16.66 25.425 16.59 25.3775 16.525 25.3275C16.4725 25.285 16.4225 25.2375 16.37 25.1925C16.3075 25.14 16.245 25.0875 16.1875 25.0325C16.1375 24.985 16.0925 24.9325 16.045 24.8825C15.99 24.825 15.9325 24.77 15.88 24.7075C15.835 24.6525 15.7925 24.595 15.75 24.54C15.7025 24.4775 15.6525 24.42 15.6075 24.355C15.5675 24.2975 15.5325 24.235 15.495 24.175C15.4525 24.11 15.41 24.045 15.37 23.9775C15.335 23.915 15.305 23.85 15.2725 23.785C15.2375 23.715 15.2 23.6475 15.1675 23.5775C15.1375 23.5125 15.115 23.4425 15.09 23.375C15.0625 23.3025 15.03 23.23 15.0075 23.1575C14.985 23.09 14.97 23.02 14.9525 22.95C14.9325 22.8725 14.9075 22.7975 14.89 22.72C14.875 22.65 14.8675 22.5775 14.855 22.5075C14.8425 22.4275 14.825 22.35 14.8175 22.2675C14.81 22.195 14.81 22.1225 14.805 22.05C14.8 21.9675 14.7925 21.8875 14.7925 21.805L15.4 12.1075C15.4061 12.0092 15.3928 11.9106 15.3608 11.8174C15.3288 11.7242 15.2787 11.6383 15.2135 11.5645C15.1482 11.4906 15.0691 11.4304 14.9806 11.3872C14.892 11.3439 14.7958 11.3186 14.6975 11.3125C14.5992 11.3064 14.5006 11.3197 14.4074 11.3517C14.3142 11.3837 14.2282 11.4337 14.1544 11.499C14.0806 11.5642 14.0203 11.6434 13.9771 11.7319C13.9339 11.8205 13.9085 11.9167 13.9025 12.015L13.325 21.655C13.3225 21.6675 13.3225 21.6825 13.3225 21.695C13.32 21.715 13.3175 21.7325 13.3175 21.7525V21.765C13.3175 21.7775 13.3175 21.7875 13.32 21.8C13.32 21.885 13.3125 21.97 13.3075 22.055C13.3025 22.125 13.3025 22.1975 13.295 22.2675C13.285 22.35 13.27 22.43 13.2575 22.5125C13.245 22.5825 13.2375 22.6525 13.2225 22.7225C13.205 22.8 13.1825 22.8775 13.16 22.9525C13.14 23.0225 13.125 23.0925 13.105 23.16C13.0825 23.2325 13.05 23.3025 13.0225 23.375C12.9975 23.4425 12.9725 23.5125 12.9425 23.58C12.9125 23.6475 12.8775 23.7125 12.8425 23.7775C12.81 23.845 12.7775 23.9125 12.74 23.9775C12.705 24.04 12.6625 24.1 12.625 24.16C12.585 24.225 12.545 24.2925 12.5025 24.355C12.4625 24.4125 12.4175 24.465 12.375 24.52C12.3275 24.5825 12.28 24.6475 12.23 24.7075C12.185 24.76 12.135 24.8075 12.09 24.8575C12.035 24.915 11.9825 24.9775 11.925 25.0325C11.875 25.08 11.8225 25.1225 11.7725 25.1675C11.7125 25.22 11.6525 25.2775 11.59 25.3275C11.535 25.37 11.4775 25.4075 11.4225 25.45C11.3575 25.4975 11.2925 25.5475 11.225 25.5925C11.165 25.63 11.1025 25.6625 11.0425 25.7C10.9725 25.74 10.905 25.785 10.835 25.8225C10.77 25.8575 10.7025 25.885 10.635 25.915C10.5625 25.9475 10.4925 25.985 10.42 26.015C10.345 26.045 10.27 26.0675 10.1925 26.095C10.1225 26.12 10.055 26.1475 9.98501 26.1675C9.90001 26.1925 9.81251 26.21 9.72751 26.2325C9.66251 26.2475 9.59751 26.2675 9.53251 26.28C9.43751 26.2975 9.34001 26.31 9.24501 26.3225C9.18501 26.33 9.12501 26.3425 9.06251 26.35C8.7591 26.3795 8.45358 26.3804 8.15001 26.3525C8.11251 26.35 8.07501 26.345 8.03501 26.3425C7.90501 26.3275 7.77501 26.31 7.65001 26.285C7.63751 26.2825 7.62751 26.2825 7.61501 26.28C7.48001 26.2525 7.35001 26.22 7.22001 26.1825C7.18501 26.1725 7.15001 26.1625 7.11251 26.15C6.99251 26.1125 6.87501 26.0725 6.75751 26.025C6.74751 26.02 6.73501 26.0175 6.72501 26.0125C6.59251 25.9575 6.46501 25.8975 6.33751 25.8325C6.32001 25.8225 6.30251 25.815 6.28751 25.805C4.82501 25.025 3.83251 23.5275 3.82501 21.81V21.81ZM31.68 44.3775V37.0025C31.68 35.235 33.12 33.795 34.8875 33.795H35.1825C36.95 33.795 38.39 35.235 38.39 37.0025V44.3775H31.68V44.3775ZM43.8175 27.455V42.005C43.8175 43.3125 42.7525 44.3775 41.445 44.3775H39.89V37.0025C39.89 34.4075 37.7775 32.295 35.1825 32.295H34.8875C32.2925 32.295 30.18 34.4075 30.18 37.0025V44.3775H8.87251C7.56501 44.3775 6.50001 43.3125 6.50001 42.005V27.5275C6.51501 27.5325 6.53001 27.535 6.54501 27.54C6.84751 27.64 7.16001 27.72 7.48001 27.775C7.50001 27.7775 7.52001 27.7825 7.54001 27.785C7.69501 27.81 7.85001 27.83 8.00751 27.8425C8.03251 27.845 8.06001 27.8475 8.08501 27.8475C8.24501 27.86 8.40501 27.8675 8.56751 27.8675C10.94 27.8675 13.005 26.575 14.0625 24.675C15.12 26.575 17.1875 27.8675 19.5575 27.8675C21.9275 27.8675 23.995 26.575 25.0525 24.675C26.11 26.575 28.1775 27.8675 30.5475 27.8675C32.9175 27.8675 34.985 26.575 36.0425 24.675C37.1 26.575 39.1675 27.8675 41.5375 27.8675C41.7225 27.8675 41.905 27.8575 42.085 27.8425C42.1025 27.84 42.12 27.84 42.1375 27.8375C42.3125 27.82 42.485 27.7975 42.655 27.7675C42.6775 27.7625 42.7 27.76 42.7225 27.755C42.89 27.7225 43.0575 27.685 43.22 27.64C43.245 27.6325 43.2675 27.6275 43.2925 27.62C43.455 27.5725 43.6125 27.5225 43.77 27.4625C43.7925 27.4625 43.805 27.46 43.8175 27.455V27.455Z" fill="#333333"/>
<path d="M18.2725 37.3975V31.955C18.2725 30.875 17.3925 29.9975 16.3125 29.9975H11.06C9.98 29.9975 9.1025 30.875 9.1025 31.955V37.3975C8.4125 37.745 7.935 38.46 7.935 39.285V39.3875C7.935 40.5525 8.8825 41.5025 10.05 41.5025H17.325C18.49 41.5025 19.44 40.555 19.44 39.3875V39.285C19.44 38.46 18.965 37.745 18.2725 37.3975V37.3975ZM10.6025 31.955C10.6025 31.7025 10.8075 31.4975 11.06 31.4975H16.3125C16.565 31.4975 16.7725 31.7025 16.7725 31.955V37.17H10.6025V31.955ZM17.94 39.385C17.94 39.7225 17.665 40 17.325 40H10.05C9.71 40 9.435 39.725 9.435 39.385V39.2825C9.435 38.9425 9.71 38.6675 10.05 38.6675H17.325C17.665 38.6675 17.94 38.9425 17.94 39.2825V39.385Z" fill="#333333"/>
</g>
<defs>
<clipPath id="clip0_8_416">
<rect width="50" height="50" fill="white"/>
</clipPath>
</defs>
</svg>
