<svg width="50" height="50" viewBox="0 0 50 50" fill="none" xmlns="http://www.w3.org/2000/svg">
<g clip-path="url(#clip0_8_236)">
<path d="M32.28 13.025C32.245 9.715 31.8825 7.6125 31.2125 7.5375H20.5125C19.6125 7.5375 19.1325 9.6525 19.06 13.025H32.28ZM28.3575 40.795C29.7275 35.7525 30.7125 30.26 31.3325 25.2175H20.1275C20.795 30.24 21.855 35.7225 23.29 40.795H28.3575Z" fill="#84DDFD"/>
<path d="M42.3 14.7275H9.86249C6.96499 14.7275 4.61749 17.075 4.61749 19.9725C4.61749 22.87 6.96499 25.2175 9.86249 25.2175H42.3C45.1975 25.2175 47.545 22.87 47.545 19.9725C47.545 17.075 45.195 14.7275 42.3 14.7275ZM8.41499 22.2475C6.68749 22.2475 5.28749 20.8475 5.28749 19.12C5.28749 17.3925 6.68749 15.9925 8.41499 15.9925C10.1425 15.9925 11.5425 17.3925 11.5425 19.12C11.5425 20.8475 10.1425 22.2475 8.41499 22.2475ZM41.0375 22.2475C39.31 22.2475 37.91 20.8475 37.91 19.12C37.91 17.3925 39.31 15.9925 41.0375 15.9925C42.765 15.9925 44.165 17.3925 44.165 19.12C44.165 20.8475 42.765 22.2475 41.0375 22.2475Z" fill="#F5CD40"/>
<path d="M39.305 19.695C39.305 20.0305 39.3711 20.3628 39.4995 20.6728C39.6279 20.9827 39.8161 21.2644 40.0533 21.5017C40.2906 21.7389 40.5723 21.9271 40.8822 22.0555C41.1922 22.1839 41.5245 22.25 41.86 22.25C42.1955 22.25 42.5278 22.1839 42.8378 22.0555C43.1477 21.9271 43.4294 21.7389 43.6667 21.5017C43.9039 21.2644 44.0921 20.9827 44.2205 20.6728C44.3489 20.3628 44.415 20.0305 44.415 19.695C44.415 19.3595 44.3489 19.0272 44.2205 18.7172C44.0921 18.4073 43.9039 18.1256 43.6667 17.8883C43.4294 17.6511 43.1477 17.4629 42.8378 17.3345C42.5278 17.2061 42.1955 17.14 41.86 17.14C41.5245 17.14 41.1922 17.2061 40.8822 17.3345C40.5723 17.4629 40.2906 17.6511 40.0533 17.8883C39.8161 18.1256 39.6279 18.4073 39.4995 18.7172C39.3711 19.0272 39.305 19.3595 39.305 19.695V19.695Z" fill="#BC9BE0"/>
<path d="M6.64752 19.695C6.64752 20.3726 6.91671 21.0225 7.39586 21.5017C7.87502 21.9808 8.52489 22.25 9.20252 22.25C9.88015 22.25 10.53 21.9808 11.0092 21.5017C11.4883 21.0225 11.7575 20.3726 11.7575 19.695C11.7575 19.3595 11.6914 19.0272 11.563 18.7172C11.4346 18.4073 11.2464 18.1256 11.0092 17.8883C10.7719 17.6511 10.4903 17.4629 10.1803 17.3345C9.87029 17.2061 9.53805 17.14 9.20252 17.14C8.86699 17.14 8.53475 17.2061 8.22477 17.3345C7.91478 17.4629 7.63312 17.6511 7.39586 17.8883C7.15861 18.1256 6.97041 18.4073 6.84201 18.7172C6.71361 19.0272 6.64752 19.3595 6.64752 19.695V19.695Z" fill="#BC9BE0"/>
<path d="M8.41498 22.9975C6.27748 22.9975 4.53748 21.2575 4.53748 19.12C4.53748 16.9825 6.27748 15.2425 8.41498 15.2425C10.5525 15.2425 12.2925 16.9825 12.2925 19.12C12.2925 21.2575 10.555 22.9975 8.41498 22.9975ZM8.41498 16.7425C7.10498 16.7425 6.03748 17.81 6.03748 19.12C6.03748 20.43 7.10498 21.4975 8.41498 21.4975C9.72498 21.4975 10.7925 20.43 10.7925 19.12C10.7925 17.81 9.72748 16.7425 8.41498 16.7425ZM41.0375 22.9975C38.9 22.9975 37.16 21.2575 37.16 19.12C37.16 16.9825 38.9 15.2425 41.0375 15.2425C43.175 15.2425 44.915 16.9825 44.915 19.12C44.915 21.2575 43.175 22.9975 41.0375 22.9975ZM41.0375 16.7425C39.7275 16.7425 38.66 17.81 38.66 19.12C38.66 20.43 39.7275 21.4975 41.0375 21.4975C42.3475 21.4975 43.415 20.43 43.415 19.12C43.415 17.81 42.3475 16.7425 41.0375 16.7425ZM32.8 21.62C31.4225 21.62 30.3 20.5 30.3 19.12C30.3 17.74 31.42 16.62 32.8 16.62C34.18 16.62 35.3 17.74 35.3 19.12C35.3 20.5 34.1775 21.62 32.8 21.62ZM32.8 18.1225C32.25 18.1225 31.8 18.57 31.8 19.1225C31.8 19.675 32.2475 20.1225 32.8 20.1225C33.3525 20.1225 33.8 19.675 33.8 19.1225C33.8 18.57 33.3525 18.1225 32.8 18.1225ZM16.6075 21.62C15.23 21.62 14.1075 20.5 14.1075 19.12C14.1075 17.74 15.2275 16.62 16.6075 16.62C17.9875 16.62 19.1075 17.74 19.1075 19.12C19.1075 20.5 17.985 21.62 16.6075 21.62ZM16.6075 18.1225C16.0575 18.1225 15.6075 18.57 15.6075 19.1225C15.6075 19.675 16.055 20.1225 16.6075 20.1225C17.16 20.1225 17.6075 19.675 17.6075 19.1225C17.6075 18.57 17.1575 18.1225 16.6075 18.1225Z" fill="#333333"/>
<path d="M25.9325 46.6275L25.1825 47.2075C25.0425 47.315 24.845 47.315 24.7075 47.205L23.98 46.6275C23.8476 46.5222 23.7407 46.3883 23.6671 46.236C23.5935 46.0836 23.5552 45.9167 23.555 45.7475V42.0475C23.555 41.9825 23.57 41.92 23.6025 41.865L24.6225 39.98C24.7675 39.71 25.155 39.71 25.3 39.98L26.32 41.865C26.35 41.9225 26.3675 41.985 26.3675 42.0475V45.74C26.3675 46.0875 26.2075 46.415 25.9325 46.6275V46.6275Z" fill="#BC9BE0"/>
<path d="M32.1075 42.0775H27.8675V45.74L31.6475 45.6375C32.8625 45.6375 33.7575 45.4225 34.3075 44.52V44.28C34.31 43.065 33.325 42.0775 32.1075 42.0775ZM23.5575 42.0475C23.5575 41.9825 23.5725 41.92 23.605 41.865L23.3 42.075L18.0525 42.0625C17.795 42.0625 17.08 42.255 17.08 42.9975V43.5025C17.08 44.7175 18.065 45.705 19.2825 45.705H23.5575V42.0475ZM23.6475 6.46C23.6475 6.46 20.645 4.6725 16.57 5.2525C15.3 5.4625 15.5225 7.8675 23.3425 7.5525V7.1475C23.3425 7.1475 23.3675 6.715 23.6475 6.46ZM28.07 6.5375C28.07 6.5375 30.905 4.755 34.9125 4.9825C36.1625 5.08 36.1125 7.2925 28.4825 7.58L28.455 7.2125C28.455 7.2125 28.36 6.7475 28.07 6.5375V6.5375Z" fill="#E56A77"/>
<path d="M41.4475 12.275H33.015C32.95 10.0575 32.715 8.725 32.395 7.9325C34.9275 7.36 36.0525 6.245 36.1975 5.1275C36.3125 4.2525 35.775 3.4875 34.8975 3.3025C30.86 2.5725 27.6775 4.13 26.415 4.8925C26.0386 4.63044 25.5911 4.48997 25.1325 4.49H24.785C24.31 4.49 23.87 4.6375 23.5075 4.8875C22.2425 4.125 19.06 2.575 15.01 3.305C14.155 3.485 13.6175 4.25 13.7325 5.125C13.875 6.2125 14.945 7.3 17.345 7.885C16.8825 8.7775 16.61 10.225 16.515 12.2725H8.44748C4.67248 12.2725 1.60248 15.3425 1.60248 19.1175C1.60248 22.8925 4.67248 25.9625 8.44748 25.9625H17.59C18.38 30.85 19.515 35.6825 20.895 40.04H17.7825C16.155 40.04 14.83 41.365 14.83 42.9925V43.4975C14.83 45.125 16.155 46.45 17.7825 46.45H22.9475C23.0671 46.7485 23.2627 47.0105 23.515 47.21L24.2425 47.7875C24.45 47.9525 24.7 48.035 24.95 48.035C25.195 48.035 25.44 47.955 25.645 47.795L26.395 47.215C26.6525 47.0141 26.8533 46.7496 26.9775 46.4475H32.11C33.7375 46.4475 35.0625 45.1225 35.0625 43.495V42.99C35.0625 41.3625 33.7375 40.0375 32.11 40.0375H28.8725C30.17 35.7575 31.235 30.925 31.9825 25.96H41.45C45.225 25.96 48.295 22.89 48.295 19.115C48.295 15.34 45.2225 12.275 41.4475 12.275ZM34.6125 4.775C34.6825 4.79 34.7275 4.8225 34.7125 4.935C34.65 5.4125 33.5425 6.5625 29.695 6.79H27.3975C27.3975 6.785 27.395 6.7775 27.395 6.77V6.75C27.395 6.53 27.3625 6.32 27.3025 6.1175C28.445 5.4575 31.2125 4.1625 34.6125 4.775V4.775ZM25.1375 5.9925C25.2525 5.9925 25.3625 6.02 25.46 6.0675L25.725 6.37C25.8 6.455 25.855 6.6325 25.885 6.7875H24.0575C24.0875 6.6375 24.1425 6.4575 24.2175 6.37L24.49 6.055C24.5825 6.015 24.685 5.99 24.7925 5.99H25.1375V5.9925ZM15.225 4.935C15.21 4.8225 15.255 4.79 15.3025 4.78C15.93 4.6675 16.535 4.6175 17.115 4.6175C19.675 4.6175 21.69 5.5725 22.625 6.1125C22.565 6.315 22.5325 6.5275 22.5325 6.75V6.7875H20.1975C16.385 6.5525 15.2875 5.41 15.225 4.935V4.935ZM18.8975 8.2875H20.1875C20.655 8.315 21.1525 8.33 21.68 8.33C22.19 8.33 22.73 8.315 23.2975 8.2875H26.6425C27.21 8.315 27.75 8.33 28.26 8.33C28.7875 8.33 29.2825 8.315 29.75 8.2875H30.8925C31.0225 8.4925 31.4225 9.35 31.515 12.275H18.02C18.1975 8.695 18.9 8.2875 18.8975 8.2875ZM22.8075 44.955H17.7825C16.9825 44.955 16.33 44.3025 16.33 43.5025V42.9975C16.33 42.1975 16.9825 41.545 17.7825 41.545H22.925C22.9175 41.5625 22.91 41.58 22.9025 41.595C22.895 41.6125 22.8875 41.63 22.88 41.65C22.87 41.6775 22.8625 41.705 22.8525 41.7325C22.8475 41.7475 22.8425 41.7625 22.84 41.7775C22.8325 41.8125 22.825 41.8475 22.82 41.885C22.8175 41.895 22.8175 41.9025 22.815 41.9125C22.81 41.9575 22.805 42.005 22.805 42.05V44.955H22.8075ZM25.475 46.035L24.9525 46.44L24.45 46.04C24.36 45.9675 24.3075 45.8625 24.3075 45.7475V42.1375L24.63 41.5425H25.2975L25.62 42.1375V45.7375C25.6175 45.855 25.565 45.965 25.475 46.035V46.035ZM33.56 42.995V43.5C33.56 44.3 32.9075 44.9525 32.1075 44.9525H27.1175V42.045C27.1175 42 27.115 41.955 27.11 41.91L27.1025 41.865C27.0979 41.8348 27.092 41.8048 27.085 41.775L27.07 41.7225C27.0625 41.6975 27.055 41.67 27.045 41.645C27.0375 41.625 27.03 41.6075 27.0225 41.59C27.015 41.5725 27.01 41.5575 27.0025 41.54H32.11C32.9075 41.545 33.56 42.195 33.56 42.995V42.995ZM27.3025 40.045H26.19L25.9625 39.6225C25.8653 39.442 25.721 39.2914 25.5448 39.1866C25.3687 39.0818 25.1674 39.0268 24.9625 39.0275C24.545 39.0275 24.1625 39.255 23.965 39.6225L23.7375 40.045H22.4725C21.07 35.71 19.915 30.8725 19.11 25.9675H30.465C29.705 30.9525 28.62 35.79 27.3025 40.045V40.045ZM41.4475 24.4675H8.44748C5.49998 24.4675 3.10248 22.07 3.10248 19.1225C3.10248 16.175 5.49998 13.775 8.44748 13.775H41.4475C44.395 13.775 46.7925 16.1725 46.7925 19.12C46.7925 22.0675 44.395 24.4675 41.4475 24.4675V24.4675Z" fill="#333333"/>
</g>
<defs>
<clipPath id="clip0_8_236">
<rect width="50" height="50" fill="white"/>
</clipPath>
</defs>
</svg>
