<svg width="50" height="50" viewBox="0 0 50 50" fill="none" xmlns="http://www.w3.org/2000/svg">
<g clip-path="url(#clip0_10_1024)">
<path d="M23.79 23.41L23.785 23.415C23.7875 23.4125 23.79 23.4125 23.79 23.41ZM23.575 23.66C23.585 23.645 23.5975 23.63 23.61 23.615C23.5975 23.63 23.585 23.645 23.575 23.66ZM24.7475 22.9425H24.745H24.7475ZM23.485 23.8C23.4975 23.78 23.51 23.76 23.52 23.74C23.51 23.76 23.4975 23.78 23.485 23.8ZM25.8925 23.17C25.905 23.1775 25.915 23.185 25.9275 23.1925C25.915 23.1825 25.9025 23.1775 25.8925 23.17ZM26.1625 23.3675C26.1537 23.3606 26.1453 23.3531 26.1375 23.345C26.145 23.3525 26.155 23.36 26.1625 23.3675ZM25.6275 23.04C25.6375 23.0425 25.645 23.0475 25.655 23.05C25.6475 23.0475 25.6375 23.045 25.6275 23.04ZM26.5225 23.815C26.5175 23.805 26.51 23.795 26.505 23.785C26.51 23.795 26.5175 23.805 26.5225 23.815ZM26.72 24.9725C26.7225 24.9625 26.7225 24.95 26.725 24.94C26.725 24.95 26.7225 24.9625 26.72 24.9725ZM26.65 24.095L26.635 24.05C26.6375 24.065 26.645 24.08 26.65 24.095ZM26.7225 24.3875C26.72 24.375 26.72 24.36 26.7175 24.3475C26.72 24.3625 26.7225 24.375 26.7225 24.3875ZM23.41 23.9475C23.42 23.9225 23.4325 23.9 23.445 23.8775C23.4325 23.9 23.42 23.9225 23.41 23.9475Z" fill="#EDC951"/>
<path d="M25.885 11.435C18.24 11.435 12.04 17.695 12.04 25.4175C12.04 33.14 18.2375 39.4 25.885 39.4C33.5325 39.4 39.73 33.14 39.73 25.4175C39.7275 17.695 33.53 11.435 25.885 11.435ZM25 26.42C24.185 26.42 23.5025 25.8625 23.3075 25.1075L17.8075 19.6075L19.9075 17.5075L25.045 22.645L32.535 15.155L34.635 17.255L26.6575 25.2325C26.5398 25.5787 26.3166 25.8793 26.0194 26.0923C25.7221 26.3052 25.3657 26.4198 25 26.42Z" fill="#EDC951"/>
<path d="M23.27 24.9075C23.27 24.9 23.2675 24.895 23.2675 24.8875C23.2675 24.8925 23.2675 24.9 23.27 24.9075ZM23.3475 24.1025C23.3575 24.075 23.3675 24.0475 23.3775 24.0225C23.3675 24.0475 23.3575 24.075 23.3475 24.1025ZM23.2675 24.445C23.2725 24.4075 23.2775 24.37 23.285 24.3325C23.2775 24.37 23.2725 24.4075 23.2675 24.445Z" fill="#EDC951"/>
<path d="M25.91 7.5C16.17 7.5 8.27502 15.495 8.27502 25.3575C8.27502 35.22 16.17 43.215 25.91 43.215C35.65 43.215 43.545 35.22 43.545 25.3575C43.545 15.495 35.6475 7.5 25.91 7.5ZM25.91 39.54C18.175 39.54 10.2725 32.94 10.2725 25.105C10.2725 17.27 16.9775 9.955 25.6575 9.955C33.3925 9.955 39.9175 17.5225 39.9175 25.355C39.9175 33.1875 33.645 39.54 25.91 39.54Z" fill="#FFB47A"/>
<path d="M25 40.15C16.465 40.15 9.52246 33.2075 9.52246 24.6725C9.52246 16.1375 16.465 9.1925 25 9.1925C33.535 9.1925 40.4775 16.135 40.4775 24.67C40.4775 33.205 33.535 40.15 25 40.15ZM25 10.6925C17.2925 10.6925 11.0225 16.9625 11.0225 24.67C11.0225 32.3775 17.2925 38.65 25 38.65C32.7075 38.65 38.9775 32.38 38.9775 24.6725C38.9775 16.965 32.7075 10.6925 25 10.6925Z" fill="#333333"/>
<path d="M14.7375 40.595C14.7225 40.6425 11.8175 45.5725 11.8175 45.5725H14.0025L16.0925 41.36L14.7375 40.595Z" fill="#FFA750"/>
<path d="M35.2175 40.5275L37.74 46.0225L40.3425 45.69L36.625 39.54L35.2175 40.5275Z" fill="#FFA750"/>
<path d="M15.9825 8.25C15.9825 8.25 10.86 5.0675 6.81502 9.4475C5.69002 10.74 4.09502 14.59 7.38252 17.5075C8.43502 15.1925 11.7225 10.3075 15.9825 8.25Z" fill="#EDC951"/>
<path d="M34.8025 8.49C34.8025 8.49 42.7925 4.1325 45.2325 12.6075C45.0925 14.44 43.7 17.0575 42.455 17.56C41.595 15.1925 34.8025 8.49 34.8025 8.49Z" fill="#EDC951"/>
<path d="M25 15.61C24.585 15.61 24.25 15.275 24.25 14.86V12.28C24.25 11.865 24.585 11.53 25 11.53C25.415 11.53 25.75 11.865 25.75 12.28V14.86C25.75 15.275 25.415 15.61 25 15.61Z" fill="#333333"/>
<path d="M25 37.7925C24.585 37.7925 24.25 37.4575 24.25 37.0425V34.4625C24.25 34.0475 24.585 33.7125 25 33.7125C25.415 33.7125 25.75 34.0475 25.75 34.4625V37.0425C25.75 37.4575 25.415 37.7925 25 37.7925Z" fill="#333333"/>
<path d="M37.3801 25.4125H34.8C34.385 25.4125 34.05 25.0775 34.05 24.6625C34.05 24.2475 34.385 23.9125 34.8 23.9125H37.3801C37.7951 23.9125 38.13 24.2475 38.13 24.6625C38.13 25.0775 37.7951 25.4125 37.3801 25.4125Z" fill="#333333"/>
<path d="M15.1976 25.4125H12.6176C12.2026 25.4125 11.8676 25.0775 11.8676 24.6625C11.8676 24.2475 12.2026 23.9125 12.6176 23.9125H15.1976C15.6126 23.9125 15.9476 24.2475 15.9476 24.6625C15.9476 25.0775 15.6126 25.4125 15.1976 25.4125Z" fill="#333333"/>
<path d="M18.975 19.0225L23.3125 23.3575L24.4325 22.3725L19.885 17.8975L18.975 19.0225Z" fill="#E56A77"/>
<path d="M26.0975 23.3775C26.3925 23.66 26.5675 23.9225 26.5 24.42C26.4725 24.615 26.4675 24.805 26.4075 24.98L34.385 17.0025L33.3475 15.965L25.845 23.3975C25.9275 23.385 26.035 23.3175 26.0975 23.3775Z" fill="#63CCFC"/>
<path d="M44.295 24.6725C44.295 22.375 43.89 20.17 43.15 18.125C43.18 18.1075 43.21 18.09 43.24 18.07C45.345 16.55 46.455 14.0925 46.21 11.5C45.8825 8.03 43.1225 5.2925 39.6475 4.9925C37.365 4.795 35.18 5.6525 33.6475 7.34C33.63 7.36 33.6125 7.3825 33.595 7.405C30.9277 6.06955 27.9855 5.37529 25.0025 5.3775C21.8925 5.3775 18.955 6.1225 16.3525 7.4325C16.3275 7.4 16.305 7.3675 16.2775 7.34C14.745 5.65 12.56 4.795 10.2775 4.9925C6.80251 5.2925 4.04251 8.03 3.71501 11.5C3.47001 14.0925 4.58001 16.55 6.68501 18.07C6.73501 18.105 6.78751 18.1375 6.84251 18.165C6.0926 20.2526 5.70945 22.4543 5.71001 24.6725C5.71001 30.6375 8.43001 35.9775 12.695 39.5175L8.97501 45.6325C8.83501 45.865 8.83001 46.1525 8.96251 46.39C9.02804 46.506 9.12321 46.6026 9.2383 46.6698C9.35338 46.737 9.48424 46.7725 9.61751 46.7725H14.15C14.4425 46.7725 14.71 46.6 14.8325 46.335L16.76 42.1125C19.3354 43.3361 22.1513 43.9698 25.0025 43.9675C28.0025 43.9675 30.8425 43.28 33.3775 42.0525L35.3325 46.335C35.3922 46.4658 35.4883 46.5766 35.6094 46.6542C35.7304 46.7318 35.8712 46.7729 36.015 46.7725H40.5475C40.8175 46.7725 41.0675 46.6275 41.2025 46.39C41.335 46.1525 41.33 45.865 41.19 45.6325L37.4175 39.4275C41.615 35.885 44.295 30.585 44.295 24.6725ZM39.515 6.485C42.2225 6.7175 44.4575 8.935 44.715 11.6375C44.9 13.595 44.1125 15.4525 42.6 16.6675C41.2225 12.995 38.465 9.91 34.9625 8.1275C36.1625 6.935 37.8075 6.3375 39.515 6.485ZM5.20501 11.64C5.46001 8.935 7.69501 6.72 10.405 6.4875C12.1125 6.3375 13.7575 6.9375 14.9575 8.1325C11.4575 9.915 8.69751 13 7.32001 16.6725C5.80501 15.455 5.02001 13.5975 5.20501 11.64ZM15.4225 41.42L13.665 45.2725H10.95L13.8875 40.44C13.975 40.5 14.0625 40.5575 14.15 40.6175C14.205 40.655 14.26 40.69 14.315 40.7275C14.5125 40.86 14.71 40.9875 14.9125 41.11C14.98 41.1525 15.0475 41.1925 15.115 41.2325C15.2175 41.295 15.32 41.36 15.4225 41.42ZM36.225 40.36L39.21 45.27H36.495L34.705 41.3475C34.7925 41.295 34.88 41.24 34.9675 41.185C34.995 41.1675 35.0225 41.1525 35.05 41.135C35.28 40.9925 35.51 40.8475 35.735 40.695C35.7725 40.67 35.8125 40.6425 35.85 40.615C35.9725 40.5325 36.1 40.45 36.225 40.36ZM35.6925 38.885C35.66 38.91 35.625 38.935 35.5925 38.96C35.3925 39.11 35.1875 39.255 34.98 39.395C34.96 39.41 34.94 39.4225 34.92 39.4375C32.085 41.35 28.67 42.465 25 42.465C21.9575 42.465 19.09 41.695 16.5825 40.3425C16.53 40.3125 16.475 40.2825 16.4225 40.255C16.23 40.1475 16.0375 40.0375 15.8475 39.925C15.7975 39.895 15.7475 39.865 15.7 39.835C15.505 39.715 15.315 39.5925 15.125 39.4675C15.085 39.44 15.045 39.4125 15.0025 39.385C14.8025 39.2475 14.6025 39.1075 14.41 38.9625C14.385 38.9425 14.3575 38.925 14.3325 38.905C10.0075 35.655 7.20751 30.485 7.20751 24.6725C7.20751 14.86 15.19 6.88 25 6.88C34.81 6.88 42.795 14.8625 42.795 24.6725C42.795 30.4725 40.0025 35.6325 35.6925 38.885Z" fill="#333333"/>
<path d="M25 9.1925C16.465 9.1925 9.52246 16.135 9.52246 24.67C9.52246 33.205 16.465 40.1475 25 40.1475C33.535 40.1475 40.4775 33.205 40.4775 24.67C40.4775 16.1375 33.535 9.1925 25 9.1925ZM25 38.65C17.2925 38.65 11.0225 32.38 11.0225 24.6725C11.0225 16.965 17.2925 10.6925 25 10.6925C32.7075 10.6925 38.9775 16.9625 38.9775 24.67C38.9775 32.3775 32.7075 38.65 25 38.65Z" fill="#333333"/>
<path d="M35.1625 16.725L33.0625 14.625C32.78 14.3425 32.2825 14.3425 32.0025 14.625L25.0425 21.585L20.4375 16.9775C20.2968 16.837 20.1062 16.7582 19.9075 16.7582C19.7087 16.7582 19.5181 16.837 19.3775 16.9775L17.2775 19.075C17.1375 19.215 17.0575 19.4075 17.0575 19.605C17.0575 19.8025 17.1375 19.995 17.2775 20.135L22.6475 25.505C22.7025 25.6575 22.77 25.8025 22.8525 25.94L16.46 32.275C16.3898 32.3441 16.334 32.4264 16.2957 32.5172C16.2575 32.608 16.2375 32.7054 16.2371 32.804C16.2366 32.9025 16.2556 33.0001 16.293 33.0912C16.3304 33.1824 16.3854 33.2652 16.455 33.335C16.6025 33.4825 16.795 33.5575 16.9875 33.5575C17.1775 33.5575 17.37 33.485 17.515 33.34L23.97 26.945C24.285 27.0875 24.6325 27.17 24.9975 27.17C26.03 27.17 26.915 26.5425 27.2975 25.6475L35.16 17.785C35.3 17.645 35.38 17.4525 35.38 17.255C35.38 17.0575 35.305 16.865 35.1625 16.725ZM19.905 18.5675L23.81 22.4725C23.7125 22.525 23.62 22.5875 23.5325 22.65C23.5125 22.665 23.49 22.68 23.47 22.6975C23.385 22.765 23.3025 22.835 23.225 22.9125C23.2175 22.92 23.21 22.93 23.2025 22.9375C23.1325 23.01 23.0675 23.0875 23.0075 23.1675C22.9925 23.1875 22.9775 23.205 22.9625 23.225C22.9 23.3125 22.8425 23.405 22.79 23.5025L22.7825 23.5175L18.8675 19.605L19.905 18.5675ZM25 25.67C24.53 25.67 24.1375 25.3425 24.03 24.9025C24.025 24.88 24.02 24.8575 24.0175 24.835C24.0075 24.78 24 24.7275 24 24.67C24 24.6 24.0075 24.535 24.02 24.47C24.0735 24.2105 24.2279 23.9829 24.4491 23.8371C24.6703 23.6913 24.9404 23.6393 25.2 23.6925C25.525 23.76 25.79 23.985 25.9175 24.2825C25.9675 24.4025 25.995 24.5325 25.995 24.67C25.995 24.73 25.9875 24.79 25.9775 24.8475C25.9725 24.875 25.965 24.9025 25.9575 24.9275C25.845 25.355 25.46 25.67 25 25.67ZM27.2475 23.58C27.2425 23.57 27.235 23.56 27.2275 23.5475C27.1775 23.45 27.1225 23.355 27.0625 23.265C27.055 23.255 27.0475 23.2475 27.0425 23.2375C26.985 23.155 26.92 23.075 26.8525 23C26.8375 22.9825 26.8224 22.965 26.8049 22.9475C26.7299 22.8675 26.65 22.795 26.565 22.725C26.5525 22.715 26.5375 22.705 26.5225 22.6925C26.445 22.6325 26.3625 22.5775 26.28 22.5275C26.2675 22.52 26.2575 22.51 26.245 22.505L32.535 16.215L33.5725 17.2525L27.2475 23.58Z" fill="#333333"/>
</g>
<defs>
<clipPath id="clip0_10_1024">
<rect width="50" height="50" fill="white"/>
</clipPath>
</defs>
</svg>
