<svg width="50" height="50" viewBox="0 0 50 50" fill="none" xmlns="http://www.w3.org/2000/svg">
<g clip-path="url(#clip0_10_1080)">
<g filter="url(#filter0_i_10_1080)">
<path d="M13.1631 15.7211L30.1705 5.07918C31.1946 4.43792 32.5347 4.76229 33.1668 5.80278L39.3406 15.9457" fill="#FFAC48"/>
</g>
<path d="M28.6932 6.24691L35.0851 15.9432H39.3431L32.2064 4.74731C32.2064 4.74981 30.1828 4.78225 28.6932 6.24691Z" fill="#FC992D"/>
<path d="M20.5767 15.6737L34.213 7.51947L37.6282 13.1286L33.4657 15.9457" fill="#76BFFF"/>
<path d="M30.854 9.52805L34.5852 15.1871L37.5717 13.166L34.0389 7.62424L30.854 9.52805Z" fill="#659CF8"/>
<path d="M39.7766 45H10.2234C7.89044 45 6 43.0679 6 40.6836V20.3164C6 17.9321 7.89044 16 10.2234 16H39.7766C42.1096 16 44 17.9321 44 20.3164V40.6863C44 43.0679 42.1096 45 39.7766 45Z" fill="white"/>
<path d="M40.3158 45.249H12.6634C10.4805 45.249 8.71167 43.4474 8.71167 41.2242V22.2335C8.71167 20.0103 10.4805 18.2088 12.6634 18.2088H40.3158C42.4986 18.2088 44.2675 20.0103 44.2675 22.2335V41.2267C44.2675 43.4474 42.4986 45.249 40.3158 45.249Z" fill="#FF7D7B"/>
<path d="M35.3424 35.6924H44.2675V25.4997H35.3424C32.5788 25.4997 28.5 27.683 28.5 30.5C28.5 33.3146 32.5788 35.6924 35.3424 35.6924Z" fill="#F2C336"/>
<path d="M39.7523 15.1971L38.2529 12.7344V12.7319L35.215 7.73903L33.794 5.40355C32.9488 4.01623 31.153 3.58457 29.7884 4.43792L24.7121 7.61677C24.5462 7.72107 24.4276 7.88799 24.3822 8.08107C24.3367 8.27416 24.3682 8.47771 24.4696 8.64727C24.5717 8.81658 24.7356 8.9377 24.9253 8.98402C25.115 9.03033 25.315 8.99806 25.4814 8.89429L30.5552 5.71794C31.2338 5.29376 32.1232 5.51084 32.5421 6.19701L33.1913 7.26495L20.2043 15.0274C20.1283 15.0723 20.0671 15.1297 20.0132 15.1946H15.4073L23.0805 10.3939C23.4259 10.1768 23.5337 9.7177 23.323 9.36339C23.2725 9.2795 23.2063 9.20657 23.1281 9.14876C23.0499 9.09094 22.9613 9.04938 22.8673 9.02644C22.7734 9.00351 22.6759 8.99964 22.5805 9.01507C22.4851 9.0305 22.3936 9.06492 22.3112 9.11637L12.7785 15.0848C12.7289 15.116 12.6836 15.1538 12.6438 15.1971H10.2722C7.36663 15.1971 5.00245 17.6049 5.00245 20.5642V22.9097C5.00245 23.3239 5.33074 23.6582 5.73743 23.6582C6.14412 23.6582 6.47241 23.3239 6.47241 22.9097V20.5642C6.47241 18.4308 8.17756 16.6942 10.2722 16.6942H39.7327C41.8273 16.6942 43.5325 18.4308 43.5325 20.5642V24.7536H33.696C30.5307 24.7536 27.9558 27.376 27.9558 30.5973C27.9558 33.8211 30.5307 36.4435 33.696 36.4435H43.5325V40.6329C43.5325 42.7663 41.8273 44.5029 39.7327 44.5029H10.2698C8.17511 44.5029 6.46996 42.7663 6.46996 40.6329V22.3572C6.46996 21.943 6.14167 21.6087 5.73498 21.6087C5.32829 21.6087 5 21.943 5 22.3572V40.6329C5 43.5922 7.36418 46 10.2698 46H39.7302C42.6358 46 45 43.5922 45 40.6329V20.5642C45.0024 17.6099 42.6481 15.2071 39.7523 15.1971ZM38.0226 15.1971H35.901L37.4028 14.1791L38.0226 15.1971ZM33.968 8.53499L36.2195 12.2353L36.6286 12.9065L33.2452 15.1971H22.8257L33.968 8.53499ZM33.696 34.9439C31.3416 34.9439 29.4258 32.9927 29.4258 30.5948C29.4258 28.1969 31.3416 26.2482 33.696 26.2482H43.5325V34.9439H33.696Z" fill="#333333"/>
<path d="M33.4657 27.8925C32.003 27.8925 30.8124 29.1052 30.8124 30.5948C30.8124 32.0844 32.003 33.2996 33.4657 33.2996C34.9283 33.2996 36.1214 32.0869 36.1214 30.5948C36.1214 29.1027 34.9283 27.8925 33.4657 27.8925ZM33.4657 31.8025C33.1515 31.8025 32.8502 31.6754 32.6281 31.4491C32.4059 31.2229 32.2811 30.916 32.2811 30.5961C32.2811 30.2761 32.4059 29.9692 32.6281 29.743C32.8502 29.5168 33.1515 29.3896 33.4657 29.3896C34.1198 29.3896 34.6514 29.9311 34.6514 30.5948C34.6514 31.2635 34.1198 31.8025 33.4657 31.8025Z" fill="#333333"/>
</g>
<defs>
<filter id="filter0_i_10_1080" x="13.1631" y="4.75002" width="26.1775" height="11.1956" filterUnits="userSpaceOnUse" color-interpolation-filters="sRGB">
<feFlood flood-opacity="0" result="BackgroundImageFix"/>
<feBlend mode="normal" in="SourceGraphic" in2="BackgroundImageFix" result="shape"/>
<feColorMatrix in="SourceAlpha" type="matrix" values="0 0 0 0 0 0 0 0 0 0 0 0 0 0 0 0 0 0 127 0" result="hardAlpha"/>
<feOffset dy="2"/>
<feComposite in2="hardAlpha" operator="arithmetic" k2="-1" k3="1"/>
<feColorMatrix type="matrix" values="0 0 0 0 1 0 0 0 0 1 0 0 0 0 1 0 0 0 1 0"/>
<feBlend mode="normal" in2="shape" result="effect1_innerShadow_10_1080"/>
</filter>
<clipPath id="clip0_10_1080">
<rect width="50" height="50" fill="white"/>
</clipPath>
</defs>
</svg>
