<svg width="50" height="50" viewBox="0 0 50 50" fill="none" xmlns="http://www.w3.org/2000/svg">
<g clip-path="url(#clip0_8_228)">
<path d="M38.3275 20.8375H14.995C9.34251 20.8375 4.76001 25.105 4.76001 30.37V33.0575C4.76001 34.3725 5.90501 35.44 7.32001 35.44H8.10251C8.06001 35.18 8.03251 34.915 8.03251 34.645C8.03251 31.9775 10.195 29.8175 12.86 29.8175C15.525 29.8175 17.6875 31.98 17.6875 34.645C17.6875 34.9175 17.66 35.1825 17.6175 35.44H31.6275C31.6225 35.3525 31.615 35.265 31.615 35.175C31.615 32.3675 33.89 30.0925 36.6975 30.0925C39.505 30.0925 41.78 32.3675 41.78 35.175C41.78 35.265 41.77 35.3525 41.7675 35.44H46.015C47.4275 35.44 48.575 34.3725 48.575 33.0575V30.37C48.565 25.105 43.9825 20.8375 38.3275 20.8375V20.8375Z" fill="#FCEF7F"/>
<path d="M28.3275 12.165H22.32C18.85 12.165 16.04 14.9775 16.04 18.445V18.98H34.61V18.445C34.61 14.9775 31.7975 12.165 28.3275 12.165V12.165Z" fill="#83DEFB"/>
<path d="M9.435 35.44C9.435 36.5586 9.87934 37.6313 10.6703 38.4222C11.4612 39.2132 12.5339 39.6575 13.6525 39.6575C14.771 39.6575 15.8438 39.2132 16.6347 38.4222C17.4257 37.6313 17.87 36.5586 17.87 35.44C17.87 34.3215 17.4257 33.2487 16.6347 32.4578C15.8438 31.6668 14.771 31.2225 13.6525 31.2225C12.5339 31.2225 11.4612 31.6668 10.6703 32.4578C9.87934 33.2487 9.435 34.3215 9.435 35.44V35.44Z" fill="#FF917B"/>
<path d="M33.2675 35.44C33.2675 36.5586 33.7119 37.6313 34.5028 38.4222C35.2937 39.2132 36.3665 39.6575 37.485 39.6575C38.6036 39.6575 39.6763 39.2132 40.4672 38.4222C41.2582 37.6313 41.7025 36.5586 41.7025 35.44C41.7025 34.3215 41.2582 33.2487 40.4672 32.4578C39.6763 31.6668 38.6036 31.2225 37.485 31.2225C36.3665 31.2225 35.2937 31.6668 34.5028 32.4578C33.7119 33.2487 33.2675 34.3215 33.2675 35.44V35.44Z" fill="#FF917B"/>
<path d="M12.7875 37.155C11.5325 37.155 10.5125 36.135 10.5125 34.88C10.5125 33.625 11.5325 32.605 12.7875 32.605C14.0425 32.605 15.0625 33.625 15.0625 34.88C15.0625 36.135 14.0425 37.155 12.7875 37.155ZM12.7875 34.1075C12.36 34.1075 12.0125 34.455 12.0125 34.8825C12.0125 35.31 12.36 35.6575 12.7875 35.6575C13.215 35.6575 13.5625 35.31 13.5625 34.8825C13.5625 34.455 13.215 34.1075 12.7875 34.1075ZM36.585 37.155C35.33 37.155 34.31 36.135 34.31 34.88C34.31 33.625 35.33 32.605 36.585 32.605C37.84 32.605 38.86 33.625 38.86 34.88C38.86 36.135 37.8375 37.155 36.585 37.155ZM36.585 34.1075C36.1575 34.1075 35.81 34.455 35.81 34.8825C35.81 35.31 36.1575 35.6575 36.585 35.6575C37.0125 35.6575 37.36 35.31 37.36 34.8825C37.36 34.455 37.0125 34.1075 36.585 34.1075Z" fill="#333333"/>
<path d="M36.45 17.87C36.31 13.2225 32.4875 9.485 27.8075 9.485H21.9075C17.2225 9.485 13.4 13.2275 13.265 17.88C6.78001 18.085 1.57001 23.42 1.57001 29.9525V32.2275C1.57001 34.105 3.09751 35.6325 4.97501 35.6325H7.21251C7.58001 38.3825 9.94001 40.51 12.79 40.51C15.64 40.51 18 38.3825 18.3675 35.6325H31.01C31.3775 38.3825 33.7375 40.51 36.5875 40.51C39.4375 40.51 41.7975 38.3825 42.165 35.6325H45.1C46.9775 35.6325 48.505 34.105 48.505 32.2275V29.9525C48.5 23.3 43.0975 17.8875 36.45 17.87ZM34.9525 17.87H25.4575V10.985H27.8075C31.6625 10.985 34.8125 14.05 34.9525 17.87V17.87ZM21.9075 10.985H23.9575V17.87H14.7625C14.9025 14.05 18.0525 10.985 21.9075 10.985V10.985ZM12.7875 39.01C10.51 39.01 8.66001 37.1575 8.66001 34.8825C8.66001 32.605 10.5125 30.755 12.7875 30.755C15.065 30.755 16.915 32.6075 16.915 34.8825C16.9175 37.1575 15.065 39.01 12.7875 39.01ZM36.585 39.01C34.3075 39.01 32.4575 37.1575 32.4575 34.8825C32.4575 32.605 34.31 30.755 36.585 30.755C38.8625 30.755 40.7125 32.6075 40.7125 34.8825C40.7125 37.1575 38.86 39.01 36.585 39.01ZM47 32.2275C47 33.2775 46.145 34.1325 45.095 34.1325H42.16C41.7925 31.3825 39.4325 29.255 36.5825 29.255C33.7325 29.255 31.3725 31.3825 31.005 34.1325H18.365C17.9975 31.3825 15.6375 29.255 12.7875 29.255C9.93751 29.255 7.57751 31.3825 7.21001 34.1325H4.97251C3.92251 34.1325 3.06751 33.2775 3.06751 32.2275V29.9525C3.06751 24.1175 7.81501 19.37 13.65 19.37H36.4175C42.2525 19.37 47 24.1175 47 29.9525V32.2275V32.2275Z" fill="#333333"/>
<path d="M15.725 25.1175H10.2325C9.38 25.1175 8.685 24.4225 8.685 23.57V22.705C8.685 21.8525 9.38 21.1575 10.2325 21.1575H15.725C16.5775 21.1575 17.2725 21.8525 17.2725 22.705V23.57C17.2725 24.4225 16.5775 25.1175 15.725 25.1175ZM10.2325 22.655C10.2199 22.655 10.2078 22.66 10.1989 22.6689C10.19 22.6778 10.185 22.6899 10.185 22.7025V23.5675C10.185 23.595 10.2075 23.615 10.2325 23.615H15.725C15.7525 23.615 15.7725 23.5925 15.7725 23.5675V22.7025C15.7725 22.6899 15.7675 22.6778 15.7586 22.6689C15.7497 22.66 15.7376 22.655 15.725 22.655H10.2325ZM38.5525 25.42H37.08C36.2275 25.42 35.5325 24.725 35.5325 23.8725V22.4C35.5325 21.5475 36.2275 20.8525 37.08 20.8525H38.5525C39.405 20.8525 40.1 21.5475 40.1 22.4V23.8725C40.1 24.7275 39.405 25.42 38.5525 25.42ZM37.0775 22.3525C37.0713 22.3525 37.0651 22.3537 37.0593 22.3561C37.0536 22.3585 37.0483 22.362 37.0439 22.3664C37.0395 22.3708 37.036 22.3761 37.0336 22.3818C37.0312 22.3876 37.03 22.3938 37.03 22.4V23.8725C37.03 23.9 37.0525 23.92 37.0775 23.92H38.55C38.5775 23.92 38.5975 23.8975 38.5975 23.8725V22.4C38.5975 22.3874 38.5925 22.3753 38.5836 22.3664C38.5747 22.3575 38.5626 22.3525 38.55 22.3525H37.0775V22.3525Z" fill="#333333"/>
</g>
<defs>
<clipPath id="clip0_8_228">
<rect width="50" height="50" fill="white"/>
</clipPath>
</defs>
</svg>
