<svg width="50" height="50" viewBox="0 0 50 50" fill="none" xmlns="http://www.w3.org/2000/svg">
<g clip-path="url(#clip0_8_338)">
<path d="M23.1075 26.9675C16.4925 26.715 10.605 26.325 7.53748 25.4425C8.15748 27.0725 10.4875 31.73 18.9625 32.6825H46V31.8275C46 31.8275 47.72 30.265 47.57 26.9825C43.89 27.045 30.3425 27.2425 23.1075 26.9675V26.9675Z" fill="#EDC951"/>
<path d="M44.9625 23.94C44.1125 22.675 43.8125 21.9425 42.9775 21.35C42.9775 21.125 42.59 20.4275 42.1375 19.8875C42.095 20.025 41.9925 18.8125 41.695 18.87C40.845 19.035 29.71 22.3425 28.6125 22.765C28.0525 22.93 27.325 23.38 26.5075 22.97C25.69 22.56 24.2025 21.635 24.2025 21.635L22.6775 20.6325C22.6775 20.6325 22.395 19.72 22.9875 18.825C23.3075 18.0975 23.8575 17.48 23.58 17.2C23.0275 16.6375 21.995 15.855 22.055 15.2175C21.5025 14.36 19.5825 13.5875 19.5825 13.5875C19.5825 13.5875 18.87 15.315 16.495 16.345C16.455 16.3625 15.34 16.8525 15.2975 16.8725C12.78 17.9975 5.75251 22.5675 4.82751 24.365C6.26001 25.02 14.235 26.705 22.79 26.9875C31.345 27.2675 48.5925 26.9875 48.5925 26.9875C48.5925 26.9875 47.875 24.41 44.9625 23.94V23.94Z" fill="#63CCFC"/>
<path d="M24.5175 20.465C24.5175 20.465 24.9225 19 25.615 18.58C26.885 18.4675 38.02 17.03 39.69 17.03C40.3175 17.03 40.24 17.7275 40.695 18.2525C41.15 18.775 41.2925 18.97 41.2925 18.97C41.2925 18.97 41.615 19.375 40.79 19.5225C39.9675 19.67 30.005 22.6725 28.9425 23.0475C28.4 23.195 28.1625 23.2875 27.3725 22.9225C26.5825 22.555 24.8025 21.6 24.3275 21.275C24.5175 20.54 24.5175 20.465 24.5175 20.465Z" fill="#FFB47A"/>
<path d="M49.3175 26.7775C49.2825 26.6425 48.445 23.575 45.18 22.8225C45.02 22.5625 44.88 22.3225 44.7525 22.105C44.285 21.3125 43.9075 20.6675 43.265 20.115C43.1025 19.6125 42.7275 19.0175 42.4625 18.6425C42.4325 18.23 42.22 17.9 42.1675 17.8275C42.1475 17.8 41.695 17.12 41.185 16.445C40.56 15.615 39.945 15.2925 38.995 15.2925C37.0775 15.2925 24.865 16.465 23.8475 16.57C23.8425 16.57 23.8375 16.5725 23.83 16.575C23.325 16.2425 23.0975 16.0375 23.0075 15.9375C22.8725 15.7925 22.78 15.575 22.725 15.2975C22.8875 15.1525 22.985 14.94 22.9775 14.715C22.9375 13.2725 23.0625 12.1425 23.35 11.335C23.4075 11.305 23.46 11.2725 23.5125 11.235C23.6475 11.305 23.7975 11.3425 23.955 11.3425C24.5875 11.3425 25.05 10.7775 25.0675 9.995C25.095 9.7125 25.105 9.1025 24.755 8.715C24.6637 8.61158 24.5513 8.52887 24.4254 8.47239C24.2995 8.41591 24.163 8.38697 24.025 8.3875C23.8975 8.3875 23.78 8.41 23.675 8.4525C23.4475 8.19 23.14 8 22.7525 8C22.5325 8 22.3375 8.0575 22.1725 8.16C22.115 8.1775 22.0575 8.2 22.0025 8.2325C21.86 8.32 18.5125 10.375 17.3175 12.265C17.24 12.3875 17.205 12.53 17.2075 12.67C16.3725 13.3325 15.1175 14.2275 13.76 14.855L13.625 14.92C13.2975 15.0775 12.8 15.335 12.19 15.6675C12.175 15.675 12.16 15.6775 12.145 15.685C10.48 16.5925 7.87 18.135 5.535 19.74C5.5325 19.74 5.5325 19.7425 5.53 19.7425C3.4225 21.195 1.625 22.655 1.145 23.65C0.965001 24.0225 1.12 24.47 1.4925 24.65C1.8 24.8 2.375 24.995 3.1675 25.2175C4.1175 27.2775 7.3975 32.4925 16.44 33.43C16.465 33.4325 16.4925 33.435 16.5175 33.435H45.8625C46.2775 33.435 46.6125 33.1 46.6125 32.685V32.1425C47.1325 31.5825 48.22 30.125 48.3175 27.7225C48.49 27.72 48.5925 27.7175 48.605 27.7175C48.835 27.7125 49.05 27.605 49.19 27.42C49.33 27.2375 49.375 27 49.3175 26.7775V26.7775ZM39.9875 17.3475C40.35 17.8275 40.69 18.3225 40.8425 18.545C40.015 18.745 37.31 19.465 34.5225 20.2275L34.47 20.2425C34.3025 20.2875 34.1325 20.335 33.965 20.38C33.945 20.385 33.925 20.39 33.905 20.3975L33.4125 20.5325C33.3825 20.54 33.355 20.5475 33.325 20.5575C33.165 20.6025 33.0075 20.645 32.85 20.69C32.825 20.6975 32.8 20.7025 32.7775 20.71C32.6225 20.7525 32.4675 20.795 32.315 20.8375C32.28 20.8475 32.245 20.8575 32.2075 20.8675C32.0575 20.91 31.91 20.95 31.765 20.99C31.735 20.9975 31.7075 21.005 31.68 21.015C31.5375 21.055 31.395 21.095 31.255 21.135C31.22 21.145 31.1875 21.155 31.155 21.1625C31.025 21.2 30.8975 21.235 30.7725 21.27C30.74 21.28 30.705 21.29 30.6725 21.2975C30.5425 21.335 30.4175 21.37 30.2925 21.405C30.265 21.4125 30.235 21.4225 30.2075 21.43C30.08 21.4675 29.955 21.5025 29.8325 21.5375C29.8025 21.545 29.7725 21.555 29.7425 21.5625C29.625 21.5975 29.5075 21.63 29.395 21.6625C29.365 21.6725 29.335 21.68 29.305 21.69C29.195 21.7225 29.09 21.7525 28.985 21.785C28.9575 21.7925 28.9275 21.8025 28.9 21.81C28.7975 21.84 28.7 21.87 28.605 21.8975C28.5825 21.905 28.5575 21.9125 28.535 21.9175C28.44 21.945 28.35 21.9725 28.265 22C28.245 22.005 28.2275 22.0125 28.21 22.0175C28.125 22.045 28.0425 22.07 27.9675 22.0925C27.9525 22.0975 27.94 22.1025 27.925 22.105C27.8475 22.13 27.7775 22.1525 27.71 22.175L27.685 22.1825C27.6175 22.205 27.555 22.225 27.5025 22.245C27.5 22.245 27.495 22.2475 27.4925 22.2475C27.4375 22.2675 27.3875 22.285 27.3475 22.3L27.29 22.3175C26.83 22.4625 26.7725 22.4825 26.2175 22.185C25.9327 22.0297 25.651 21.8688 25.3725 21.7025C24.68 21.29 23.8625 20.78 23.3525 20.435L23.42 20.0075C23.4325 19.9425 23.44 19.8875 23.445 19.85C23.4475 19.845 23.4475 19.8375 23.45 19.8325C23.465 19.775 23.48 19.715 23.5 19.6525L23.53 19.555C23.5425 19.5175 23.555 19.4775 23.5675 19.4375L23.62 19.28C23.63 19.25 23.6425 19.2175 23.6525 19.1875C23.6725 19.13 23.695 19.075 23.715 19.0175C23.7275 18.9875 23.74 18.955 23.75 18.925C23.7725 18.87 23.795 18.815 23.8175 18.7625C23.83 18.7325 23.845 18.7025 23.8575 18.6725C23.915 18.5475 23.975 18.43 24.035 18.325C24.0375 18.3225 24.04 18.32 24.04 18.315C24.0775 18.25 24.1175 18.1875 24.1575 18.135C24.165 18.1225 24.1725 18.1125 24.1825 18.1025C24.2 18.0775 24.22 18.055 24.2375 18.0325C26.585 17.8 37.315 16.7875 38.9925 16.7875C39.42 16.7925 39.6025 16.8375 39.9875 17.3475V17.3475ZM21.86 11.06C21.7 11.5725 21.6 12.1125 21.5425 12.65C20.9375 12.28 20.2275 12.005 19.69 11.825C20.2525 11.305 20.905 10.7975 21.4925 10.3775C21.565 10.6475 21.69 10.88 21.86 11.06V11.06ZM11.725 19.275C11.1 19.445 9.7125 19.61 8.3025 19.7075C9.6125 18.8725 10.9025 18.1025 11.9675 17.5C12.04 18.3325 11.8975 19.1575 11.725 19.275V19.275ZM5.945 21.275C5.995 21.285 6.0475 21.2925 6.0975 21.2925C7.945 21.2925 10.91 21.05 12.115 20.7225C13.71 20.2925 13.5025 17.72 13.4475 17.2075C13.445 17.185 13.44 17.16 13.435 17.1375L13.35 16.7375C13.69 16.5575 14 16.4 14.265 16.275L14.39 16.2175C16.0425 15.4525 17.52 14.3575 18.4075 13.6325C19.3275 13.985 20.45 14.47 21.1675 14.8975C21.2 15.555 21.36 16.365 21.9 16.955C22.09 17.16 22.3575 17.385 22.71 17.6325C22.7025 17.6425 22.6975 17.655 22.6925 17.6675C22.29 18.385 22.065 19.2075 21.9925 19.4975C21.9875 19.52 21.9825 19.5375 21.98 19.55C21.975 19.57 21.9725 19.5875 21.97 19.6075L21.945 19.7725C21.9225 19.8975 21.8725 20.1375 21.77 20.595C21.7375 20.7375 21.75 20.8825 21.7975 21.015C21.8375 21.215 21.9575 21.3975 22.1375 21.51C22.2175 21.56 23.705 22.48 24.77 23.1025C25.055 23.27 25.315 23.4175 25.515 23.525C25.5825 23.5625 25.6475 23.595 25.7125 23.625C25.7325 23.635 25.7525 23.6425 25.7725 23.6525C25.815 23.6725 25.8575 23.6925 25.8975 23.71C25.92 23.72 25.9425 23.7275 25.9625 23.7375C26 23.7525 26.035 23.7675 26.07 23.78C26.0925 23.7875 26.115 23.795 26.135 23.8025C26.1675 23.815 26.2025 23.825 26.2325 23.835C26.2525 23.8425 26.275 23.8475 26.295 23.8525C26.3275 23.8625 26.3575 23.87 26.39 23.8775C26.41 23.8825 26.43 23.8875 26.4475 23.89C26.4775 23.8975 26.5075 23.9025 26.5375 23.9075L26.59 23.915C26.62 23.92 26.65 23.9225 26.68 23.925C26.695 23.9275 26.7125 23.9275 26.7275 23.93C26.76 23.9325 26.79 23.9325 26.8225 23.9325H26.86C26.9275 23.9325 26.995 23.9275 27.0625 23.92C27.0725 23.92 27.08 23.9175 27.09 23.9175C27.155 23.91 27.22 23.8975 27.285 23.885C27.2925 23.8825 27.3025 23.88 27.31 23.88C27.375 23.865 27.4425 23.85 27.51 23.83C27.5164 23.8274 27.5231 23.8258 27.53 23.825C27.6 23.805 27.67 23.785 27.7425 23.76L27.825 23.735C27.845 23.7275 27.865 23.7225 27.885 23.7125C28.145 23.605 28.97 23.355 30.0925 23.03C33.76 21.97 40.605 20.1275 41.3475 19.9725C41.405 19.96 41.46 19.9475 41.5125 19.93C41.695 20.2325 41.815 20.49 41.845 20.5975C41.86 20.8125 41.9675 21.01 42.14 21.14C42.6825 21.5525 42.975 22.0475 43.46 22.87C43.6375 23.1725 43.84 23.515 44.08 23.8975C44.1925 24.0775 44.3775 24.2 44.5875 24.2375C46.15 24.505 47.0125 25.485 47.4575 26.2375C43.3175 26.3 28.7675 26.49 21.045 26.22C20.8025 26.2125 20.56 26.2025 20.32 26.19L20.145 26.1825C19.96 26.175 19.7775 26.165 19.595 26.155C19.5325 26.1525 19.4725 26.1475 19.41 26.145L18.875 26.115C18.8125 26.11 18.7475 26.1075 18.685 26.1025C18.51 26.09 18.335 26.08 18.1625 26.0675L17.96 26.0525L17.46 26.015C17.3825 26.01 17.3075 26.0025 17.23 25.9975L16.7725 25.96C16.68 25.9525 16.59 25.945 16.4975 25.935C16.3675 25.9225 16.2375 25.9125 16.11 25.9C15.9925 25.89 15.8725 25.8775 15.755 25.865C15.6625 25.855 15.5675 25.8475 15.475 25.8375C15.3225 25.8225 15.17 25.805 15.0175 25.79L14.875 25.775C9.975 25.245 5.9275 24.4075 3.9075 23.8725C3.885 23.8675 3.865 23.865 3.8425 23.86C3.535 23.7775 3.2575 23.7 3.02 23.625C3.64 22.975 4.7025 22.1475 5.945 21.275V21.275ZM45.3825 31.2525C45.2125 31.395 45.115 31.605 45.115 31.8275V31.9325H16.5575C9.685 31.21 6.5025 27.865 5.145 25.7125C6.085 25.925 7.1375 26.1375 8.27 26.34C8.2875 26.3425 8.305 26.3475 8.325 26.35C8.445 26.3725 8.565 26.3925 8.685 26.4125C11.825 26.9625 15.6975 27.46 19.7875 27.6625L19.95 27.67C20.5139 27.6985 21.0781 27.7202 21.6425 27.735L21.895 27.7425C22.03 27.7475 22.1675 27.75 22.305 27.755C22.42 27.7575 22.5375 27.76 22.655 27.765L22.9575 27.7725C23.11 27.775 23.2625 27.78 23.42 27.7825C23.4525 27.7825 23.4875 27.785 23.52 27.785C31.135 27.9425 42.33 27.81 46.82 27.745C46.7 30.085 45.4375 31.205 45.3825 31.2525V31.2525ZM13.9475 37.12H4.39C3.975 37.12 3.64 36.785 3.64 36.37C3.64 35.955 3.975 35.62 4.39 35.62H13.9475C14.3625 35.62 14.6975 35.955 14.6975 36.37C14.6975 36.785 14.36 37.12 13.9475 37.12ZM35.0275 42.07H9.1675C8.7525 42.07 8.4175 41.735 8.4175 41.32C8.4175 40.905 8.7525 40.57 9.1675 40.57H35.0275C35.4425 40.57 35.7775 40.905 35.7775 41.32C35.7775 41.735 35.4425 42.07 35.0275 42.07ZM47.6675 38.17H28.87C28.455 38.17 28.12 37.835 28.12 37.42C28.12 37.005 28.455 36.67 28.87 36.67H47.6675C48.0825 36.67 48.4175 37.005 48.4175 37.42C48.4175 37.835 48.08 38.17 47.6675 38.17Z" fill="#333333"/>
</g>
<defs>
<clipPath id="clip0_8_338">
<rect width="50" height="50" fill="white"/>
</clipPath>
</defs>
</svg>
